<svg width="75" height="34" viewBox="0 0 75 34" fill="none" xmlns="http://www.w3.org/2000/svg"><path d="M63.225.465H9.478c-4.257 0-7.746 3.677-7.746 8.164v16.327c0 4.487 3.489 8.163 7.746 8.163h53.718c4.257 0 7.746-3.676 7.746-8.163V8.629c.03-4.487-3.46-8.164-7.717-8.164z" fill="#fff"/><path d="M9.478 27.698c-1.42 0-2.602-1.215-2.602-2.742V8.63c0-1.496 1.153-2.742 2.602-2.742h9.194v21.78H9.478v.031z" fill="url(#paint0_linear)"/><path d="M30.44 5.918H18.672v21.78h11.766V5.918z" fill="url(#paint1_linear)"/><path d="M42.235 5.918H30.468v21.78h11.767V5.918z" fill="url(#paint2_linear)"/><path d="M54.001 5.918H42.235v21.78H54V5.918z" fill="url(#paint3_linear)"/><path d="M63.224 27.698H54.03V5.918h9.194c1.42 0 2.602 1.215 2.602 2.742v16.327c-.03 1.496-1.182 2.71-2.601 2.71z" fill="url(#paint4_linear)"/><path d="M74.223 20.25c0 .749-.591 1.372-1.3 1.372h-2.691c-.71 0-1.3-.623-1.3-1.371v-7.322c0-.748.59-1.371 1.3-1.371h2.69c.71 0 1.301.623 1.301 1.37v7.323zM4.038 22.993c0 .748-.591 1.371-1.3 1.371h-1.39c-.71 0-1.301-.623-1.301-1.37V10.217c0-.748.591-1.37 1.3-1.37h1.39c.71 0 1.301.622 1.301 1.37v12.775z" fill="#fff"/><defs><linearGradient id="paint0_linear" x1="12.794" y1="27.708" x2="12.794" y2="5.918" gradientUnits="userSpaceOnUse"><stop stop-color="#FC3F66"/><stop offset=".172" stop-color="#FD5160"/><stop offset=".394" stop-color="#FD615C"/><stop offset=".648" stop-color="#FE6A59"/><stop offset="1" stop-color="#FE6D58"/></linearGradient><linearGradient id="paint1_linear" x1="24.574" y1="27.708" x2="24.574" y2="5.917" gradientUnits="userSpaceOnUse"><stop stop-color="#6E3CF6"/><stop offset=".005" stop-color="#703CF5"/><stop offset=".134" stop-color="#9247E1"/><stop offset=".269" stop-color="#AF50D1"/><stop offset=".414" stop-color="#C556C4"/><stop offset=".571" stop-color="#D55BBB"/><stop offset=".751" stop-color="#DE5EB6"/><stop offset="1" stop-color="#E15FB4"/></linearGradient><linearGradient id="paint2_linear" x1="36.353" y1="27.708" x2="36.353" y2="5.917" gradientUnits="userSpaceOnUse"><stop stop-color="#4A3BF6"/><stop offset="1" stop-color="#458EFA"/></linearGradient><linearGradient id="paint3_linear" x1="48.133" y1="27.708" x2="48.133" y2="5.917" gradientUnits="userSpaceOnUse"><stop stop-color="#2C63FA"/><stop offset=".125" stop-color="#2884FB"/><stop offset=".261" stop-color="#24A1FD"/><stop offset=".408" stop-color="#21B7FE"/><stop offset=".567" stop-color="#1FC7FE"/><stop offset=".748" stop-color="#1DD0FF"/><stop offset="1" stop-color="#1DD3FF"/></linearGradient><linearGradient id="paint4_linear" x1="59.912" y1="27.708" x2="59.912" y2="5.917" gradientUnits="userSpaceOnUse"><stop stop-color="#00ACFA"/><stop offset=".02" stop-color="#00B0FA"/><stop offset=".173" stop-color="#00CDFC"/><stop offset=".337" stop-color="#00E3FD"/><stop offset=".515" stop-color="#00F3FE"/><stop offset=".718" stop-color="#00FCFF"/><stop offset="1" stop-color="#0FF"/></linearGradient></defs></svg>