<svg width="360" height="585" viewBox="0 0 360 585" fill="none" xmlns="http://www.w3.org/2000/svg"><defs><linearGradient id="paint0_linear" x1="-19.454" y1="-604.265" x2="-785.983" y2="117.735" gradientUnits="userSpaceOnUse"><stop stop-color="#21AAF7"/><stop offset="1" stop-color="#1480E8"/></linearGradient><linearGradient id="paint1_linear" x1="254.591" y1="-442.437" x2="-552.282" y2="317.563" gradientUnits="userSpaceOnUse"><stop stop-color="#37CFFF"/><stop offset="1" stop-color="#347BE4"/></linearGradient><linearGradient id="paint2_linear" x1="-44.601" y1="54.131" x2="-467.168" y2="430.85" gradientUnits="userSpaceOnUse"><stop stop-color="#30B3FC"/><stop offset="1" stop-color="#2F96F9"/></linearGradient><linearGradient id="paint3_linear" x1="890.134" y1="626.428" x2="1248.06" y2="268.502" gradientUnits="userSpaceOnUse"><stop offset=".281" stop-color="#1D89ED"/><stop offset="1" stop-color="#0FC6FD"/></linearGradient><linearGradient id="paint4_linear" x1="549.523" y1="185.611" x2="347.648" y2="387.491" gradientUnits="userSpaceOnUse"><stop offset="0%" stop-color="#30B3FC"/><stop offset="100%" stop-color="#2F96F9"/></linearGradient></defs><path fill-rule="evenodd" clip-rule="evenodd" d="M374.994-298.978c43.066 43.066 43.066 112.89 0 155.956l-722 722c-43.065 43.065-112.889 43.065-155.955 0-43.066-43.066-43.066-112.89 0-155.956l722-722c43.066-43.065 112.89-43.065 155.955 0z" fill="url(#paint0_linear)"/><path fill-rule="evenodd" clip-rule="evenodd" d="M665.696-116.978c43.065 43.066 43.065 112.89 0 155.956l-760 759.999c-43.066 43.066-112.89 43.066-155.956 0-43.065-43.065-43.065-112.889 0-155.955l760-760c43.066-43.065 112.89-43.065 155.956 0z" fill="url(#paint1_linear)"/><path fill-rule="evenodd" clip-rule="evenodd" d="M237.898 123.262c39.264 41.484 39.264 108.744 0 150.228L-46.39 587.806c-39.264 41.484-102.924 41.484-142.188 0-39.265-41.485-39.265-108.744 0-150.229L95.709 123.262c39.264-41.485 102.924-41.485 142.189 0z" fill="url(#paint2_linear)"/><path fill-rule="evenodd" clip-rule="evenodd" d="M102.431 695.35c-43.066-43.066-43.066-112.889 0-155.955L843.176-201.35c43.066-43.066 112.89-43.066 155.955 0 43.069 43.066 43.069 112.89 0 155.955L258.386 695.35c-43.066 43.066-112.889 43.066-155.955 0z" fill="url(#paint3_linear)"/><path fill-rule="evenodd" clip-rule="evenodd" d="M286.434 203.837c-36.828-36.828-36.828-96.54 0-133.368L586.499-229.59c36.829-36.829 96.54-36.829 133.369 0 36.829 36.829 36.829 96.54 0 133.369L419.803 203.837c-36.829 36.829-96.54 36.829-133.369 0z" fill="url(#paint4_linear)"/></svg>