<?xml version="1.0" encoding="utf-8"?><svg width="337" height="489" fill="none" xmlns="http://www.w3.org/2000/svg" viewBox="0 0 337 489"><circle cx="50.065" cy="58.695" r="42" transform="rotate(-12.21 50.065 58.695)" fill="#6F55DD"/><rect x="23.224" y="48.133" width="48" height="32" rx="3" transform="rotate(-12.21 23.224 48.133)" fill="#44C0FF"/><path fill="#fff" d="M25.602 49.665l8.796-1.903 1.058 4.886-8.796 1.904z"/><path d="M25.179 47.71a4 4 0 013.064-4.756l.977-.211a4 4 0 014.755 3.063L25.18 47.71z" fill="#3D309B"/><path d="M25.128 56.93l46.914-10.152 4.23 19.547a3 3 0 01-2.298 3.567l-41.05 8.883a3 3 0 01-3.566-2.298l-4.23-19.548z" fill="#fff"/><circle cx="49.682" cy="59.289" r="13.5" transform="rotate(-12.21 49.682 59.29)" fill="#6F54DF"/><circle cx="49.682" cy="59.289" r="10.5" transform="rotate(-12.21 49.682 59.29)" fill="#3E2F9B"/><circle cx="65.391" cy="43.974" r="2.215" transform="rotate(-12.21 65.391 43.974)" fill="#3D309B"/><path d="M57.556 55.76c-1.083-2.974-3.532-3.765-5.463-3.514-1.465.19-2.73.938-3.507 1.977-1.137-.624-2.598-.783-4.011-.35-1.862.57-3.765 2.302-3.52 5.458.203 2.635 2.033 4.965 5.291 6.736a21.4 21.4 0 004.627 1.828 1.277 1.277 0 001.091-.236 21.392 21.392 0 003.458-3.577c2.234-2.96 2.938-5.838 2.034-8.322z" fill="#F55460"/><path d="M57.556 55.76c-1.083-2.974-3.532-3.765-5.463-3.514-1.291.167-2.426.768-3.209 1.62 1.15.49 2.203 1.474 2.817 3.161.904 2.484.2 5.362-2.034 8.322a20.18 20.18 0 01-1.384 1.636 20.67 20.67 0 002.69.91 1.277 1.277 0 001.092-.236 21.405 21.405 0 003.457-3.577c2.234-2.96 2.938-5.838 2.034-8.322z" fill="#D71D2A"/><path d="M55.87 29.814s.91 2.457 3.774 4.302c2.864 1.844 5.478 1.658 5.478 1.658s-2.457.91-4.302 3.774c-1.845 2.864-1.658 5.477-1.658 5.477s-.911-2.456-3.775-4.301c-2.863-1.845-5.477-1.658-5.477-1.658s2.457-.911 4.302-3.775c1.844-2.863 1.658-5.477 1.658-5.477zM45.057 80.242s.532 1.435 2.206 2.514c1.674 1.078 3.201.969 3.201.969s-1.436.532-2.514 2.206c-1.078 1.674-.97 3.201-.97 3.201s-.531-1.436-2.205-2.514c-1.674-1.078-3.201-.97-3.201-.97s1.436-.532 2.514-2.205c1.078-1.674.969-3.201.969-3.201z" fill="#fff"/><mask id="aa" maskUnits="userSpaceOnUse" x="174" y="58" width="101" height="101"><path fill-rule="evenodd" clip-rule="evenodd" d="M233.599 149.945c22.652-4.994 36.967-27.405 31.973-50.057s-27.405-36.967-50.057-31.973-36.967 27.405-31.973 50.057 27.405 36.967 50.057 31.973z" fill="#F19246"/></mask><g mask="url(#aa)"><path fill-rule="evenodd" clip-rule="evenodd" d="M233.599 149.945c22.652-4.994 36.967-27.405 31.973-50.057s-27.405-36.967-50.057-31.973-36.967 27.405-31.973 50.057 27.405 36.967 50.057 31.973z" fill="url(#apaint0_linear)"/><g filter="url(#afilter0_d)"><path d="M237.626 86.756l-.307-1.395a2.75 2.75 0 012.136-3.22 2.77 2.77 0 013.274 2.068l4.352 19.679 1.637-2.961a4.186 4.186 0 015.624-1.66l.953.454-4.444 17.027a7.596 7.596 0 01-5.624 5.222l-8.774 1.934c-2.301.507-4.677-.499-6.475-2.202-2.118-2.005-3.438-9.969-4.353-14.118-.64-2.904 6.684-5.856 3.979-5.463l-3.533-16.027a2.773 2.773 0 012.106-3.294l.013-.003a2.773 2.773 0 013.296 2.103l-.487-2.208a2.771 2.771 0 012.105-3.294l.065-.015a2.764 2.764 0 013.296 2.104l.857 3.887a.402.402 0 01.005.026l.299 1.356z" fill="#FDD7BD"/><path d="M222.025 93.055a2.754 2.754 0 012.157-2.925l.065-.014a2.77 2.77 0 013.292 2.103l2.183 9.9c-.145.019-.287.05-.416.079-1.575.347-3.172 1.389-4.593 2.988-.016-.01-.029-.007-.044-.017l.01-.016-2.587-11.734c-.041-.126-.054-.245-.067-.364zm-1.016.225c.013.118.026.237.051.353.562 2.61 1.541 7.051 2.587 11.734l-.01.016c-1.983-.889-3.829-1.159-5.43-.806a3.928 3.928 0 00-.384.098l-2.169-9.836a2.77 2.77 0 012.103-3.293l.065-.014a2.753 2.753 0 013.187 1.747z" fill="#FDD7BD"/><path d="M208.91 89.91a2.769 2.769 0 012.103-3.293 2.77 2.77 0 013.293 2.103l3.517 15.955c-2.632.769 5.594.786 6.325 4.105 1.007 4.564 2.492 11.575 1.578 13.874-.915 2.3-2.635 4.195-4.933 4.702l-8.765 1.932a7.545 7.545 0 01-7.291-2.372l-11.182-13.575.674-.812a4.18 4.18 0 015.794-.857l2.728 1.997-4.325-19.675a2.768 2.768 0 012.099-3.251 2.758 2.758 0 013.289 2.022l-.854-3.872a2.77 2.77 0 012.103-3.293l.065-.014a2.77 2.77 0 013.292 2.103l.49 2.22z" fill="#FDD7BD"/><path d="M238.205 103.18c-1.834-4.978-5.944-6.289-9.179-5.856-2.455.329-4.57 1.591-5.866 3.338-1.91-1.04-4.36-1.295-6.726-.562-3.117.967-6.295 3.885-5.866 9.173.359 4.416 3.442 8.309 8.915 11.257 3.872 2.086 7.61 2.996 7.768 3.034a2.147 2.147 0 001.827-.403c.127-.1 3.136-2.498 5.772-6.019 3.726-4.976 4.887-9.804 3.355-13.962z" fill="#F55460"/><path d="M238.205 103.18c-1.834-4.978-5.944-6.289-9.179-5.856-2.163.29-4.061 1.305-5.368 2.736 1.929.815 3.702 2.458 4.742 5.282 1.531 4.157.371 8.985-3.355 13.962a33.8 33.8 0 01-2.309 2.751c2.487 1.015 4.403 1.482 4.515 1.509a2.147 2.147 0 001.827-.403c.127-.101 3.136-2.499 5.772-6.019 3.727-4.976 4.887-9.804 3.355-13.962z" fill="#D71D2A"/></g><path fill-rule="evenodd" clip-rule="evenodd" d="M233.599 149.945c22.652-4.994 36.967-27.405 31.973-50.057s-27.405-36.967-50.057-31.973-36.967 27.405-31.973 50.057 27.405 36.967 50.057 31.973z" fill="#00C0F3"/></g><path d="M242.083 129.459c-1.306-.129-3.097-1.452-2.805-4.363.292-2.911 2.293-3.868 3.6-3.739.275.025.69.179 1.175.428-.298-.461-.508-.857-.565-1.114-.15-.679-.022-1.603.566-2.395l-.871-6.065c-1.322-9.12-7.326-16.176-15.162-19.172a24.228 24.228 0 00-6.964-1.545 24.228 24.228 0 00-5.669 4.33c-5.848 6.025-8.34 14.954-5.708 23.773l2.539 8.507c2.479 8.288 14.172 11.832 19.258 10.711 3.328-.734 8.401-4.478 11.14-9.388a3.893 3.893 0 01-.534.032z" fill="#015A9A"/><path d="M228.004 93.018a23.923 23.923 0 00-5.466-1.384c.04.016.08.031.106.038 7.84 3.008 13.855 10.062 15.175 19.169l1.276 8.798c1.236 8.562-7.883 16.695-12.968 17.816-1.055.232-2.401.259-3.887.096 3.465 1.334 6.996 1.746 9.246 1.25 3.328-.734 8.401-4.478 11.14-9.388a2.095 2.095 0 01-.546.034c-1.318-.127-3.097-1.452-2.805-4.363.293-2.911 2.294-3.867 3.6-3.738.276.025.691.179 1.176.428-.299-.462-.509-.858-.566-1.115-.149-.679-.021-1.603.566-2.395l-.87-6.065c-1.322-9.119-7.338-16.173-15.177-19.181z" fill="#13326F"/><path d="M224.878 113.007c.843 3.826-1.576 7.623-5.419 8.471-3.832.844-7.633-1.569-8.479-5.407-.844-3.826 1.576-7.623 5.419-8.471a7.103 7.103 0 018.479 5.407zm15.609-3.441a7.11 7.11 0 01-5.419 8.47c-3.832.845-7.633-1.568-8.479-5.406-.844-3.826 1.576-7.623 5.419-8.471 3.832-.844 7.633 1.569 8.479 5.407z" fill="#B9E746"/><path d="M218.871 107.497a7.019 7.019 0 011.723 3.301c.843 3.826-1.576 7.623-5.419 8.471a7.361 7.361 0 01-2.458.112 7.108 7.108 0 006.744 2.108c3.832-.844 6.266-4.632 5.419-8.47a7.091 7.091 0 00-6.009-5.522zm15.597-3.438a6.996 6.996 0 011.723 3.301c.844 3.826-1.575 7.623-5.419 8.47a7.362 7.362 0 01-2.458.113 7.113 7.113 0 006.744 2.108c3.832-.845 6.266-4.633 5.42-8.471a7.074 7.074 0 00-6.01-5.521z" fill="#A0C83D"/><path d="M235.617 123.316c.712 3.229-1.947 6.552-5.931 7.43-3.985.878-7.797-1.03-8.506-4.247-.71-3.218 2.308-4.914 6.292-5.792 3.985-.879 7.433-.62 8.145 2.609z" fill="#FFCDBE"/><path d="M243.178 112.187l.871 6.066c.481-.658 1.284-1.253 2.495-1.556a24.062 24.062 0 001.693-14.839 24.05 24.05 0 00-6.762-11.834 24.367 24.367 0 00-20.435 1.45c2.359.167 4.709.68 6.964 1.544 7.839 3.008 13.855 10.062 15.174 19.169z" fill="#FFF2B2"/><path d="M219.34 83.763c-12.914 2.847-21.258 15.606-18.61 28.568 1.584 6.681 5.83 12.064 11.351 15.313l-2.415-8.057c-2.635-8.829-.154-17.756 5.696-23.77 6.651-6.84 16.916-9.275 26.104-5.78-5.761-5.563-14.028-8.06-22.126-6.274z" fill="#FFF2B2"/><path d="M219.34 83.763c6.504-1.434 13.101-.103 18.444 3.344-3.981-6.41-11.712-9.932-19.517-8.212-7.804 1.72-13.338 8.168-14.255 15.658 3.362-5.318 8.754-9.34 15.328-10.79z" fill="#FFEA84"/><path d="M231.295 84.146a24.866 24.866 0 016.489 2.961 18.385 18.385 0 00-13.833-8.57 18.304 18.304 0 017.344 5.609z" fill="#FFE046"/><path d="M241.475 90.024a24.116 24.116 0 00-5.455-1.387c.029.019.067.022.093.029a24.023 24.023 0 016.762 11.834 24.006 24.006 0 01-.043 9.837c.284 1.287.315 1.71 1.217 7.916.481-.658 1.284-1.253 2.495-1.556a24.062 24.062 0 001.693-14.839 24.109 24.109 0 00-6.762-11.834z" fill="#FFE565"/><path d="M228.283 83.472c.014.01.026.007.04.016 1.837.748 1.287 3.495-.695 3.478-6.584-.045-12.997 2.583-17.642 7.374-5.848 6.025-8.34 14.955-5.696 23.77l1.13 3.788a24.61 24.61 0 006.661 5.746l-2.415-8.057c-2.635-8.829-.154-17.756 5.696-23.77 6.651-6.84 16.916-9.275 26.104-5.78a24.376 24.376 0 00-13.183-6.565z" fill="#FFE565"/><path d="M217.512 112.594a.923.923 0 01-1.1-.702l-.336-1.521a.924.924 0 01.704-1.1.933.933 0 011.101.702l.335 1.521a.923.923 0 01-.704 1.1zm2.775-.01l.841-1.315a.924.924 0 00-1.558-.993l-.841 1.314a.924.924 0 00.281 1.275.935.935 0 00.704.127.908.908 0 00.573-.408zm2.927.79a.924.924 0 00-1.101-.702l-1.523.336a.924.924 0 00-.704 1.1.924.924 0 001.101.702l1.523-.336a.924.924 0 00.704-1.1zm-.727 4.062a.925.925 0 00-.281-1.276l-1.315-.838a.925.925 0 00-.996 1.557l1.315.838c.215.137.47.179.704.127a.908.908 0 00.573-.408zm-2.682 1.266l-.335-1.521a.924.924 0 00-1.805.398l.336 1.521a.923.923 0 001.804-.398zm-3.493.095l.841-1.314a.925.925 0 00-1.559-.994l-.841 1.314a.926.926 0 00.985 1.403.929.929 0 00.574-.409zm-.317-3.832a.924.924 0 00-1.101-.702l-1.523.336a.924.924 0 10.397 1.802l1.524-.336a.923.923 0 00.703-1.1zm.261-1.493a.924.924 0 00-.281-1.275l-1.316-.839a.924.924 0 00-.996 1.557l1.316.839a.935.935 0 00.704.127.96.96 0 00.573-.409z" fill="#E9F8C5"/><path d="M219.101 119.802A.924.924 0 01218 119.1l-.216-.983a7.12 7.12 0 001.454-1.376.984.984 0 01.246.449l.335 1.521a.948.948 0 01-.718 1.091zm-2.925-.84c-.262.095-.538.18-.816.254a.909.909 0 00.816-.254zm3.719-2.083l1.315.838a.932.932 0 001.289-.284.924.924 0 00-.281-1.275l-1.316-.839a.892.892 0 00-.748-.105 6.756 6.756 0 01-.646 1.136.855.855 0 00.387.529zm3.319-3.505a.924.924 0 00-1.101-.702l-1.371.302a7.158 7.158 0 01-.388 1.754.92.92 0 00.647.091l1.524-.336a.94.94 0 00.689-1.109zm-2.623-2.587c.08.362.134.719.151 1.071l.374-.586a.924.924 0 00-.281-1.275.932.932 0 00-.523-.143c.114.294.21.617.279.933z" fill="#CBED74"/><path d="M233.11 109.156a.924.924 0 01-1.101-.702l-.336-1.522a.923.923 0 011.805-.397l.335 1.521a.916.916 0 01-.703 1.1zm-1.245.875a.924.924 0 00-.281-1.275l-1.316-.839a.924.924 0 00-.996 1.557l1.316.839a.935.935 0 00.704.127.988.988 0 00.573-.409zm-.272 1.496a.924.924 0 00-1.101-.702l-1.524.336a.922.922 0 10.398 1.802l1.523-.336a.924.924 0 00.704-1.1zm.316 3.832l.841-1.314a.925.925 0 00-.281-1.276.929.929 0 00-1.278.282l-.84 1.314a.923.923 0 00.281 1.275.935.935 0 00.704.127.932.932 0 00.573-.408zm3.493-.096l-.335-1.521a.924.924 0 00-1.101-.702.933.933 0 00-.704 1.1l.336 1.521a.923.923 0 001.804-.398zm2.683-1.266a.925.925 0 00-.282-1.275l-1.315-.839a.924.924 0 00-.996 1.557l1.315.839c.215.137.47.179.704.127a.909.909 0 00.574-.409zm.726-4.062a.924.924 0 00-1.101-.702l-1.523.336a.924.924 0 10.397 1.802l1.523-.336a.923.923 0 00.704-1.1zm-2.927-.79l.841-1.314a.924.924 0 00-1.558-.994l-.841 1.314a.925.925 0 00.281 1.276c.215.136.47.178.704.127a.913.913 0 00.573-.409z" fill="#E9F8C5"/><path d="M234.699 116.363a.923.923 0 01-1.101-.702l-.217-.983a7.09 7.09 0 001.454-1.375.971.971 0 01.246.448l.336 1.522a.94.94 0 01-.718 1.09zm-2.926-.839a9.7 9.7 0 01-.816.253c.116.024.25.019.367-.007a.88.88 0 00.449-.246zm7.038-5.589a.924.924 0 00-1.101-.702l-1.371.303a7.224 7.224 0 01-.387 1.754.917.917 0 00.646.09l1.524-.336a.939.939 0 00.689-1.109zm-2.611-2.59c.08.363.134.719.151 1.072l.374-.586a.924.924 0 00-.281-1.275.932.932 0 00-.523-.143c.114.294.21.617.279.932zm-.708 6.095l1.315.839c.215.137.47.179.704.127a.937.937 0 00.585-.411.925.925 0 00-.281-1.276l-1.315-.838a.893.893 0 00-.748-.105 6.731 6.731 0 01-.647 1.136c.058.208.187.4.387.528z" fill="#CBED74"/><path d="M231.827 125.967l-6.48 1.429a.924.924 0 01-1.101-.702.931.931 0 01.704-1.1l6.48-1.429a.924.924 0 11.397 1.802z" fill="#FAA68E"/><path d="M256.426 126.297c1.131-.667 2.2-2.62.711-5.138-1.477-2.521-3.707-2.545-4.838-1.879-.24.139-.551.453-.887.883.077-.545.101-.992.045-1.249-.284-1.287-1.817-2.888-4.676-2.257-2.859.63-3.577 2.727-3.293 4.014.059.269.269.664.565 1.114-.496-.246-.911-.4-1.175-.428-1.307-.129-3.32.83-3.6 3.739-.28 2.908 1.499 4.234 2.805 4.363.276.025.715-.047 1.246-.201-.393.393-.673.737-.776.993-.533 1.209-.234 3.401 2.446 4.577 2.692 1.173 4.498-.108 5.031-1.318.105-.244.179-.69.192-1.245.254.484.497.86.698 1.049.991.873 3.169 1.277 5.118-.92 1.949-2.196 1.287-4.308.295-5.181-.198-.177-.6-.383-1.122-.575.545-.095.976-.203 1.215-.341z" fill="#FFE046"/><path d="M256.426 126.297c1.131-.667 2.2-2.62.711-5.139-1.477-2.52-3.707-2.544-4.838-1.878a2.822 2.822 0 00-.555.491c.005.023.019.032.033.042 1.49 2.518.421 4.471-.71 5.138-.021.016-.044.022-.065.038a.5.5 0 00-.085.841c.017.021.043.028.06.048.991.874 1.641 2.988-.296 5.182-1.949 2.196-4.126 1.793-5.118.92-.017-.021-.031-.03-.048-.051a.494.494 0 00-.82.181c-.007.026-.016.04-.022.066-.237.543-.73 1.093-1.441 1.434.409.462.994.885 1.77 1.229 2.692 1.174 4.498-.108 5.03-1.317.106-.244.18-.69.193-1.245.254.484.496.86.698 1.049.991.873 3.169 1.276 5.118-.92 1.948-2.197 1.286-4.308.295-5.182-.199-.177-.6-.383-1.122-.574.542-.107.973-.215 1.212-.353z" fill="#EEC707"/><path d="M252.513 124.264l-1.687.372.932-1.457a.925.925 0 00-.281-1.276.929.929 0 00-1.278.282l-.932 1.457-.371-1.685a.924.924 0 00-1.805.398l.371 1.685-1.458-.93a.928.928 0 00-1.277.281.925.925 0 00.281 1.276l1.458.93-1.687.372a.924.924 0 00-.704 1.1.924.924 0 001.101.702l1.688-.372-.933 1.457a.925.925 0 00.282 1.275.933.933 0 001.289-.284l.932-1.457.371 1.685a.924.924 0 001.805-.398l-.372-1.685 1.459.93a.935.935 0 00.704.127.94.94 0 00.585-.411.925.925 0 00-.281-1.276l-1.459-.929 1.664-.367a.924.924 0 00.704-1.1.908.908 0 00-1.101-.702zm-3.864 2.815a.964.964 0 00-.301-.302.956.956 0 00-.4-.145.92.92 0 00-.175-.796.967.967 0 00.447-.7.924.924 0 00.797-.175.97.97 0 00.701.447.92.92 0 00.175.795.96.96 0 00-.302.3.963.963 0 00-.146.4.924.924 0 00-.419-.006.971.971 0 00-.377.182z" fill="#EEC707"/><path d="M250.914 125.819c.017.02.043.027.06.048.168.147.317.322.451.538l1.488-.328a.924.924 0 00.704-1.1.924.924 0 00-1.101-.702l-.844.186c-.189.202-.398.37-.602.501-.021.017-.045.022-.066.039-.336.148-.374.586-.09.818zm1.767 1.549l-1.101-.702c.309.619.463 1.431.231 2.329a.914.914 0 001.151-.352.923.923 0 00-.281-1.275z" fill="#DDB907"/><path d="M250.626 125.625a1.823 1.823 0 01-1.389 2.171 1.822 1.822 0 11-.785-3.557 1.822 1.822 0 012.174 1.386z" fill="#E7387F"/><path d="M247.911 81.253s.8 2.133 3.296 3.727c2.496 1.594 4.767 1.423 4.767 1.423s-2.132.8-3.727 3.296c-1.594 2.496-1.423 4.767-1.423 4.767s-.8-2.132-3.296-3.727c-2.495-1.594-4.767-1.423-4.767-1.423s2.133-.8 3.727-3.296c1.594-2.495 1.423-4.767 1.423-4.767zm-49.133 40.528s.48 1.28 1.977 2.236c1.497.957 2.86.854 2.86.854s-1.279.48-2.236 1.977c-.956 1.498-.854 2.86-.854 2.86s-.479-1.279-1.977-2.235c-1.497-.957-2.86-.854-2.86-.854s1.28-.48 2.236-1.978c.956-1.497.854-2.86.854-2.86z" fill="#fff"/><mask id="ab" maskUnits="userSpaceOnUse" x="112" y="25" width="105" height="105"><path fill-rule="evenodd" clip-rule="evenodd" d="M153.285 118.113c22.302 6.378 45.551-6.532 51.929-28.834 6.377-22.302-6.533-45.551-28.835-51.929-22.302-6.377-45.551 6.532-51.928 28.835-6.378 22.302 6.532 45.551 28.834 51.928z" fill="#F19246"/></mask><g mask="url(#ab)"><path fill-rule="evenodd" clip-rule="evenodd" d="M153.285 118.113c22.302 6.378 45.551-6.532 51.929-28.834 6.377-22.302-6.533-45.551-28.835-51.929-22.302-6.377-45.551 6.532-51.928 28.835-6.378 22.302 6.532 45.551 28.834 51.928z" fill="#1A64F5"/><path d="M167.793 61.503l3.106.888-1.342 4.694-3.107-.888 1.343-4.694z" fill="#0045F5"/><path d="M169.346 61.947l1.553.444-1.342 4.694-1.553-.444 1.342-4.694z" fill="#2246A2"/><path d="M148.614 76.214c-.825 2.885-1.64 5.772-2.465 8.656-1.075-.394-2.065-.895-2.546-2.022-.395-.928-.276-1.883-.119-2.817.131-.767.336-1.524.539-2.27.324-1.212.921-1.683 2.202-1.773a7.3 7.3 0 012.389.226z" fill="#F0D0AB"/><path d="M179.401 85.018c-.825 2.884-1.66 5.766-2.485 8.65 1.122.234 2.227.333 3.231-.37.826-.579 1.23-1.453 1.59-2.328.294-.72.52-1.471.743-2.212.365-1.2.108-1.915-.931-2.67a7.312 7.312 0 00-2.148-1.07z" fill="#E9C9A4"/><path d="M177.191 92.706c-2.429 8.496-11.286 13.414-19.782 10.985-8.496-2.43-13.414-11.287-10.984-19.783l4.948-17.305c5.632-1.51 26.785 4.538 30.767 8.797l-4.949 17.306z" fill="#FAE0BD"/><path d="M177.191 92.706c-2.429 8.496-11.286 13.414-19.782 10.985a16.13 16.13 0 01-2.807-1.095c6.73 1.924 15.308-2.61 17.782-11.264l5.355-18.728c2.011.953 3.575 1.913 4.401 2.796l-4.949 17.306z" fill="#F0D0AB"/><path d="M150.412 66.328l5.082.413-5.909 9.751-.961-.275 1.788-9.89zm32.689 9.347l-4.532-2.336-.14 11.401.962.275 3.71-9.34z" fill="#AD5A38"/><path d="M158.374 89.406s.274 2.159 2.334 2.748c2.06.589 3.434-1.098 3.434-1.098" stroke="#E25520" stroke-width="2" stroke-linecap="round"/><ellipse cx="156.933" cy="81.713" rx="1.5" ry="2" transform="rotate(15.958 156.933 81.713)" fill="#484346"/><ellipse cx="169.432" cy="85.288" rx="1.5" ry="2" transform="rotate(15.958 169.432 85.288)" fill="#484346"/><path d="M177.499 48.071c-1.901-.543-3.886-.002-5.377 1.264-1.042.84-1.84 2.053-2.251 3.489l-.367 1.282 10.431 2.983c3.199.914 6.616-1.215 7.628-4.753l.367-1.282-10.431-2.983z" fill="#D71D2A"/><path d="M179.799 46.649a6.878 6.878 0 00-6.013 1.082c-1.144.81-2 2.007-2.411 3.443l-.366 1.282 11.862 3.392c3.638 1.04 9.081-.807 10.381-5.352l-13.453-3.847z" fill="#F55460"/><path d="M167.655 62.504l3.106.888-1.342 4.694-3.106-.888 1.342-4.694z" fill="#0045F5"/><path d="M169.208 62.948l1.553.444-1.342 4.694-1.553-.444 1.342-4.694z" fill="#2246A2"/><path d="M185.489 78.164l-1.447 5.06-38.145-10.907 1.447-5.06c2.971-10.392 13.991-16.527 24.499-13.523 10.507 3.005 16.617 14.039 13.646 24.43zm-3.902 13.72l-3.3 11.541-21.428 2.189-17.031-13.187 3.3-11.54 16.475 15.132 21.984-4.135z" fill="#9EF569"/><path d="M185.489 78.164l-1.447 5.06-19.073-5.453 6.874-24.037c10.507 3.005 16.617 14.039 13.646 24.43zM159.614 95.98l21.973-4.096-3.3 11.541-21.428 2.189 2.755-9.634z" fill="#49B125"/><path d="M170.715 57.678l-26.062 6.964-2.583 9.035 21.167 10.153 23.335 2.572 2.583-9.034-18.44-19.69z" fill="#6FDF47"/><path d="M189.155 77.368l-2.583 9.034-23.335-2.572 7.478-26.152 18.44 19.69z" fill="#49B125"/><path d="M189.155 77.368l-2.583 9.034-23.335-2.572 7.478-26.152 18.44 19.69z" fill="#36CC29"/><path d="M167.881 61.114l3.423.979-4.93 17.242-3.423-.98 4.93-17.241z" fill="#1A64F5"/><path d="M173.135 68.64l3.424.978-2.959 10.345-3.423-.978 2.958-10.346zm4.952 8.584l3.423.979-.986 3.448-3.423-.978.986-3.449z" fill="#2246A2"/><path d="M159.442 64.724l3.424.979-2.959 10.345-3.423-.98 2.958-10.344zm-8.741 4.669l3.423.979-.986 3.448-3.423-.978.986-3.449z" fill="#1A64F5"/><path d="M169.593 61.603l1.711.49-4.93 17.242-1.712-.49 4.931-17.242z" fill="#2246A2"/><path d="M195.351 62.537s-.191 1.39.694 2.983c.885 1.594 2.166 2.167 2.166 2.167s-1.39-.191-2.984.694-2.166 2.165-2.166 2.165.191-1.389-.694-2.983-2.166-2.166-2.166-2.166 1.39.19 2.984-.695 2.166-2.165 2.166-2.165zM134.784 74.34s-.283 2.06 1.03 4.425c1.312 2.364 3.211 3.213 3.211 3.213s-2.061-.284-4.425 1.029-3.213 3.212-3.213 3.212.284-2.061-1.029-4.425-3.212-3.213-3.212-3.213 2.061.283 4.425-1.03c2.364-1.312 3.213-3.211 3.213-3.211z" fill="#fff"/></g><mask id="ac" maskUnits="userSpaceOnUse" x="21" y="374" width="105" height="105"><path fill-rule="evenodd" clip-rule="evenodd" d="M84.802 467.129c22.302-6.375 35.214-29.623 28.838-51.926-6.375-22.302-29.623-35.214-51.926-28.838-22.302 6.375-35.214 29.623-28.839 51.926 6.376 22.302 29.624 35.214 51.927 28.838z" fill="#F19246"/></mask><g mask="url(#ac)"><path fill-rule="evenodd" clip-rule="evenodd" d="M84.802 467.129c22.302-6.375 35.214-29.623 28.838-51.926-6.375-22.302-29.623-35.214-51.926-28.838-22.302 6.375-35.214 29.623-28.839 51.926 6.376 22.302 29.624 35.214 51.927 28.838z" fill="#C385F8"/></g><path d="M46.087 437.208l.061.216c.486.176.959.344 1.445.519 1.248.285 2.499.417 3.778.401 1.736-.112 3.442-.448 5.103-.946.794-.973 1.752-1.783 2.697-2.601l-.005-.057a5.465 5.465 0 01-3.05.091 5.8 5.8 0 01-3.498-1.937 5.514 5.514 0 01-1.542-2.591c-.7-1.874-1.238-3.795-1.765-5.72-.294-1.07-.283-1.073.717-1.533.467-.262.92-.532 1.387-.793.524-.558 1.11-1.064 1.597-1.669.745-.936 1.27-1.984 1.804-3.045.084-.281.169-.561.268-.834.066-.182.198-.255.395-.183.608.187 1.2.367 1.805.544 1.223.199 2.434.435 3.67.513 1.64.091 3.29.179 4.933-.011-.277-.97-.565-1.937-.832-2.91-.606-2.204-1.267-4.393-2.311-6.438-.703-1.384-1.588-2.588-3.053-3.3-.63-.31-1.31-.255-1.956-.455-.132-.091-.25-.01-.37.024a40.15 40.15 0 00-5.276 1.823c-.546.273-1.1.559-1.647.832-1.74.999-3.299 2.225-4.575 3.779-.297.446-.607.885-.904 1.331a13.032 13.032 0 00-1.557 5.434c-.01.585-.005 1.179-.014 1.764.166 1.899.6 3.745 1.142 5.56.168.547.372 1.095.43 1.672.272.704.476 1.415.595 2.162.185.646.391 1.287.533 1.946.336 1.547.697 3.099.533 4.708-.042.595-.09 1.215-.538 1.704z" fill="#E67E3D"/><path d="M104.163 429.349l-.154-.539c-.377-.37-.795-.39-1.293-.236-1.276.399-2.573.724-3.85 1.124-.464.144-.617.024-.721-.424-.15-.609-.294-1.233-.575-1.805-.815-1.656-2.18-2.595-3.961-3.018-.369-.011-.754-.041-1.12-.041-.988.003-1.922.363-2.871.588-.291.095-.571.186-.86.292.403.293.894.117 1.342.281 1.492.564 2.3 1.744 2.794 3.141.465 1.336.802 2.72 1.19 4.078 1.56-.434 3.132-.872 4.696-1.296 1.467-.431 2.931-.873 4.408-1.271.493-.13.837-.368.975-.874z" fill="#5F4EAF"/><path d="M55.389 448.77c.952 1.395 2.085 2.598 3.615 3.455-.17.106-.3.19-.418.271-1.09.929-1.78 2.059-2 3.474-.037.279-.04.559.037.828.17.593.558.797 1.154.615.392-.112.708-.366.983-.642.924-.929 1.527-2.034 1.646-3.35-.146-.716-.63-1.3-.711-2.035l-1.653-5.659c-.056-.194-.063-.343.12-.489.316-.253.612-.536.922-.811l.94-1.283c.504-.96 1.074-1.892 1.427-2.926.086-.234.233-.253.445-.174 2.006.837 4.12 1.142 6.281 1.119l2.469-.391c.32-.115.655-.222.975-.337l-.023-.04c-.501-1.92-1.329-3.7-2.567-5.27-.771-.968-1.62-1.833-2.83-2.279-.62-.231-1.284-.205-1.921-.372a19.47 19.47 0 00-1.88.595c-1.146.445-2.183 1.102-3.233 1.717-.944.818-1.902 1.628-2.696 2.601a17.247 17.247 0 00-1.706 2.936c-.15.462-.298.936-.449 1.398-.23 1.337-.329 2.682-.073 4.031.218 1.092.66 2.061 1.146 3.018z" fill="#AD5A38"/><path d="M62.188 403.685c-.877.065-1.734.321-2.622.307-.577.247-1.244.181-1.81.471.636.203 1.327.145 1.957.455 1.464.712 2.353 1.926 3.053 3.3 1.043 2.045 1.715 4.231 2.311 6.438.267.973.555 1.94.832 2.91l-.005.024c1.109-.118 2.218-.156 3.324-.367-.048-.126-.063-.262-.13-.371-.812-1.399-1.57-2.815-2.163-4.312-.635-1.602-1.158-3.225-1.138-4.967.014-1.356.421-2.568 1.62-3.401-1.519-.451-3.095-.525-4.666-.496-.19-.004-.376.003-.563.009z" fill="#E25520"/><path d="M49.322 424.58c-.294-1.07-.283-1.073.716-1.534.468-.261.92-.531 1.388-.793.524-.557 1.11-1.063 1.586-1.665.745-.936 1.27-1.984 1.803-3.045.085-.281.17-.562.269-.835.066-.182.198-.254.395-.183.608.188 1.2.368 1.805.545 1.223.198 2.434.435 3.67.513 1.64.091 3.29.178 4.933-.011l-.005.024c.192.505.372 1.013.564 1.518-.923.357-1.164 1.533-.514 2.49l.293.406c.37.22.747.427 1.189.161.352.82.323 1.749.643 2.579-.156.033-.156.033 0 0 .458 2.014.754 4.039.328 6.096-.033.172-.032.382-.195.51-.07.171-.135.353-.204.525-.654.059-1.295.125-1.95.184-.605.068-1.185.222-1.77.401-.635.17-1.264.361-1.88.596-1.146.444-2.183 1.102-3.233 1.716l.013-.038a5.465 5.465 0 01-3.05.091 5.804 5.804 0 01-3.498-1.938 5.506 5.506 0 01-1.542-2.59c-.7-1.874-1.227-3.799-1.754-5.723zm6.13-2.3c-.466.145-.606.523-.661.947-.032.218-.014.446-.02.67.118.374.255.731.51 1.043.496.581 1 .612 1.571.099.365-.827.275-1.594-.28-2.298-.28-.363-.623-.615-1.12-.461zm9.637 2.432c-.516-.155-.9.106-1.106.748-.475 1.511-1.997 1.958-3.196.937-.593-.507-.908-.498-1.49.064-.002.036.008.068.017.1-.236.371-.089.678.175.941.913.928 2.01 1.302 3.315 1.046.112-.021.227-.03.339-.051 1.267-.432 2.094-1.286 2.462-2.557.197-.627-.014-1.08-.516-1.228zm-1.932 3.793c.02.029.043.069.063.099a1.345 1.345 0 00-.063-.099z" fill="#FAE0BD"/><path d="M68.011 431.885c-.655.059-1.295.126-1.95.185-.605.068-1.186.222-1.77.401.636.167 1.297.13 1.92.372 1.212.446 2.07 1.308 2.832 2.279 1.237 1.57 2.061 3.339 2.566 5.27 1.318-.459 2.511-1.149 3.647-2.08l.166.582c.481 1.681.986 3.366 1.434 5.057.391 1.45.949 2.864 1.056 4.396.974 1.178 2.203 1.934 3.746 2.099.827.09 1.201-.168 1.42-.848-.259-1.232-1.204-1.859-2.21-2.411a4.285 4.285 0 00-2.3-.543c.187-.38.338-.715.504-1.042.284-.944.596-1.872.653-2.868.02-.588.051-1.18.072-1.769-.21-.487-.221-1.02-.323-1.539-.282-.782-.586-1.558-.993-2.281-1.37-2.114-3.285-3.537-5.629-4.441a20.278 20.278 0 00-3.408-.751c-.475-.015-.954-.042-1.433-.068z" fill="#964E32"/><path d="M73.475 452.238c.13.534-.423.867-.421 1.367l1.822-.59c.46-.33.965-.58 1.374-.964 1.025-1.028 1.542-2.271 1.68-3.686-.094-1.524-.663-2.935-1.057-4.396-.459-1.687-.953-3.376-1.434-5.057l-.166-.582a12.078 12.078 0 01-3.647 2.08l.023.04c.102.356.2.701.291 1.059.152.738.522 1.413.53 2.18.174.323.182.682.248 1.037.26.496.212 1.07.36 1.587.473-.24.939-.467 1.49-.391.356.05.68.191.77.549.096.334-.13.62-.381.809-.468.343-1.014.453-1.588.465.07.947.303 1.883.226 2.85.072.539.078 1.097-.12 1.643zm29.576-16.148c-.522-1.495-1.553-2.132-3.119-1.883-.303.052-.403-.048-.462-.299-.168-.628-.347-1.253-.518-1.892-.06-.169-.11-.342-.17-.511-1.56.434-3.132.872-4.695 1.296l.023.04c.381 1.126.802 2.23 1.075 3.388 1.021.442 1.31 1.455.683 2.392l.463 1.616c.16.689.355 1.367.47 2.057.175 1.151.343 2.315-.083 3.463-.147.391-.322.768-.783.888-.002.117-.017.226-.02.344.222-.052.44-.114.66-.166.702-.224 1.393-.444 2.05-.784 1.296-.662 2.081-1.749 2.606-3.041.076-.477.141-.95.217-1.426-.055-.649-.111-1.297-.333-1.91-.093-.241-.065-.389.231-.509 1.373-.555 1.968-1.646 1.705-3.063zm-20.95 4.695l-.406-1.423c-.368.198-.738.386-1.117.587-.256.342-.515.672-.77 1.013-.02.589-.052 1.181-.072 1.769.254.149.294.452.463.672.758.961 1.727 1.302 2.925.959l-1.023-3.577z" fill="#F0D0AB"/><path d="M94.073 432.793c-.388-1.358-.725-2.742-1.19-4.078-.493-1.397-1.302-2.577-2.794-3.141-.437-.167-.94.012-1.341-.281-.473-.005-.844.346-1.307.374-.673.285-1.362.47-2.078.605-.269.089-.529.21-.796.263-1.419.312-2.664.901-3.613 2.035-.126.176-.26.366-.387.542-.044.094-.053.225-.215.155.101.064.068.155.021.238-.295.574-.446 1.2-.586 1.823.002.338-.01.667.025.995.172 1.467.717 2.838 1.11 4.253 1.089-.312 2.164-.631 3.253-.942-.185-.647-.38-1.29-.543-1.943-.276-1.087.307-2.139 1.39-2.472a45.024 45.024 0 011.688-.483c1.099-.279 2.16.304 2.487 1.364.196.644.37 1.293.566 1.937l4.366-1.213-.056-.031z" fill="#8174BE"/><path d="M55.532 426.314c-.52.078-.958.192-1.472.455a1.54 1.54 0 00-.274.195c-.343.285-.653.642-.51 1.102.137.439.553.576.98.629.798.11 1.503-.103 2.083-.63.329-.293.495-.701.373-1.168-.094-.288-.538-.685-1.18-.583z" fill="#E5C597"/><path d="M55.532 426.314c-.52.078-.958.192-1.472.455a1.54 1.54 0 00-.274.195c-.343.285-.653.642-.51 1.102.137.439.553.576.98.629.798.11 1.503-.103 2.083-.63.329-.293.495-.701.373-1.168-.094-.288-.538-.685-1.18-.583z" fill="#E5C597"/><path d="M70.775 417.236c-.164.046-.364.045-.466.144-.445.419-.776.292-1.07-.16-1.096.208-2.215.248-3.324.367.191.505.372 1.013.563 1.518 1.363.275 1.91 1.983.969 3.057.352.82.323 1.749.642 2.579.458 2.014.755 4.039.33 6.095-.034.173-.033.383-.197.511-.069.171-.134.353-.203.524.479.027.957.053 1.447.076.542-.248 1.12-.448 1.636-.747 1.716-1.004 2.861-2.438 3.25-4.415-.052-.101-.075-.223-.143-.297-.91-.917-1.299-2.111-1.681-3.284-.525-1.587-.929-3.208-1.391-4.825a13.96 13.96 0 01-.362-1.143zm-1.527 5.087c.358-.149.768-.115 1.144-.036.366.082.785.231.849.702.058.45-.215.772-.525 1.048-.329.292-.68.217-1.028-.01-.233-.155-.497-.254-.73-.409-.277-.189-.834-.239-.792-.589.047-.41.586-.506.948-.68.044-.012.08-.011.134-.026z" fill="#F0D0AB"/><path d="M54.767 423.886c.119.374.256.731.51 1.043.497.581 1 .612 1.572.099.365-.827.275-1.594-.28-2.298-.277-.352-.62-.604-1.118-.45-.465.145-.605.523-.66.947-.032.219-.017.436-.024.659z" fill="#484346"/><path d="M59.325 426.558a.277.277 0 01-.017-.1c.581-.562.897-.571 1.49-.064 1.188 1.024 2.71.577 3.196-.937.194-.639.593-.893 1.106-.748.502.148.713.601.526 1.225-.378 1.274-1.195 2.125-2.461 2.557-.112.021-.227.03-.34.051-1.305.256-2.401-.118-3.315-1.046-.274-.26-.42-.567-.185-.938z" fill="#E25520"/><path d="M67.45 422.172c.93-1.07.394-2.782-.969-3.057-.922.358-1.164 1.534-.513 2.49l.293.406c.37.221.746.428 1.189.161z" fill="#484346"/><path d="M72.866 432.712c1.645-.47 3.295-.919 4.817-1.738l.892-.465c.589-.413 1.18-.815 1.77-1.228.006-.142.104-.17.214-.155.127-.176.261-.366.398-.545-1.1.233-2.204.327-3.291-.015a5.604 5.604 0 01-3.088-1.694 20.193 20.193 0 01-.233-.073c-.379 1.973-1.534 3.411-3.25 4.415-.516.299-1.084.496-1.637.747 1.154.16 2.293.394 3.408.751z" fill="#E25520"/><path d="M59.706 451.383l-1.653-5.659c-.056-.194-.063-.343.12-.488.316-.254.612-.537.922-.812l.94-1.283c.504-.96 1.074-1.892 1.427-2.926.086-.234.233-.253.445-.173 2.006.836 4.12 1.141 6.281 1.118l2.469-.391c.32-.115.655-.222.975-.337.102.356.2.7.291 1.059.152.738.522 1.413.53 2.18-.3-.427-.647-.736-1.221-.478-.01-.033-.008-.068-.025-.087l.025.087c-.437.532-.42 1.087-.135 1.67.187.366.44.678.885.668.503-.016.59-.449.709-.82.26.496.208 1.059.359 1.587-.556.777-.494 1.074.292 1.432.07.947.302 1.883.225 2.85.067.563.084 1.118-.113 1.664.129.534-.424.867-.422 1.368-1.925.562-3.853 1.113-5.778 1.675l-.354-.004c-.644.219-1.316.341-1.991.453l-.746-.137c-1.4-.113-2.517-.726-3.343-1.842-.18-.053-.196-.317-.422-.322-.124-.722-.612-1.317-.692-2.052zm10.33-.959s-.004-.011 0 0c-.004-.011 0 0 0 0zm-3.58-.364c.883.866 2.264.996 3.32.321.065-.018.13-.037.21-.048.313-.346.748-.598.864-1.098.032-.009.178-.366.225-.531.143-.448.027-.812-.433-.937-.435-.12-.77.069-.881.544a5.721 5.721 0 00-.054.306c-.278.43-.653.723-1.15.842-.48.009-.912-.101-1.253-.469-.157-.177-.37-.221-.595-.227-.7.352-.78.771-.254 1.297zm-3.599-2.737c.491.769 1.068.768 1.51-.035.046-.374.01-.749-.146-1.089-.172-.394-.41-.734-.894-.735-.508-.006-.61.419-.742.783.036.374.048.744.272 1.076z" fill="#FAE0BD"/><path d="M64.367 447.288c.046-.375.01-.749-.146-1.089-.172-.394-.41-.734-.894-.735-.508-.007-.61.419-.742.783.047.371.059.741.28 1.062.483.783 1.06.781 1.502-.021z" fill="#484346"/><path d="M73.069 446.281c-.556.776-.495 1.074.291 1.432.577-.002 1.123-.111 1.587-.466.264-.191.477-.474.382-.808-.102-.356-.414-.5-.77-.549-.552-.076-1.017.151-1.49.391z" fill="#E5C597"/><path d="M72.46 443.657c-.299-.427-.646-.736-1.22-.479-.437.533-.42 1.088-.136 1.671.187.366.442.678.886.668.502-.016.59-.449.708-.821-.04-.349-.063-.716-.238-1.039z" fill="#484346"/><path d="M82.101 440.785c.042.023.081.035.123.058-.039-.012-.08-.035-.123-.058a4088.112 4088.112 0 00-.588-2.059c.748.393 1.493.774 2.22 1.173-.737-.396-1.486-.788-2.22-1.173-.032-.072-.062-.133-.094-.206l-.522-1.949c1.089-.311 2.164-.63 3.253-.942l2.526-.686c.686-.197 1.383-.396 2.066-.603l.982-.315 4.366-1.214c.38 1.127.802 2.231 1.075 3.388-.683.126-.775.63-.766 1.198.218 1.01.664 1.373 1.45 1.195l.461 1.616c.162.688.356 1.367.47 2.057.176 1.151.344 2.315-.082 3.463-.147.391-.322.768-.783.888-.002.117-.018.226-.02.343l-1.417.441-.325.058c-1.551.466-3.098.908-4.686 1.246-1.21.264-2.35.147-3.446-.391-1.657-.808-2.508-2.22-2.9-3.961l-1.02-3.567zm4.52-2.12c-.455.142-.657.794-.458 1.448.192.633.713 1.055 1.15.931.47-.124.68-.754.474-1.43-.197-.69-.701-1.093-1.166-.949zm7.992 3.066c.087-.398-.098-.672-.458-.778-.4-.119-.701.06-.849.452-.095.284-.18.564-.398.79-.549.553-1.368.613-1.992.08-.313-.272-.635-.448-1.009-.19-.344.238-.35.59-.187.951a3.665 3.665 0 001.785.97c1.334.05 2.343-.459 2.92-1.697.09-.177.14-.378.188-.578z" fill="#FAE0BD"/><path d="M94.406 437.419c.218 1.01.663 1.372 1.448 1.194.628-.937.338-1.95-.683-2.392-.694.128-.772.64-.766 1.198z" fill="#484346"/><path d="M91.508 444.017c1.334.05 2.343-.46 2.92-1.697.088-.188.136-.389.185-.589.087-.398-.098-.672-.458-.779-.4-.119-.701.061-.849.453-.095.284-.18.564-.398.79-.549.553-1.368.613-1.992.08-.313-.272-.635-.448-1.009-.19-.344.238-.35.59-.187.951a3.627 3.627 0 001.788.981z" fill="#E25520"/><path d="M86.679 434.953c.686-.196 1.383-.395 2.066-.602l.982-.316c-.185-.646-.359-1.296-.565-1.936-.327-1.061-1.392-1.654-2.487-1.364-.57.151-1.125.31-1.689.482-1.08.344-1.666 1.386-1.39 2.473.174.649.359 1.296.543 1.943.856-.222 1.698-.451 2.54-.68z" fill="#E67E3D"/><path d="M66.712 448.774c.226.005.438.049.595.226.33.372.773.478 1.254.469a1.771 1.771 0 001.15-.841.153.153 0 00-.028-.097c.028-.066.056-.133.08-.21.113-.475.458-.667.882-.543.46.125.576.488.433.937-.05.154-.097.319-.133.481-.03.02-.063.029-.092.049-.117.5-.551.752-.864 1.098-.066.019-.131.038-.21.049-1.056.675-2.437.545-3.32-.322-.53-.536-.45-.955.253-1.296z" fill="#E25520"/><path d="M69.248 422.323l-.13.037c-.367.163-.902.269-.95.679-.04.35.505.404.793.59.233.155.497.254.73.409.348.227.699.301 1.028.009.31-.275.583-.598.525-1.047-.053-.475-.483-.62-.849-.702-.37-.104-.778-.127-1.147.025z" fill="#E5C597"/><path d="M87.79 439.625c-.197-.69-.69-1.097-1.166-.949-.455.142-.657.794-.458 1.448.192.633.714 1.055 1.15.931.46-.12.668-.751.474-1.43z" fill="#484346"/><path d="M73.52 401.53c-.358.44-.726.884-1.083 1.324-.202.407-.47.787-.578 1.237.053.102.084.21.144.297 1.108 1.607 1.96 3.31 2.368 5.233 1.029-.399 2.03-.359 3.052.084 1.556.662 3.125.668 4.705-.028.552-.251 1.018-.641 1.534-.94l.954-1.112a2.77 2.77 0 011.528-1.334 1.02 1.02 0 01.08-.128c-.017-.146-.072-.294-.065-.436a23.426 23.426 0 00-.09-3.285c-.13-1.443-.63-2.699-1.639-3.751-.584-.602-1.344-.91-2.106-1.228-.401.08-.817.152-1.218.232-.683.207-1.38.406-2.063.613-.981.443-1.986.801-2.928 1.338-.943.537-1.793 1.189-2.596 1.884z" fill="#AD5A38"/><path d="M82.324 397.463c.76.308 1.519.615 2.107 1.228 1.007 1.052 1.508 2.308 1.638 3.752.1 1.09.141 2.185.09 3.284-.007.142.037.293.066.436 1.928-.551 3.364-.018 4.462 1.638.268.402.54.814.863 1.164.657.733 1.382 1.412 2.428 1.486.531.046 1.079-.099 1.617-.031a2316.21 2316.21 0 01-.487-3.311c-.1-.636-.207-1.258-.306-1.894-.241-1.05-.464-2.117-.803-3.139-.352-1.066-.798-2.092-1.48-2.993-1.244-1.672-2.965-2.416-5.028-2.339-1.734.076-3.466.28-5.167.719z" fill="#964E32"/><path d="M95.598 410.431c-.546-.054-1.086.077-1.617.031-1.05-.085-1.77-.753-2.428-1.486a11.499 11.499 0 01-.863-1.164c-1.112-1.664-2.534-2.189-4.462-1.638-.024.041-.047.083-.081.128.375.86.74 1.723.988 2.631.44.679.445 1.517.853 2.204l.345 1.207c1.152.65 1.485 1.814.841 2.942.171.721.4 1.436.48 2.171.042.396.282.782.141 1.195.03.144.13.29.033.445.373.442.611.945.76 1.508.206.758.209.768-.537 1.005.182 1.172-.077 2.283-.447 3.38.949-.225 1.872-.582 2.871-.588.377-.002.751.03 1.12.042.495-.329.86-.783 1.27-1.203l.801-1.278c.453-1.178.742-2.392.543-3.664-.114-.771-.319-1.529-.477-2.288-.038-.176-.218-.392.088-.515.46-.248.848-.58 1.23-.934.896-1.48.57-3.322-1.452-4.131z" fill="#F0D0AB"/><path d="M67.417 404.172c-1.199.833-1.606 2.045-1.62 3.401-.02 1.742.514 3.362 1.138 4.967.596 1.508 1.354 2.923 2.163 4.312.067.109.093.242.13.371.294.452.625.579 1.07.16.113-.102.313-.101.466-.144.187-.17.37-.351.558-.521.228-.357.453-.724.583-1.134.304-.915.38-1.846.391-2.793.01-.586.11-1.139.453-1.633.225-.531.65-.897 1.09-1.256-1.52-2.387-3.09-4.712-5.744-6.04-.209.095-.436.206-.678.31z" fill="#AD5A38"/><path d="M68.116 403.856c2.654 1.328 4.226 3.653 5.745 6.04.035.001.068-.008.115-.01.129-.084.266-.181.395-.265-.416-1.909-1.271-3.623-2.367-5.233-.06-.087-.092-.195-.144-.297-.597-.109-1.154-.369-1.772-.426-.674-.052-1.338-.107-1.972.191z" fill="#964E32"/><path d="M83.44 423.255c.567-.78 1.064-1.598.908-2.719 1.014 1.61 2.215 2.059 3.96 1.572.578-.165 1.17-.322 1.746-.487.754-.251.743-.248.538-1.005-.15-.563-.387-1.067-.76-1.508-.76-.715-1.652-1.078-2.713-.915-.383.063-.76.183-1.145.281-1.481.424-2.954.879-4.441 1.281-.907.248-1.648.705-2.2 1.457-.192.439-.34.913-.429 1.381.012.58.205 1.131.352 1.683.075.305.204.385.516.284.63-.192 1.267-.351 1.902-.52.638-.159 1.194-.482 1.767-.785z" fill="#AD5A38"/><path d="M88.333 412.344c-.71.028-1.02.304-1.12.985a2.128 2.128 0 00.49 1.713c.447.537.853.596 1.46.247.655-1.131.325-2.284-.83-2.945z" fill="#484346"/><path d="M71.11 418.41l-.335-1.175c.187-.17.37-.35.558-.52.228-.357.452-.724.583-1.135.304-.914.38-1.845.391-2.793.01-.585.11-1.138.452-1.633.226-.53.651-.897 1.09-1.255.036.001.069-.008.116-.01.129-.083.266-.181.395-.265 1.029-.399 2.03-.358 3.052.084 1.556.662 3.125.669 4.705-.028.552-.251 1.018-.641 1.534-.94l.954-1.112a2.774 2.774 0 011.528-1.334c.375.86.74 1.724.988 2.632.44.678.445 1.516.854 2.204l.345 1.207c-.711.028-1.021.303-1.121.984a2.13 2.13 0 00.49 1.714c.448.536.853.595 1.46.247.171.72.4 1.436.48 2.171.042.396.282.782.141 1.195.03.143.13.289.033.445-.758-.716-1.651-1.078-2.712-.915-.383.063-.76.183-1.145.281-1.481.423-2.953.879-4.44 1.281-.908.248-1.65.704-2.2 1.456-.193.44-.34.913-.43 1.382.012.579.205 1.13.352 1.683.075.305.204.385.517.284.628-.192 1.266-.351 1.9-.521.642-.148 1.209-.473 1.782-.777.566-.78 1.063-1.598.907-2.719 1.014 1.61 2.215 2.06 3.96 1.572.578-.165 1.17-.322 1.746-.487.182 1.172-.077 2.284-.447 3.38a26.22 26.22 0 00-.86.292c-.472-.004-.843.346-1.306.374-1.09-.761-1.09-.761 0 0a9.965 9.965 0 01-2.078.605c-.269.089-.529.21-.796.263-1.419.312-2.664.902-3.613 2.035-1.1.233-2.204.327-3.291-.015a5.597 5.597 0 01-3.088-1.693l-.233-.073c-.053-.102-.076-.224-.144-.297-.91-.917-1.299-2.112-1.681-3.285-.518-1.565-.934-3.183-1.393-4.789zm6.06.016c.528.362 1.08.193 1.34-.383.329-.747-.016-1.953-.686-2.403-.525-.351-1.084-.203-1.34.383a1.77 1.77 0 00-.04 1.305c.12.456.345.834.727 1.098z" fill="#FAE0BD"/><path d="M76.448 417.339c.104.448.341.823.723 1.087.527.362 1.08.193 1.34-.383.328-.747-.017-1.954-.687-2.403-.525-.351-1.084-.203-1.34.383-.182.437-.173.877-.036 1.316z" fill="#484346"/><path d="M47.857 426.728s.904 2.023 3.424 3.422c2.519 1.399 4.714 1.098 4.714 1.098s-2.023.904-3.422 3.423c-1.4 2.519-1.098 4.715-1.098 4.715s-.904-2.024-3.423-3.423-4.715-1.097-4.715-1.097 2.024-.904 3.423-3.423 1.097-4.715 1.097-4.715zm44.925 23.559s.591 1.323 2.238 2.237c1.646.915 3.082.718 3.082.718s-1.323.591-2.237 2.237c-.915 1.647-.718 3.082-.718 3.082s-.59-1.323-2.237-2.237c-1.647-.915-3.082-.717-3.082-.717s1.323-.592 2.237-2.238c.915-1.646.717-3.082.717-3.082z" fill="#fff"/><mask id="ad" maskUnits="userSpaceOnUse" x="124" y="403" width="106" height="106"><path d="M164.621 495.976c22.203 6.713 45.644-5.844 52.358-28.048 6.713-22.203-5.845-45.644-28.048-52.357-22.203-6.713-45.645 5.844-52.358 28.047-6.713 22.204 5.844 45.645 28.048 52.358z" fill="#00C0F3"/></mask><g mask="url(#ad)"><path d="M164.621 495.976c22.203 6.713 45.644-5.844 52.358-28.048 6.713-22.203-5.845-45.644-28.048-52.357-22.203-6.713-45.645 5.844-52.358 28.047-6.713 22.204 5.844 45.645 28.048 52.358z" fill="#00C0F3"/><path d="M164.295 480.242l11.229 3.394c.038.012.09.028.138.008l-4.931 16.309c-1.782.119-3.517-.059-5.182-.562-2.259-.683-4.28-1.918-6.074-3.672l4.701-15.548c.029.043.081.059.119.071z" fill="#FEA95C"/><path d="M175.538 483.641c.034.01.08.024.124.003l-4.958 16.4a12.25 12.25 0 01-3.123-.039l5.2-17.198 2.757.834z" fill="#FF9240"/><path d="M188.255 454.327l-1.022 3.378c-.346 1.146-1.527 1.812-2.624 1.48l-.855-.258c-1.097-.332-1.712-1.541-1.365-2.687l.135-.446-.285-.086c-.347 1.146-1.528 1.812-2.625 1.48l-.855-.258c-1.097-.332-1.711-1.541-1.365-2.687l.36-1.191-.285-.086c-.346 1.146-1.528 1.812-2.625 1.48l-.855-.258c-1.097-.332-1.711-1.541-1.365-2.687l.18-.595-.285-.086c-.346 1.146-1.527 1.812-2.624 1.48l-.855-.258c-1.098-.332-1.712-1.541-1.365-2.687l.346-1.146-1.525-.461-.755 2.5 2.72 5.355 19.307 5.837 2.012-6.652-1.525-.461z" fill="#E3F3FF"/><path d="M186.85 451.359l-.843-.254c-1.152-.349-2.397.322-2.747 1.478l.597-1.974c.35-1.157-.315-2.405-1.467-2.753l-.843-.255a2.222 2.222 0 00-2.747 1.478l.554-1.833c.35-1.157-.316-2.405-1.468-2.753l-.843-.255c-1.152-.348-2.397.322-2.747 1.479l.214-.706c.349-1.156-.316-2.404-1.468-2.752l-.843-.255c-1.152-.349-2.397.322-2.747 1.478l-1.834 6.065c-.349 1.157.316 2.405 1.468 2.753l.843.255c1.152.348 2.397-.322 2.747-1.479l-.171.564c-.349 1.157.316 2.405 1.468 2.753l.843.255c1.152.348 2.397-.322 2.747-1.478l-.341 1.128a2.223 2.223 0 001.468 2.753l.843.255c1.152.348 2.397-.322 2.747-1.479l-.128.423c-.35 1.157.315 2.405 1.467 2.753l.843.255a2.222 2.222 0 002.747-1.479l1.109-3.667a2.213 2.213 0 00-1.468-2.753z" fill="#FDB97E"/><path d="M152.36 443.474l-2.246-.679c-.594-.18-1.282.343-1.53 1.162l-1.111 3.676c-.248.818.036 1.635.63 1.814l2.246.68 2.011-6.653zm53.802 16.267l-2.246-.679-2.012 6.652 2.247.679c.594.18 1.282-.343 1.53-1.161l1.111-3.676c.247-.819-.036-1.635-.63-1.815z" fill="#E3F3FF"/><path d="M200.857 451.784l-1.002-.303-5.531 18.294 1.002.303c2.66.804 5.297-.126 5.887-2.077l3.394-11.226c.586-1.936-1.109-4.192-3.75-4.991z" fill="#3C87D0"/><path d="M197.791 445.412l-1.171-.354c-1.972-.596-4.048.494-4.634 2.433l-6.675 22.077c-.587 1.94.538 3.997 2.509 4.594l1.172.354c1.972.596 4.048-.494 4.634-2.433l6.675-22.078c.582-1.925-.538-3.997-2.51-4.593z" fill="#0268B4"/><path d="M196.612 448.89l-6.675 22.077c-.442 1.462-1.713 2.458-3.113 2.602.345.288.753.519 1.204.655l1.12.339c1.886.57 3.892-.541 4.478-2.48l6.675-22.078c.586-1.939-.468-3.976-2.354-4.546l-1.12-.339a3.437 3.437 0 00-1.365-.121c1.1.9 1.592 2.429 1.15 3.891z" fill="#13326F"/><path d="M153.156 458.236l1.002.303 5.532-18.294-1.003-.303c-2.66-.804-5.297.126-5.887 2.077l-3.394 11.225c-.585 1.937 1.11 4.193 3.75 4.992z" fill="#3C87D0"/><path d="M166.193 435.858l-1.172-.354c-1.971-.596-4.047.494-4.634 2.433l-6.675 22.078c-.586 1.939.538 3.997 2.51 4.593l1.171.354c1.972.596 4.048-.494 4.635-2.433l6.675-22.078c.582-1.925-.538-3.997-2.51-4.593z" fill="#0268B4"/><path d="M165.013 439.336l-6.675 22.077c-.442 1.462-1.712 2.458-3.113 2.602.346.289.753.519 1.204.656l1.12.338c1.886.57 3.892-.541 4.479-2.48l6.675-22.078c.586-1.939-.469-3.975-2.354-4.546l-1.121-.338a3.435 3.435 0 00-1.365-.122c1.1.9 1.592 2.43 1.15 3.891z" fill="#13326F"/><path d="M184.259 456.888l1.109-3.668a2.203 2.203 0 012.085-1.57 2.388 2.388 0 00-.603-.29l-.843-.255c-1.152-.349-2.397.322-2.747 1.478l-1.108 3.667c-.35 1.157.315 2.405 1.467 2.753l.843.255c.225.068.444.103.662.092a2.204 2.204 0 01-.865-2.462zm-4.93-1.953l1.578-5.218a2.206 2.206 0 012.085-1.571 2.398 2.398 0 00-.602-.29l-.843-.255a2.222 2.222 0 00-2.747 1.478l-1.578 5.219a2.213 2.213 0 001.468 2.753l.843.255c.224.068.444.103.662.092a2.207 2.207 0 01-.866-2.463zm-4.716-2.657l1.791-5.924a2.205 2.205 0 012.085-1.571 2.388 2.388 0 00-.603-.29l-.843-.255c-1.152-.348-2.397.322-2.747 1.479l-1.791 5.924c-.349 1.156.316 2.404 1.468 2.752l.843.255c.225.068.444.104.662.093a2.205 2.205 0 01-.865-2.463zm-4.887-2.094l1.833-6.065a2.204 2.204 0 012.085-1.57 2.365 2.365 0 00-.602-.29l-.843-.255c-1.152-.349-2.397.322-2.747 1.478l-1.834 6.065c-.349 1.157.316 2.405 1.468 2.753l.843.255c.225.068.444.103.662.092a2.205 2.205 0 01-.865-2.463z" fill="#FEA95C"/><path d="M168.85 455.615l-.017.057-3.023-5.671a2.21 2.21 0 00-2.979-.901l-.952.513a2.23 2.23 0 00-.904 2.99l6.977 13.085-.41 1.354c.042.013.103.015.145.028l12.223 3.696a.471.471 0 01.136.056l.183-.606a6.789 6.789 0 004.597-4.552l1.449-4.796-17.42-5.267-.005.014z" fill="#FEA95C"/><path d="M174.93 465.935a1.11 1.11 0 01-.734-1.376c.67-2.215-.583-4.564-2.788-5.23a1.112 1.112 0 01-.734-1.377 1.11 1.11 0 011.373-.739c3.372 1.019 5.28 4.598 4.257 7.983a1.112 1.112 0 01-1.374.739z" fill="#FDB97E"/><path d="M180.197 470.389a1.506 1.506 0 01.996 1.874l-3.181 10.519a1.505 1.505 0 01-1.867 1.008l-12.452-3.765a1.504 1.504 0 01-.996-1.874l3.18-10.519a1.505 1.505 0 011.867-1.008l12.453 3.765z" fill="#015A9A"/><path d="M174.594 481.748l3.18-10.519c.24-.793-.18-1.627-.932-1.854l3.419 1.033c.752.228 1.171 1.062.932 1.855l-3.181 10.519c-.239.792-1.051 1.254-1.803 1.027l-3.418-1.034c.752.228 1.563-.235 1.803-1.027z" fill="#13326F"/><path d="M173.706 421.414s-.312 2.037.953 4.397c1.264 2.36 3.132 3.229 3.132 3.229s-2.036-.311-4.397.954c-2.36 1.264-3.229 3.132-3.229 3.132s.311-2.037-.953-4.397c-1.265-2.36-3.132-3.229-3.132-3.229s2.036.311 4.396-.954c2.361-1.264 3.23-3.132 3.23-3.132zm21.423 56.991s-.192 1.254.586 2.707c.779 1.452 1.928 1.987 1.928 1.987s-1.253-.191-2.706.587-1.988 1.928-1.988 1.928.192-1.254-.586-2.706c-.779-1.453-1.928-1.988-1.928-1.988s1.253.191 2.706-.587 1.988-1.928 1.988-1.928z" fill="#fff"/></g><circle cx="294.789" cy="29.782" r="42" fill="#F55460"/><path d="M289.365 43.184c-.158.763-.255 1.535-.492 2.28-1.029 3.24-3.306 5.076-6.489 5.883-2.181.55-4.405.497-6.63.382-.861-.045-1.723-.098-2.567-.302-.563-.133-1.055-.382-1.398-.87v-.887c.308-.612.475-1.295.861-1.872.379.15.783.089 1.17.107 2.11.124 4.22.221 6.313-.187 2.163-.426 4.071-1.33 5.53-3.052.176-.204.405-.381.431-.683l.009.009c.088-.018.097-.08.106-.16l.008-.009c.018-.026.044-.053.062-.08.615-.763.941-1.641 1.081-2.6.282.276.572.55.853.817.044.07.088.133.185.089l-.009.008c.211.47.695.701.976 1.127z" fill="#FD7E83"/><path d="M316.798 12.316c-.211.639-.211 1.322-.352 1.97-.299 1.437-.624 2.866-1.143 4.241-.668-.657-1.337-1.322-2.005-1.979 0-.026-.009-.044-.017-.07.492-1.544.94-3.097 1.178-4.694.193-1.304.431-2.609.237-3.94.211.018.431.018.642.054.967.16 1.187.408 1.363 1.455.018.106-.053.24.097.301v2.662z" fill="#5A5A5A"/><path d="M313.281 16.477c.008.027.008.045.017.071-.026.054-.061.107-.079.16a40.883 40.883 0 01-2.207 5.288 49.799 49.799 0 01-2.295 4.073 49.261 49.261 0 01-5.829 7.586 47.748 47.748 0 01-2.849 2.821c-1.161 1.047-2.374 2.041-3.587 3.026-.458.373-1.038.603-1.372 1.127-.114-.053-.193-.195-.352-.186.018-.107 0-.196-.079-.276-.8-.79-1.538-1.632-2.374-2.378a455.55 455.55 0 01-1.943-2.031c.106-.125.211-.249.317-.364 1.02-1.038 2.048-2.067 3.068-3.097.352-.355.396-.754.123-1.055-.281-.302-.738-.276-1.081.08-.704.7-1.416 1.41-2.102 2.129-.43.443-.905.834-1.275 1.34-1.389-1.402-2.769-2.795-4.158-4.188-.123-.125-.22-.284-.414-.31a19.231 19.231 0 00-1.38-1.571c-.255-.267-.554-.48-.739-.799 1.038-1.668 2.278-3.167 3.544-4.65a50.945 50.945 0 018.238-7.665c.08-.053.203-.089.132-.23.748-.338 1.372-.888 2.058-1.323 2.796-1.81 5.715-3.363 8.854-4.472l.738-.266c.097.115.176.23.282.337 1.451 1.482 2.901 2.973 4.361 4.445l2.383 2.378zM296.39 28.021c1.416 1.597 3.209 2.333 5.293 2.094 3.254-.373 5.724-3.053 5.759-6.513.027-2.032-.826-3.718-2.426-4.977-.458-.364-.941-.701-1.53-.826-.413-.23-.871-.293-1.337-.363-1.969-.284-3.675.31-5.108 1.641-1.68 1.562-2.374 3.514-2.058 5.812a6.135 6.135 0 001.407 3.132z" fill="#EBEBEB"/><path d="M286.085 43.974c-.026.302-.255.479-.431.692-1.459 1.721-3.367 2.626-5.53 3.052-2.093.408-4.203.31-6.313.186-.396-.026-.791.045-1.17-.106.484-1.198 1.029-2.378 1.284-3.656.246-1.206.334-2.422.158-3.646-.246-1.642.466-2.795 1.75-3.674 1.6-1.1 3.403-1.579 5.302-1.774.07-.009.15-.018.22-.018a37.468 37.468 0 012.277 2.307c-.87.08-1.697.293-2.444.763-.589.373-1.038.878-.932 1.624.141 1.047-.027 2.023-.44 2.972-.193.444-.404.887-.571 1.34-.176.47-.062.657.387.86.404.178.826.151 1.248.196.967.106 1.917.08 2.875-.08.871-.142 1.627-.532 2.33-1.038z" fill="#FF8C92"/><path d="M283.632 37.328a37.558 37.558 0 00-2.277-2.307c-.29-.363-.624-.683-.721-1.18-.123-.639.061-1.127.615-1.455 1.179-.7 2.366-1.402 3.544-2.094.193.018.29.187.413.31 1.389 1.394 2.77 2.796 4.159 4.189.29.355.615.674.958.976a361.08 361.08 0 011.943 2.032c-.729 1.286-1.45 2.573-2.18 3.868a.918.918 0 01-.835.47c-.291 0-.572-.044-.862-.07l.009-.01c-.035-.088-.106-.097-.185-.088-.281-.275-.571-.55-.853-.817-1.24-1.286-2.488-2.555-3.728-3.824z" fill="#838383"/><path d="M280.651 25.9c-.474-.48-.975-.932-1.424-1.437-.818-.923-.923-2.023-.334-3.115.598-1.127 1.547-1.952 2.436-2.83 1.609-1.588 3.385-2.91 5.565-3.585 1.477-.461 2.972-.603 4.502-.328-.422.515-1.002.852-1.504 1.269a54.043 54.043 0 00-5.134 4.924c-1.478 1.624-2.823 3.336-4.107 5.102z" fill="#01BCD8"/><path d="M280.651 25.9c1.275-1.774 2.629-3.487 4.107-5.101a54.044 54.044 0 015.134-4.925c.502-.417 1.073-.754 1.504-1.269.923.045 1.794.32 2.664.595.176.053.361.106.545.16.062.142-.061.168-.132.23-3.024 2.254-5.785 4.791-8.238 7.666-1.266 1.482-2.515 2.99-3.544 4.65-.158.017-.228-.116-.307-.204a113.054 113.054 0 01-1.733-1.802z" fill="#0198B3"/><path d="M313.281 16.477c-.8-.798-1.609-1.597-2.401-2.404-1.459-1.482-2.91-2.964-4.361-4.445-.105-.107-.184-.222-.281-.338 2.558-.878 5.161-1.517 7.887-1.508.184 0 .378.027.563.044.202 1.331-.044 2.636-.238 3.94-.229 1.615-.677 3.176-1.169 4.711z" fill="#838383"/><path d="M295.071 40.62c.334-.523.915-.754 1.372-1.127 1.222-.985 2.427-1.97 3.587-3.026a47.42 47.42 0 002.849-2.821 50.065 50.065 0 005.83-7.586c.826-1.322 1.609-2.67 2.294-4.073.844-1.712 1.601-3.469 2.207-5.288.018-.053.053-.106.079-.16.669.657 1.337 1.322 2.005 1.979-.352 1.233-.835 2.413-1.345 3.585-1.266 2.91-2.858 5.625-4.651 8.233-.449.595-.932 1.18-1.31 1.828-.044.036-.097.071-.132.116a50.746 50.746 0 01-5.504 5.998 51.466 51.466 0 01-5.285 4.294c-.422-.204-.668-.603-.993-.914-.343-.328-.66-.692-1.003-1.038z" fill="#CDCDCD"/><path d="M297.076 42.572a51.27 51.27 0 0010.788-10.292c.036-.045.088-.08.132-.116.115.861.115 1.722.018 2.591-.167 1.633-.703 3.123-1.539 4.517-.985 1.623-2.312 2.954-3.64 4.285-.941.95-1.978 1.66-3.403 1.5-.721-.737-1.45-1.473-2.171-2.21-.071-.07-.167-.142-.185-.275z" fill="#01BCD8"/><path d="M299.441 45.065c1.425.169 2.462-.55 3.403-1.5 1.328-1.33 2.655-2.661 3.64-4.285.835-1.393 1.363-2.883 1.539-4.516.088-.87.088-1.73-.018-2.59.387-.648.862-1.225 1.31-1.828 1.688 4.693 1.091 8.96-2.295 12.732-.914 1.02-1.793 2.067-2.884 2.901-1.538 1.171-2.804 1.065-4.141-.328-.193-.195-.369-.39-.554-.586z" fill="#0198B3"/><path d="M288.38 42.048c.29.027.572.071.862.071.351 0 .65-.15.835-.47.73-1.286 1.46-2.573 2.181-3.868.844.745 1.582 1.588 2.374 2.377.079.08.096.17.079.276a680.007 680.007 0 00-1.987 3.46c-.51.887-1.46 1.056-2.242.382-.396-.347-.757-.737-1.135-1.1-.263-.418-.747-.648-.967-1.128z" fill="#5A5A5A"/><path d="M283.632 37.328c1.24 1.269 2.488 2.538 3.728 3.806-.132.959-.466 1.846-1.081 2.6-.018.027-.044.053-.062.08l-.009.009c-.07.027-.105.08-.105.16l-.009-.01c-.712.507-1.468.897-2.339 1.039a10.42 10.42 0 01-2.875.08c-.422-.045-.844-.018-1.248-.195-.458-.204-.563-.39-.387-.861.167-.453.378-.896.571-1.34.413-.95.581-1.925.44-2.972-.097-.746.343-1.251.932-1.624.747-.48 1.574-.692 2.444-.772z" fill="#FED844"/><path d="M288.213 41.95c.079 0 .15.01.185.09-.097.044-.141-.018-.185-.09z" fill="#5A5A5A"/><path d="M286.103 43.983c0-.08.026-.133.105-.16-.008.08-.026.142-.105.16zm.114-.169c.018-.026.044-.053.062-.08-.018.027-.044.054-.062.08z" fill="#FE626B"/><path d="M296.39 28.02c-.756-.904-1.24-1.942-1.407-3.122-.316-2.299.378-4.25 2.058-5.812 1.433-1.331 3.139-1.925 5.108-1.642.466.063.924.134 1.337.364.053.24.22.417.334.621.8 1.331 1.011 2.795.765 4.304-.29 1.819-1.222 3.274-2.717 4.32-1.301.915-2.752 1.305-4.361 1.1-.352-.061-.721-.3-1.117-.132z" fill="#A0E6F0"/><path d="M296.39 28.02c.396-.168.756.063 1.134.116 1.601.204 3.051-.186 4.361-1.1 1.495-1.047 2.427-2.502 2.717-4.321.247-1.509.036-2.964-.765-4.303-.123-.204-.281-.382-.334-.621.589.124 1.073.46 1.53.825 1.6 1.26 2.453 2.945 2.427 4.977-.035 3.47-2.506 6.14-5.759 6.513-2.102.257-3.895-.488-5.311-2.085z" fill="#5FD8E8"/><path d="M290.314 35.749a8.396 8.396 0 01-.958-.976c.369-.497.844-.896 1.275-1.34.695-.719 1.398-1.42 2.101-2.13.352-.346.809-.372 1.082-.08.272.293.229.693-.123 1.056-1.02 1.039-2.049 2.068-3.069 3.097-.097.124-.193.257-.308.373z" fill="#CDCDCD"/><path d="M316.347 43.782s.313 2.186 2.343 4.216c2.03 2.03 4.216 2.343 4.216 2.343s-2.186.312-4.216 2.342c-2.03 2.03-2.343 4.216-2.343 4.216s-.312-2.186-2.342-4.216c-2.03-2.03-4.216-2.342-4.216-2.342s2.186-.313 4.216-2.343c2.03-2.03 2.342-4.216 2.342-4.216zm-51.256-28s.205 1.434 1.537 2.766c1.332 1.332 2.766 1.536 2.766 1.536s-1.434.205-2.766 1.537c-1.332 1.332-1.537 2.766-1.537 2.766s-.205-1.434-1.536-2.766c-1.332-1.332-2.766-1.537-2.766-1.537s1.434-.204 2.766-1.536c1.331-1.332 1.536-2.766 1.536-2.766z" fill="#fff"/><mask id="ae" maskUnits="userSpaceOnUse" x="207" y="337" width="105" height="105"><circle cx="259.066" cy="389.32" r="42" transform="rotate(15.97 259.066 389.32)" fill="#8E40B7"/></mask><g mask="url(#ae)"><circle cx="259.066" cy="389.32" r="42" transform="rotate(15.97 259.066 389.32)" fill="#8E40B7"/><path d="M262.813 421.374l-23.74-6.794a4.04 4.04 0 01-2.88-3.434l-1.237-10.272 38.602 11.046-6.484 8.063a4.04 4.04 0 01-4.261 1.391z" fill="#0CAFE8"/><path d="M268.345 410.429l-6.484 8.063c-.993 1.282-2.717 1.832-4.261 1.39l4.826 1.381a4.041 4.041 0 004.261-1.39l6.483-8.064-4.825-1.38zm-30.212 21.267l17.305 4.952 5.856-15.708-19.301-5.524-3.86 16.28z" fill="#0B90D3"/><path d="M253.258 436.024l2.11.291 6.166-15.307-2.895-.828-5.381 15.844z" fill="#007BC6"/><path d="M241.418 419.428l18.722 5.357 1.394-3.777-19.301-5.523-.815 3.943z" fill="#007BC6"/><path d="M244.561 419.951c-.807-.231-1.461-.564-1.936-1.012a4.167 4.167 0 01-1.065-1.657l-1.273 2.049c.019.297.115.616.294.937.153.335.395.654.686.946.286.31.64.599 1.068.846a5.55 5.55 0 001.445.622c.731.209 1.418.28 2.104.207a4.975 4.975 0 001.83-.579 4.56 4.56 0 001.424-1.195c.39-.491.676-1.054.863-1.708.198-.692.254-1.321.185-1.882a4.28 4.28 0 00-.45-1.481 4.028 4.028 0 00-.846-1.116 4.864 4.864 0 00-1.024-.709l3.49-2.454.567-1.981-7.48-2.14-.781 2.73 4.115 1.178-3.57 2.515-.133 2.063a3.87 3.87 0 01.701-.049c.291 0 .61.049.956.148.673.193 1.161.52 1.472.962.285.457.376.94.222 1.479-.171.596-.52 1.016-1.042 1.241-.522.225-1.129.238-1.822.04zm13.974-8.566c-.769-.22-1.491-.239-2.181-.083a4.35 4.35 0 00-1.901.974c-.599.495-1.122 1.157-1.586 1.981-.484.818-.866 1.79-1.186 2.906-.319 1.115-.503 2.123-.545 3.068-.041.945.046 1.802.274 2.533.228.731.59 1.355 1.106 1.877.497.517 1.145.868 1.953 1.1.75.214 1.467.253 2.157.097.689-.157 1.327-.494 1.907-.994.579-.5 1.102-1.162 1.566-1.986.465-.824.861-1.771 1.18-2.886.325-1.135.501-2.187.529-3.157.022-.95-.065-1.807-.312-2.544-.247-.736-.615-1.341-1.118-1.838a4.417 4.417 0 00-1.843-1.048zm-.781 2.731c.654.187 1.057.739 1.26 1.629.198.91.096 2.066-.306 3.47-.424 1.481-.974 2.53-1.606 3.139-.632.61-1.256.827-1.871.651a1.63 1.63 0 01-.794-.498c-.225-.231-.398-.572-.485-.992-.113-.407-.154-.918-.11-1.508.045-.591.179-1.28.4-2.049.22-.77.47-1.426.75-1.97.275-.524.561-.942.877-1.247.297-.31.624-.508.943-.604.319-.096.634-.109.942-.021z" fill="#9DEEFF"/></g><path d="M276.903 369.549c-.842 1.847-2.126 4.508-5.187 6.45 1.589-8.106-1.412-19.51-6.856-24.2-4.471 8.326-16.786 13.05-21.533 23.072-4.747 10.021-.354 22.032 9.695 26.683 10.022 4.747 22.033.354 26.684-9.695 3.436-7.265 1.883-17.524-2.803-22.31z" fill="#FFDE39"/><path d="M251.355 398.258c-4.575-4.441-4.669-11.777-.199-16.449 2.179-2.508 4.994-6.505 6.029-9.028 2.936 1.049 7.154 4.553 10.295 8.897 3.142 4.345 4.67 11.777.2 16.449-4.345 4.604-11.776 4.669-16.325.131z" fill="#FEC632"/><path d="M263.214 396.223c-1.201 3.101-4.993 4.313-8.04 2.919-3.046-1.394-4.575-5.172-2.919-8.039 2.511-4.398 9.323-5.58 9.323-5.58s3.071 7.143 1.636 10.7z" fill="#F9A74E"/><path d="M273.765 411.98l-38.601-11.047 1.657-5.79a4.028 4.028 0 014.965-2.756l30.881 8.838a4.026 4.026 0 012.755 4.965l-1.657 5.79z" fill="#fff"/><path opacity=".2" d="M272.555 401.193l-4.826-1.381a4.028 4.028 0 012.756 4.965l-1.657 5.79 4.825 1.381 1.657-5.791a4.025 4.025 0 00-2.755-4.964z" fill="#382673"/><path d="M261.001 368.046a2.007 2.007 0 101.104-3.86 2.007 2.007 0 00-1.104 3.86z" fill="#F9A74E"/><path d="M276.25 362.009a2.008 2.008 0 101.105-3.862 2.008 2.008 0 00-1.105 3.862z" fill="#FEC632"/><path d="M240.056 359.956s-.259 1.883.94 4.044c1.199 2.161 2.934 2.937 2.934 2.937s-1.883-.259-4.044.94c-2.16 1.199-2.936 2.934-2.936 2.934s.259-1.883-.94-4.044c-1.199-2.16-2.935-2.937-2.935-2.937s1.883.26 4.044-.939c2.161-1.2 2.937-2.935 2.937-2.935zm26.043 41.778s-.192 1.393.696 2.992c.887 1.599 2.171 2.173 2.171 2.173s-1.393-.191-2.992.696-2.174 2.171-2.174 2.171.192-1.393-.695-2.992-2.171-2.173-2.171-2.173 1.393.192 2.992-.696c1.599-.887 2.173-2.171 2.173-2.171z" fill="#fff"/><path d="M228.577 376.862s-4.066 14.813 4.984 32.866" stroke="#49B125" stroke-width="1.6" stroke-miterlimit="10" stroke-linecap="round" stroke-linejoin="round"/><path d="M234.945 396.757c-.041.085 1.549 2.854.979 4.885-.611 2.117-3.558 2.78-3.643 2.739-.041.085-2.186-3.269-1.323-5.472.907-2.078 4.072-2.111 3.987-2.152zm-3.671 8.183s-2.298 2.134-4.548.934c-2.292-1.327-3.056-5.792-3.056-5.792s2.599-1.673 4.639-.26c1.956 1.373 2.881 5.077 2.965 5.118zm2.418-15.091c-.041.085 1.003 3.112-.032 5.022-1.036 1.91-4.116 1.984-4.116 1.984-.041.085-1.514-3.571-.185-5.653 1.246-1.912 4.292-1.268 4.333-1.353zm-5.283 7.398s-2.684 1.632-4.6-.037c-2.002-1.709-1.839-6.353-1.839-6.353s2.943-1.086 4.607.67c1.538 1.798 1.747 5.679 1.832 5.72zm5.378-14.489c-.041.085.287 3.289-1.046 4.949-1.375 1.744-4.461 1.185-4.42 1.101-.041.084-.716-3.918.955-5.623 1.587-1.536 4.47-.342 4.511-.427zm-3.357-10.347s1.592 2.98 1.027 5.434c-.65 2.412-3.417 4.213-3.417 4.213s-2.306-2.592-1.619-5.511c.646-2.835 4.009-4.136 4.009-4.136zm-3.331 16.536s-2.943 1.086-4.483-.924c-1.584-2.136-.533-6.663-.533-6.663s3.075-.496 4.363 1.601c1.162 2.14.653 5.986.653 5.986z" fill="#36CC29"/><path d="M291.902 394.975s-4.386 14.722-21.617 25.254" stroke="#49B125" stroke-width="1.6" stroke-miterlimit="10" stroke-linecap="round" stroke-linejoin="round"/><path d="M283.688 417.266c.094.01-3.01 3.386-5.658 3.299-2.553-.078-3.366-3.199-3.366-3.199.094.01 2.839-2.644 5.224-2.774 2.48-.12 3.894 2.684 3.8 2.674zm-9.582-.907s-2.15-2.122-1.643-4.251c.591-2.026 3.415-3.628 3.415-3.628s2.575 1.692 2.236 4.029c-.433 2.326-4.018 3.944-4.008 3.85zm15.988-5.918c.094.01-2.308 3.933-4.921 4.419-2.509.402-3.913-2.497-3.923-2.403.094.01 2.23-3.182 4.571-3.791 2.35-.703 4.283 1.681 4.273 1.775zm-9.6 1.083s-2.575-1.692-2.443-3.861c.132-2.168 2.62-4.185 2.63-4.279 0 0 2.914 1.159 2.96 3.441.037 2.375-3.147 4.699-3.147 4.699zm14.435-9.211c.094.01-1.503 4.397-3.977 5.371-2.37.891-4.293-1.587-4.293-1.587.094.01 1.603-3.533 3.721-4.734 2.212-1.192 4.559.856 4.549.95zm-2.152-12.085s2.072 2.873 1.205 5.724c-.962 2.841-4.29 3.821-4.29 3.821s-1.395-2.992-.67-5.383c.818-2.382 3.746-4.068 3.755-4.162zm-7.082 15.104s-2.915-1.159-3.168-3.272c-.253-2.114 1.73-4.753 1.73-4.753s3.078.511 3.593 2.842c.609 2.341-2.165 5.277-2.155 5.183z" fill="#36CC29"/><defs><linearGradient id="apaint0_linear" x1="215.515" y1="67.915" x2="233.599" y2="149.945" gradientUnits="userSpaceOnUse"><stop stop-color="#3CD4F4"/><stop offset="1" stop-color="#1E80D3"/></linearGradient><filter id="afilter0_d" x="185.256" y="75.674" width="77.25" height="62.759" filterUnits="userSpaceOnUse" color-interpolation-filters="sRGB"><feFlood flood-opacity="0" result="BackgroundImageFix"/><feColorMatrix in="SourceAlpha" values="0 0 0 0 0 0 0 0 0 0 0 0 0 0 0 0 0 0 127 0"/><feOffset dy="3"/><feGaussianBlur stdDeviation="1.5"/><feColorMatrix values="0 0 0 0 0 0 0 0 0 0 0 0 0 0 0 0 0 0 0.25 0"/><feBlend in2="BackgroundImageFix" result="effect1_dropShadow"/><feBlend in="SourceGraphic" in2="effect1_dropShadow" result="shape"/></filter></defs></svg>