<?xml version="1.0" encoding="utf-8"?><svg width="77" height="77" fill="none" xmlns="http://www.w3.org/2000/svg" viewBox="0 0 77 77"><mask id="ca" maskUnits="userSpaceOnUse" x="0" y="0" width="77" height="77"><path fill-rule="evenodd" clip-rule="evenodd" d="M38.824 76.028c20.987 0 38-17.013 38-38 0-20.986-17.013-38-38-38-20.986 0-38 17.014-38 38 0 20.987 17.014 38 38 38z" fill="#F19246"/></mask><g mask="url(#ca)"><path fill-rule="evenodd" clip-rule="evenodd" d="M38.824 76.028c20.987 0 38-17.013 38-38 0-20.986-17.013-38-38-38-20.986 0-38 17.014-38 38 0 20.987 17.014 38 38 38z" fill="#3A91F5"/><path fill-rule="evenodd" clip-rule="evenodd" d="M16.743 32.893l43.649-43.648-43.649 43.648z" fill="#00C0F3"/><path d="M16.743 32.893l43.649-43.648" stroke="#8BDEFD" stroke-width="22.532" stroke-linecap="round" stroke-linejoin="round"/><path d="M29.581 61.136l80.108-80.108" stroke="#57CBF5" stroke-width="41.353" stroke-linecap="round" stroke-linejoin="round"/><path d="M63.545 27.936c-1.212-8.853-7.496-12.5-12.974-12.96-4.157-.35-8.093.96-10.858 3.363-2.765-2.402-6.702-3.711-10.858-3.363-5.478.46-11.763 4.107-12.974 12.96-1.011 7.393 2.648 14.914 10.58 21.747 5.613 4.834 11.431 7.688 11.676 7.807a3.603 3.603 0 003.152 0c.245-.12 6.063-2.973 11.675-7.807 7.934-6.833 11.593-14.354 10.581-21.747z" fill="#F55460"/><path d="M63.545 27.936c-1.211-8.853-7.496-12.5-12.974-12.96-3.662-.308-7.152.673-9.821 2.554 2.878 2.04 5.197 5.385 5.885 10.406 1.01 7.393-2.648 14.914-10.581 21.747a57.044 57.044 0 01-4.796 3.689c3.723 2.57 6.706 4.033 6.88 4.118a3.604 3.604 0 003.151 0c.245-.12 6.064-2.973 11.676-7.807 7.933-6.833 11.592-14.354 10.58-21.747z" fill="#D71D2A"/><path d="M32.998 64.567l6.742-6.741 6.741 6.741H32.998z" fill="#D62D2D"/><path stroke="#B3EFFF" stroke-width="1.105" d="M40.404 58.055v17.973"/></g></svg>