<?xml version="1.0" encoding="utf-8"?><svg width="29" height="28" fill="none" xmlns="http://www.w3.org/2000/svg" viewBox="0 0 29 28"><circle cx="14.32" cy="14.05" r="12.858" fill="#FFA800" stroke="#fff" stroke-width="1.716"/><path d="M20.56 11.867a.85.85 0 00.601-1.453 2.694 2.694 0 00-3.806 0 .85.85 0 101.203 1.203.992.992 0 011.4 0c.166.167.385.25.602.25zM6.52 16.837h0a.851.851 0 000 1.203 10.996 10.996 0 007.8 3.226c2.824 0 5.649-1.075 7.799-3.226a.851.851 0 00-1.203-1.203c-3.637 3.637-9.555 3.637-13.192 0h0a.852.852 0 00-1.204 0zM11.143 11.476l.142.142a.851.851 0 000-1.203h0a2.679 2.679 0 00-1.904-.789c-.719 0-1.396.28-1.903.789a.851.851 0 001.203 1.202l-.142-.14m2.604 0l.142.14a.846.846 0 01-1.204 0 .982.982 0 00-.7-.29.985.985 0 00-.7.29l-.142-.14m2.604 0a.646.646 0 01-.92 0 1.182 1.182 0 00-.842-.349c-.318 0-.616.124-.842.348m2.604 0a.651.651 0 000-.92 2.479 2.479 0 00-1.762-.73c-.666 0-1.292.26-1.762.73a.651.651 0 00.92.92" fill="#fff" stroke="#fff" stroke-width=".4"/></svg>