<svg width="313" height="391" viewBox="0 0 313 391" fill="none" xmlns="http://www.w3.org/2000/svg">
<circle cx="81.9338" cy="103.714" r="42" transform="rotate(-12.21 81.9338 103.714)" fill="#6F55DD"/>
<rect x="55.0928" y="93.152" width="48" height="32" rx="3" transform="rotate(-12.21 55.0928 93.152)" fill="#44C0FF"/>
<rect x="57.4705" y="94.6837" width="9" height="5" transform="rotate(-12.21 57.4705 94.6837)" fill="white"/>
<path d="M57.0475 92.729C56.5803 90.5698 57.9519 88.4407 60.1111 87.9735L61.0885 87.762C63.2476 87.2948 65.3767 88.6664 65.844 90.8255L57.0475 92.729Z" fill="#3D309B"/>
<path d="M56.9962 101.948L103.91 91.7967L108.14 111.344C108.491 112.964 107.462 114.56 105.843 114.911L64.7927 123.794C63.1734 124.144 61.5765 123.115 61.2261 121.496L56.9962 101.948Z" fill="white"/>
<circle cx="81.5508" cy="104.309" r="13.5" transform="rotate(-12.21 81.5508 104.309)" fill="#6F54DF"/>
<circle cx="81.5508" cy="104.309" r="10.5" transform="rotate(-12.21 81.5508 104.309)" fill="#3E2F9B"/>
<circle cx="97.2595" cy="88.9936" r="2.21538" transform="rotate(-12.21 97.2595 88.9936)" fill="#3D309B"/>
<path d="M89.4241 100.779C88.3414 97.8052 85.8925 97.0137 83.9615 97.2647C82.4961 97.4548 81.2317 98.2034 80.4544 99.2424C79.3172 98.6176 77.8561 98.4594 76.4434 98.8915C74.5814 99.4613 72.6787 101.194 72.9227 104.35C73.1264 106.985 74.9565 109.315 78.2149 111.086C80.52 112.34 82.748 112.891 82.8418 112.914C83.0321 112.961 83.2278 112.962 83.4145 112.922C83.6012 112.882 83.7788 112.799 83.9329 112.678C84.0088 112.619 85.8093 111.195 87.3901 109.101C89.6248 106.141 90.3282 103.263 89.4241 100.779Z" fill="#F55460"/>
<path d="M89.4241 100.779C88.3415 97.8052 85.8925 97.0137 83.9616 97.2647C82.6705 97.4323 81.536 98.0334 80.7527 98.8846C81.9019 99.3752 82.9556 100.359 83.5696 102.046C84.4736 104.53 83.7704 107.408 81.5357 110.368C81.0769 110.976 80.5999 111.526 80.1517 112.004C81.6332 112.615 82.7755 112.898 82.842 112.914C83.0323 112.961 83.2281 112.962 83.4147 112.922C83.6014 112.882 83.779 112.799 83.9331 112.678C84.009 112.619 85.8096 111.195 87.3903 109.101C89.6249 106.141 90.3282 103.263 89.4241 100.779Z" fill="#D71D2A"/>
<path d="M87.7386 74.8331C87.7386 74.8331 88.6494 77.29 91.5129 79.1347C94.3765 80.9795 96.9901 80.793 96.9901 80.793C96.9901 80.793 94.5332 81.7038 92.6885 84.5674C90.8438 87.4309 91.0302 90.0445 91.0302 90.0445C91.0302 90.0445 90.1194 87.5877 87.2559 85.7429C84.3923 83.8982 81.7787 84.0846 81.7787 84.0846C81.7787 84.0846 84.2355 83.1739 86.0803 80.3103C87.925 77.4467 87.7386 74.8331 87.7386 74.8331Z" fill="white"/>
<path d="M76.9255 125.261C76.9255 125.261 77.4578 126.697 79.1314 127.775C80.8051 128.853 82.3326 128.744 82.3326 128.744C82.3326 128.744 80.8967 129.276 79.8185 130.95C78.7403 132.624 78.8493 134.151 78.8493 134.151C78.8493 134.151 78.317 132.715 76.6434 131.637C74.9697 130.559 73.4422 130.668 73.4422 130.668C73.4422 130.668 74.8781 130.136 75.9563 128.462C77.0345 126.788 76.9255 125.261 76.9255 125.261Z" fill="white"/>
<mask id="mask0" mask-type="alpha" maskUnits="userSpaceOnUse" x="191" y="63" width="101" height="101">
<path fill-rule="evenodd" clip-rule="evenodd" d="M250.159 154.267C272.811 149.273 287.126 126.862 282.132 104.21C277.138 81.558 254.727 67.2432 232.075 72.237C209.423 77.2308 195.108 99.6422 200.102 122.294C205.096 144.946 227.507 159.261 250.159 154.267Z" fill="#F19246"/>
</mask>
<g mask="url(#mask0)">
<path fill-rule="evenodd" clip-rule="evenodd" d="M250.159 154.267C272.811 149.273 287.126 126.862 282.132 104.21C277.138 81.558 254.727 67.2432 232.075 72.237C209.423 77.2308 195.108 99.6422 200.102 122.294C205.096 144.946 227.507 159.261 250.159 154.267Z" fill="url(#paint0_linear)"/>
<g filter="url(#filter0_d)">
<path d="M254.187 91.0781C254.081 90.6003 253.979 90.1353 253.879 89.6833C253.593 88.2025 254.539 86.7753 256.015 86.4634C257.491 86.1516 258.939 87.0647 259.289 88.5313L263.641 108.21L265.278 105.249C266.384 103.258 268.89 102.516 270.902 103.59L271.855 104.043L267.411 121.07C266.621 123.696 264.462 125.702 261.787 126.292L253.013 128.226C250.713 128.733 248.336 127.727 246.538 126.024C244.421 124.019 243.1 116.055 242.185 111.906C241.545 109.002 248.869 106.05 246.164 106.443L242.631 90.4161C242.304 88.9309 243.251 87.4491 244.737 87.1215L244.75 87.1187C246.236 86.791 247.718 87.7372 248.046 89.2224L247.559 87.014C247.231 85.5288 248.178 84.0471 249.664 83.7195L249.729 83.7052C251.215 83.3776 252.695 84.3109 253.025 85.809L253.882 89.6962C253.885 89.7092 253.888 89.7221 253.888 89.7221L254.187 91.0781Z" fill="#FDD7BD"/>
<path d="M238.585 97.3772C238.47 95.9949 239.387 94.7505 240.742 94.4517L240.807 94.4374C242.291 94.1102 243.772 95.0561 244.099 96.5406L246.282 106.441C246.137 106.46 245.995 106.491 245.866 106.52C244.291 106.867 242.694 107.909 241.273 109.508C241.257 109.498 241.245 109.501 241.229 109.491L241.239 109.475C240.206 104.79 239.224 100.336 238.652 97.7415C238.611 97.6153 238.598 97.4962 238.585 97.3772Z" fill="#FDD7BD"/>
<path d="M237.569 97.6012C237.582 97.7202 237.595 97.8392 237.62 97.9554C238.182 100.566 239.161 105.006 240.207 109.689L240.197 109.705C238.214 108.816 236.368 108.546 234.767 108.899C234.638 108.927 234.509 108.956 234.383 108.997L232.214 99.1607C231.887 97.6762 232.833 96.1953 234.318 95.8681L234.382 95.8538C235.738 95.555 237.093 96.2985 237.569 97.6012Z" fill="#FDD7BD"/>
<path d="M225.47 94.2312C225.143 92.7467 226.088 91.2658 227.573 90.9385C229.057 90.6113 230.538 91.5572 230.866 93.0417L234.383 108.997C231.751 109.766 239.977 109.783 240.709 113.102C241.715 117.666 243.2 124.677 242.286 126.976C241.371 129.276 239.651 131.171 237.353 131.678L228.588 133.61C225.903 134.202 223.119 133.3 221.297 131.238L210.115 117.663L210.789 116.851C212.161 115.033 214.744 114.653 216.583 115.994L219.311 117.991L214.987 98.3155C214.688 96.8383 215.617 95.4018 217.085 95.0644C218.554 94.7271 220.013 95.6371 220.374 97.0873L219.52 93.2147C219.193 91.7302 220.139 90.2493 221.623 89.922L221.688 89.9078C223.172 89.5805 224.653 90.5264 224.98 92.0109L225.47 94.2312Z" fill="#FDD7BD"/>
<path d="M255.827 106.924C254.27 102.392 250.089 101.498 246.696 102.172C244.121 102.683 241.834 104.045 240.364 105.795C238.451 104.975 235.922 104.936 233.412 105.821C230.103 106.988 226.595 109.994 226.67 114.933C226.732 119.057 229.664 122.465 235.146 124.787C239.025 126.43 242.847 126.978 243.008 127.001C243.334 127.047 243.675 127.021 244.005 126.93C244.335 126.84 244.654 126.684 244.936 126.471C245.075 126.366 248.371 123.863 251.358 120.334C255.582 115.346 257.127 110.708 255.827 106.924Z" fill="#F55460"/>
<path d="M255.943 106.969C254.396 102.426 250.101 101.614 246.597 102.368C244.254 102.872 242.134 104.038 240.612 105.539C242.612 106.11 244.373 107.486 245.251 110.062C246.542 113.856 244.892 118.573 240.478 123.702C239.572 124.755 238.641 125.72 237.771 126.564C240.352 127.266 242.367 127.508 242.484 127.522C242.82 127.561 243.172 127.527 243.513 127.429C243.854 127.33 244.184 127.166 244.477 126.945C244.621 126.836 248.049 124.237 251.171 120.608C255.584 115.48 257.234 110.763 255.943 106.969Z" fill="#D71D2A"/>
</g>
<path fill-rule="evenodd" clip-rule="evenodd" d="M250.159 154.267C272.811 149.273 287.126 126.862 282.132 104.21C277.138 81.558 254.727 67.2432 232.075 72.237C209.423 77.2308 195.108 99.6422 200.102 122.294C205.096 144.946 227.507 159.261 250.159 154.267Z" fill="#00C0F3"/>
</g>
<path d="M258.643 133.781C257.337 133.652 255.546 132.329 255.838 129.418C256.13 126.507 258.131 125.55 259.438 125.679C259.713 125.704 260.128 125.858 260.613 126.107C260.315 125.646 260.105 125.25 260.048 124.993C259.898 124.314 260.027 123.39 260.614 122.598L259.744 116.533C258.421 107.413 252.417 100.357 244.581 97.3608C242.326 96.496 239.976 95.9834 237.617 95.8164C235.547 96.9599 233.631 98.4129 231.948 100.146C226.1 106.171 223.608 115.1 226.241 123.919L228.78 132.426C231.258 140.714 242.951 144.258 248.037 143.137C251.365 142.403 256.438 138.659 259.177 133.749C258.961 133.772 258.78 133.787 258.643 133.781Z" fill="#015A9A"/>
<path d="M244.564 97.34C242.778 96.6539 240.945 96.1991 239.098 95.9562C239.138 95.9718 239.178 95.9875 239.204 95.994C247.044 99.0018 253.059 106.056 254.379 115.163L255.655 123.961C256.891 132.523 247.772 140.656 242.687 141.777C241.632 142.009 240.286 142.036 238.8 141.873C242.265 143.207 245.796 143.619 248.046 143.123C251.374 142.389 256.447 138.645 259.186 133.735C258.972 133.769 258.78 133.787 258.641 133.769C257.322 133.642 255.543 132.317 255.835 129.406C256.128 126.495 258.129 125.539 259.435 125.668C259.711 125.693 260.126 125.847 260.611 126.096C260.312 125.634 260.102 125.238 260.046 124.981C259.896 124.302 260.024 123.378 260.611 122.586L259.741 116.521C258.419 107.402 252.403 100.348 244.564 97.34Z" fill="#13326F"/>
<path d="M241.438 117.329C242.282 121.155 239.862 124.952 236.019 125.8C232.187 126.644 228.386 124.231 227.54 120.393C226.696 116.567 229.116 112.77 232.959 111.922C236.803 111.075 240.592 113.491 241.438 117.329Z" fill="#B9E746"/>
<path d="M257.047 113.888C257.89 117.714 255.471 121.511 251.628 122.359C247.796 123.203 243.995 120.79 243.149 116.952C242.305 113.126 244.725 109.329 248.568 108.481C252.4 107.637 256.201 110.05 257.047 113.888Z" fill="#B9E746"/>
<path d="M235.431 111.819C236.267 112.715 236.87 113.833 237.154 115.12C237.998 118.946 235.578 122.744 231.735 123.591C230.903 123.774 230.072 123.798 229.277 123.703C230.936 125.485 233.467 126.375 236.021 125.811C239.853 124.967 242.287 121.179 241.441 117.341C240.778 114.334 238.314 112.19 235.431 111.819Z" fill="#A0C83D"/>
<path d="M251.028 108.381C251.865 109.276 252.468 110.395 252.751 111.682C253.595 115.508 251.176 119.305 247.332 120.152C246.5 120.336 245.67 120.359 244.875 120.265C246.533 122.046 249.064 122.936 251.618 122.373C255.45 121.528 257.884 117.74 257.038 113.902C256.387 110.893 253.912 108.751 251.028 108.381Z" fill="#A0C83D"/>
<path d="M252.177 127.638C252.889 130.867 250.23 134.19 246.246 135.068C242.261 135.946 238.449 134.038 237.74 130.821C237.031 127.603 240.048 125.907 244.032 125.029C248.017 124.15 251.465 124.409 252.177 127.638Z" fill="#FFCDBE"/>
<path d="M259.738 116.509L260.609 122.575C261.09 121.917 261.893 121.322 263.104 121.019C265.159 116.517 265.853 111.358 264.797 106.18C263.692 101.503 261.28 97.4707 258.035 94.3457C251.168 91.737 243.713 92.4235 237.6 95.7956C239.959 95.9626 242.309 96.4753 244.564 97.3401C252.403 100.348 258.419 107.402 259.738 116.509Z" fill="#FFF2B2"/>
<path d="M235.9 88.0847C222.986 90.9316 214.642 103.691 217.29 116.653C218.874 123.334 223.12 128.717 228.641 131.966L226.226 123.909C223.591 115.08 226.072 106.153 231.922 100.139C238.573 93.2988 248.838 90.8642 258.026 94.3599C252.265 88.7958 243.998 86.2995 235.9 88.0847Z" fill="#FFF2B2"/>
<path d="M235.9 88.0848C242.404 86.651 249.001 87.9818 254.345 91.4293C250.363 85.019 242.632 81.4967 234.827 83.2172C227.023 84.9378 221.489 91.3846 220.572 98.8748C223.934 93.5571 229.326 89.5341 235.9 88.0848Z" fill="#FFEA84"/>
<path d="M247.855 88.4676C250.047 89.1009 252.269 90.0956 254.345 91.4293C251.337 86.5955 246.196 83.3978 240.511 82.8597C243.383 84.0672 245.919 85.9864 247.855 88.4676Z" fill="#FFE046"/>
<path d="M258.035 94.3457C256.249 93.6596 254.416 93.2048 252.581 92.9593C252.609 92.9775 252.647 92.9815 252.673 92.988C255.915 96.1013 258.33 100.145 259.435 104.822C260.123 108.167 260.061 111.506 259.392 114.659C259.676 115.946 259.707 116.369 260.609 122.575C261.09 121.917 261.893 121.322 263.104 121.019C265.159 116.517 265.853 111.358 264.797 106.18C263.747 101.749 261.45 97.6295 258.035 94.3457Z" fill="#FFE565"/>
<path d="M244.843 87.7941C244.858 87.8032 244.869 87.8006 244.884 87.8097C246.72 88.5583 246.17 91.3051 244.188 91.2881C237.604 91.2427 231.192 93.8711 226.546 98.6619C220.698 104.687 218.206 113.617 220.85 122.432L221.98 126.22C223.842 128.533 226.113 130.474 228.641 131.966L226.226 123.909C223.591 115.08 226.072 106.153 231.922 100.139C238.573 93.2989 248.838 90.8642 258.026 94.3599C254.447 90.8914 249.832 88.5716 244.843 87.7941Z" fill="#FFE565"/>
<path d="M234.073 116.916C233.569 117.027 233.08 116.706 232.972 116.214L232.636 114.693C232.525 114.19 232.848 113.702 233.34 113.593C233.832 113.485 234.333 113.804 234.441 114.295L234.776 115.816C234.887 116.319 234.565 116.808 234.073 116.916ZM236.847 116.906L237.688 115.592C237.962 115.163 237.836 114.59 237.407 114.316C236.978 114.043 236.404 114.169 236.13 114.598L235.289 115.912C235.015 116.34 235.141 116.914 235.57 117.187C235.784 117.324 236.039 117.366 236.274 117.314C236.508 117.263 236.71 117.12 236.847 116.906ZM239.774 117.696C239.663 117.193 239.165 116.885 238.673 116.994L237.15 117.33C236.646 117.441 236.338 117.938 236.446 118.43C236.557 118.933 237.055 119.24 237.547 119.132L239.07 118.796C239.563 118.687 239.885 118.199 239.774 117.696ZM239.048 121.758C239.322 121.329 239.195 120.756 238.766 120.482L237.451 119.644C237.022 119.37 236.448 119.497 236.174 119.925C235.899 120.354 236.026 120.927 236.455 121.201L237.77 122.039C237.985 122.176 238.24 122.218 238.474 122.166C238.708 122.115 238.91 121.972 239.048 121.758ZM236.365 123.024L236.03 121.503C235.919 121 235.421 120.692 234.929 120.801C234.437 120.909 234.117 121.409 234.225 121.901L234.561 123.422C234.672 123.925 235.169 124.232 235.662 124.124C236.154 124.015 236.474 123.515 236.365 123.024ZM232.872 123.119L233.713 121.805C233.987 121.377 233.86 120.803 233.431 120.53C233.003 120.256 232.428 120.383 232.154 120.811L231.313 122.125C231.039 122.554 231.166 123.127 231.595 123.401C231.809 123.538 232.064 123.58 232.298 123.528C232.521 123.479 232.735 123.334 232.872 123.119ZM232.555 119.287C232.445 118.784 231.947 118.477 231.455 118.585L229.931 118.921C229.427 119.032 229.119 119.53 229.227 120.021C229.338 120.524 229.836 120.832 230.328 120.723L231.852 120.387C232.344 120.279 232.666 119.79 232.555 119.287ZM232.816 117.794C233.09 117.366 232.964 116.792 232.535 116.519L231.22 115.68C230.791 115.407 230.216 115.533 229.942 115.962C229.668 116.39 229.794 116.964 230.223 117.237L231.539 118.076C231.753 118.213 232.008 118.255 232.243 118.203C232.474 118.14 232.679 118.009 232.816 117.794Z" fill="#E9F8C5"/>
<path d="M235.661 124.124C235.158 124.235 234.669 123.913 234.561 123.422L234.344 122.439C234.896 122.047 235.384 121.584 235.798 121.063C235.911 121.186 236.005 121.336 236.044 121.512L236.379 123.033C236.474 123.515 236.154 124.015 235.661 124.124ZM232.736 123.284C232.474 123.379 232.198 123.464 231.92 123.538C232.035 123.561 232.169 123.556 232.287 123.53C232.451 123.494 232.616 123.409 232.736 123.284ZM236.455 121.201L237.77 122.039C237.985 122.176 238.24 122.218 238.474 122.166C238.708 122.115 238.922 121.969 239.059 121.755C239.333 121.327 239.207 120.753 238.778 120.48L237.463 119.641C237.234 119.495 236.955 119.458 236.714 119.536C236.531 119.932 236.322 120.322 236.068 120.672C236.114 120.883 236.255 121.073 236.455 121.201ZM239.774 117.696C239.663 117.193 239.165 116.885 238.673 116.994L237.302 117.296C237.25 117.897 237.111 118.492 236.915 119.05C237.11 119.154 237.327 119.192 237.561 119.141L239.085 118.805C239.562 118.687 239.885 118.199 239.774 117.696ZM237.151 115.109C237.231 115.471 237.285 115.827 237.302 116.18L237.676 115.594C237.95 115.166 237.824 114.592 237.395 114.319C237.238 114.218 237.056 114.173 236.872 114.176C236.986 114.47 237.082 114.793 237.151 115.109Z" fill="#CBED74"/>
<path d="M249.67 113.478C249.166 113.589 248.677 113.267 248.569 112.776L248.233 111.254C248.123 110.751 248.445 110.263 248.937 110.155C249.429 110.046 249.93 110.365 250.038 110.857L250.373 112.378C250.484 112.881 250.174 113.367 249.67 113.478ZM248.425 114.353C248.699 113.925 248.573 113.351 248.144 113.078L246.829 112.239C246.4 111.966 245.825 112.092 245.551 112.521C245.277 112.949 245.403 113.523 245.832 113.796L247.148 114.635C247.362 114.772 247.617 114.814 247.852 114.762C248.072 114.701 248.288 114.567 248.425 114.353ZM248.153 115.849C248.042 115.346 247.544 115.038 247.052 115.147L245.528 115.483C245.024 115.594 244.716 116.091 244.825 116.583C244.936 117.086 245.433 117.393 245.926 117.285L247.449 116.949C247.941 116.84 248.264 116.352 248.153 115.849ZM248.469 119.681L249.31 118.367C249.584 117.938 249.458 117.365 249.029 117.091C248.6 116.818 248.026 116.944 247.751 117.373L246.911 118.687C246.636 119.115 246.763 119.689 247.192 119.962C247.406 120.099 247.661 120.141 247.896 120.089C248.118 120.04 248.332 119.895 248.469 119.681ZM251.962 119.585L251.627 118.064C251.516 117.561 251.018 117.254 250.526 117.362C250.034 117.471 249.714 117.971 249.822 118.462L250.158 119.983C250.269 120.486 250.767 120.794 251.259 120.685C251.751 120.577 252.071 120.077 251.962 119.585ZM254.645 118.319C254.919 117.891 254.792 117.317 254.364 117.044L253.048 116.205C252.619 115.932 252.045 116.058 251.771 116.487C251.497 116.915 251.623 117.489 252.052 117.762L253.367 118.601C253.582 118.738 253.837 118.78 254.071 118.728C254.306 118.676 254.508 118.534 254.645 118.319ZM255.371 114.257C255.26 113.754 254.762 113.447 254.27 113.555L252.747 113.891C252.243 114.002 251.935 114.5 252.043 114.991C252.154 115.494 252.652 115.802 253.144 115.693L254.668 115.357C255.16 115.249 255.482 114.761 255.371 114.257ZM252.445 113.467L253.285 112.153C253.559 111.724 253.433 111.151 253.004 110.878C252.575 110.604 252.001 110.731 251.727 111.159L250.886 112.473C250.612 112.902 250.738 113.475 251.167 113.749C251.382 113.885 251.637 113.927 251.871 113.876C252.105 113.824 252.307 113.681 252.445 113.467Z" fill="#E9F8C5"/>
<path d="M251.259 120.685C250.755 120.796 250.266 120.475 250.158 119.983L249.941 119C250.494 118.609 250.981 118.145 251.395 117.625C251.508 117.747 251.603 117.898 251.641 118.073L251.977 119.595C252.071 120.077 251.763 120.574 251.259 120.685ZM248.333 119.846C248.072 119.94 247.796 120.026 247.517 120.099C247.633 120.123 247.767 120.118 247.884 120.092C248.06 120.053 248.213 119.97 248.333 119.846ZM255.371 114.257C255.26 113.754 254.763 113.447 254.27 113.555L252.899 113.858C252.847 114.458 252.708 115.053 252.512 115.612C252.707 115.716 252.924 115.754 253.159 115.702L254.682 115.366C255.16 115.249 255.482 114.761 255.371 114.257ZM252.761 111.667C252.84 112.03 252.894 112.386 252.911 112.739L253.285 112.153C253.56 111.724 253.433 111.151 253.004 110.878C252.847 110.777 252.665 110.732 252.481 110.735C252.595 111.029 252.691 111.352 252.761 111.667ZM252.052 117.762L253.367 118.601C253.582 118.738 253.837 118.78 254.071 118.728C254.306 118.676 254.519 118.531 254.656 118.317C254.931 117.888 254.804 117.315 254.375 117.041L253.06 116.202C252.831 116.057 252.553 116.02 252.312 116.097C252.129 116.494 251.92 116.883 251.665 117.234C251.723 117.442 251.852 117.634 252.052 117.762Z" fill="#CBED74"/>
<path d="M248.387 130.289L241.907 131.718C241.403 131.829 240.914 131.507 240.806 131.016C240.698 130.524 241.017 130.025 241.51 129.916L247.99 128.487C248.494 128.376 248.983 128.698 249.091 129.189C249.199 129.681 248.891 130.178 248.387 130.289Z" fill="#FAA68E"/>
<path d="M272.987 130.619C274.118 129.952 275.186 127.999 273.697 125.481C272.22 122.96 269.99 122.936 268.859 123.602C268.62 123.741 268.308 124.055 267.972 124.485C268.049 123.94 268.073 123.493 268.017 123.236C267.733 121.949 266.2 120.348 263.341 120.979C260.482 121.609 259.764 123.706 260.048 124.993C260.107 125.262 260.317 125.657 260.613 126.107C260.117 125.861 259.702 125.707 259.438 125.679C258.131 125.55 256.119 126.509 255.838 129.418C255.558 132.326 257.337 133.652 258.643 133.781C258.919 133.806 259.358 133.734 259.889 133.58C259.497 133.973 259.216 134.317 259.113 134.573C258.581 135.782 258.879 137.974 261.559 139.15C264.251 140.323 266.058 139.042 266.59 137.832C266.696 137.588 266.769 137.142 266.782 136.587C267.036 137.071 267.279 137.447 267.48 137.636C268.472 138.509 270.649 138.913 272.598 136.716C274.547 134.52 273.885 132.408 272.894 131.535C272.695 131.358 272.293 131.152 271.772 130.96C272.316 130.865 272.747 130.757 272.987 130.619Z" fill="#FFE046"/>
<path d="M272.987 130.619C274.118 129.952 275.186 127.999 273.697 125.48C272.22 122.96 269.99 122.936 268.859 123.602C268.708 123.697 268.511 123.863 268.304 124.093C268.309 124.116 268.323 124.125 268.338 124.135C269.827 126.653 268.758 128.606 267.627 129.273C267.606 129.289 267.583 129.295 267.562 129.311C267.231 129.483 267.192 129.921 267.477 130.152C267.494 130.173 267.52 130.18 267.537 130.2C268.528 131.074 269.178 133.188 267.241 135.382C265.293 137.578 263.115 137.175 262.123 136.302C262.107 136.281 262.092 136.272 262.075 136.251C261.809 135.991 261.375 136.086 261.255 136.432C261.249 136.458 261.239 136.472 261.233 136.498C260.996 137.041 260.503 137.591 259.792 137.932C260.201 138.394 260.786 138.817 261.562 139.161C264.254 140.335 266.06 139.053 266.592 137.844C266.698 137.6 266.772 137.154 266.785 136.599C267.039 137.083 267.281 137.459 267.483 137.648C268.474 138.521 270.652 138.924 272.601 136.728C274.55 134.531 273.887 132.42 272.896 131.546C272.697 131.369 272.296 131.163 271.774 130.972C272.316 130.865 272.747 130.757 272.987 130.619Z" fill="#EEC707"/>
<path d="M269.073 128.586L267.386 128.958L268.318 127.501C268.592 127.072 268.466 126.499 268.037 126.225C267.608 125.952 267.034 126.078 266.759 126.507L265.827 127.964L265.456 126.279C265.345 125.776 264.847 125.468 264.355 125.577C263.863 125.685 263.543 126.185 263.651 126.677L264.023 128.362L262.564 127.432C262.135 127.158 261.561 127.285 261.287 127.713C261.013 128.142 261.139 128.715 261.568 128.989L263.026 129.919L261.339 130.291C260.835 130.402 260.527 130.899 260.635 131.391C260.746 131.894 261.244 132.201 261.736 132.093L263.424 131.721L262.492 133.178C262.217 133.606 262.344 134.18 262.773 134.453C262.987 134.59 263.242 134.632 263.477 134.58C263.711 134.528 263.925 134.383 264.062 134.169L264.994 132.712L265.365 134.397C265.476 134.9 265.974 135.207 266.466 135.099C266.97 134.988 267.278 134.49 267.17 133.999L266.799 132.314L268.257 133.244C268.471 133.381 268.726 133.423 268.961 133.371C269.195 133.319 269.409 133.174 269.546 132.96C269.82 132.531 269.694 131.958 269.265 131.684L267.806 130.754L269.47 130.388C269.974 130.277 270.282 129.779 270.174 129.288C270.075 128.782 269.577 128.475 269.073 128.586ZM265.209 131.401C265.133 131.282 265.037 131.181 264.909 131.099C264.78 131.017 264.647 130.972 264.508 130.954C264.541 130.824 264.545 130.676 264.514 130.536C264.483 130.395 264.417 130.262 264.333 130.158C264.451 130.083 264.553 129.987 264.635 129.859C264.717 129.73 264.762 129.597 264.78 129.458C264.911 129.491 265.059 129.495 265.199 129.464C265.34 129.433 265.473 129.367 265.577 129.283C265.653 129.401 265.749 129.503 265.877 129.585C266.006 129.667 266.139 129.711 266.278 129.73C266.245 129.859 266.241 130.008 266.272 130.148C266.303 130.288 266.369 130.421 266.453 130.525C266.335 130.6 266.233 130.696 266.151 130.825C266.068 130.954 266.024 131.086 266.005 131.225C265.875 131.192 265.727 131.188 265.586 131.219C265.446 131.25 265.325 131.314 265.209 131.401Z" fill="#EEC707"/>
<path d="M267.474 130.141C267.491 130.161 267.517 130.168 267.534 130.189C267.702 130.336 267.851 130.511 267.985 130.727L269.473 130.399C269.977 130.288 270.285 129.791 270.177 129.299C270.066 128.796 269.568 128.489 269.076 128.597L268.232 128.783C268.043 128.985 267.834 129.153 267.63 129.284C267.609 129.301 267.585 129.306 267.565 129.323C267.228 129.471 267.19 129.909 267.474 130.141Z" fill="#DDB907"/>
<path d="M269.241 131.69L268.14 130.988C268.449 131.607 268.603 132.419 268.371 133.317C268.561 133.398 268.75 133.417 268.937 133.376C269.172 133.324 269.385 133.179 269.522 132.965C269.797 132.536 269.67 131.963 269.241 131.69Z" fill="#DDB907"/>
<path d="M267.186 129.946C267.403 130.929 266.781 131.901 265.797 132.118C264.812 132.335 263.84 131.715 263.623 130.732C263.407 129.749 264.028 128.778 265.013 128.561C265.997 128.344 266.969 128.964 267.186 129.946Z" fill="#E7387F"/>
<path d="M264.471 85.5752C264.471 85.5752 265.271 87.708 267.767 89.3021C270.263 90.8962 272.534 90.7253 272.534 90.7253C272.534 90.7253 270.402 91.5254 268.808 94.0211C267.213 96.5168 267.384 98.7883 267.384 98.7883C267.384 98.7883 266.584 96.6555 264.089 95.0614C261.593 93.4673 259.321 93.6382 259.321 93.6382C259.321 93.6382 261.454 92.8381 263.048 90.3424C264.642 87.8467 264.471 85.5752 264.471 85.5752Z" fill="white"/>
<path d="M215.338 126.103C215.338 126.103 215.818 127.383 217.315 128.339C218.813 129.296 220.175 129.193 220.175 129.193C220.175 129.193 218.896 129.673 217.939 131.17C216.983 132.668 217.086 134.03 217.086 134.03C217.086 134.03 216.606 132.751 215.108 131.795C213.611 130.838 212.248 130.941 212.248 130.941C212.248 130.941 213.528 130.461 214.484 128.963C215.441 127.466 215.338 126.103 215.338 126.103Z" fill="white"/>
<mask id="mask1" mask-type="alpha" maskUnits="userSpaceOnUse" x="133" y="25" width="104" height="105">
<path fill-rule="evenodd" clip-rule="evenodd" d="M173.382 117.997C195.684 124.374 218.933 111.465 225.31 89.1628C231.688 66.8608 218.778 43.6115 196.476 37.2342C174.174 30.8569 150.925 43.7664 144.547 66.0685C138.17 88.3705 151.08 111.62 173.382 117.997Z" fill="#F19246"/>
</mask>
<g mask="url(#mask1)">
<path fill-rule="evenodd" clip-rule="evenodd" d="M173.382 117.997C195.684 124.374 218.933 111.465 225.31 89.1628C231.688 66.8608 218.778 43.6115 196.476 37.2342C174.174 30.8569 150.925 43.7664 144.547 66.0685C138.17 88.3705 151.08 111.62 173.382 117.997Z" fill="#1A64F5"/>
<path d="M187.889 61.387L190.996 62.2753L189.654 66.9689L186.547 66.0807L187.889 61.387Z" fill="#0045F5"/>
<path d="M189.443 61.8311L190.996 62.2752L189.654 66.9688L188.1 66.5247L189.443 61.8311Z" fill="#2246A2"/>
<path d="M168.711 76.0982C167.886 78.9826 167.071 81.8699 166.246 84.7543C165.171 84.3598 164.18 83.8591 163.699 82.7322C163.305 81.8039 163.424 80.8487 163.581 79.9151C163.712 79.1481 163.917 78.3914 164.12 77.6448C164.444 76.433 165.041 75.9622 166.321 75.8717C167.131 75.8097 167.932 75.8973 168.711 76.0982Z" fill="#F0D0AB"/>
<path d="M199.498 84.9019C198.673 87.7863 197.838 90.6678 197.013 93.5522C198.135 93.7859 199.24 93.8845 200.244 93.1823C201.07 92.6031 201.474 91.7292 201.834 90.8538C202.128 90.1334 202.354 89.3825 202.577 88.6417C202.942 87.4415 202.684 86.7264 201.645 85.9727C200.991 85.4919 200.265 85.1431 199.498 84.9019Z" fill="#E9C9A4"/>
<path d="M197.288 92.5902C194.859 101.086 186.002 106.004 177.506 103.575C169.01 101.145 164.092 92.2883 166.521 83.7923C168.858 75.6192 170.37 70.3323 171.47 66.4864C177.102 64.9767 198.254 71.0253 202.237 75.2843C201.137 79.1302 199.718 84.0941 197.288 92.5902Z" fill="#FAE0BD"/>
<path d="M197.288 92.5901C194.859 101.086 186.002 106.004 177.506 103.575C176.52 103.293 175.582 102.924 174.699 102.48C181.429 104.404 190.006 99.8692 192.481 91.2154C194.818 83.0423 196.736 76.3332 197.836 72.4874C199.847 73.441 201.411 74.4011 202.237 75.2842C201.137 79.1301 199.718 84.094 197.288 92.5901Z" fill="#F0D0AB"/>
<path d="M170.509 66.2115L175.591 66.6247L169.682 76.376L168.721 76.1011L170.509 66.2115Z" fill="#AD5A38"/>
<path d="M203.198 75.5592L198.666 73.2231L198.526 84.624L199.488 84.8989L203.198 75.5592Z" fill="#AD5A38"/>
<path d="M178.47 89.2899C178.47 89.2899 178.745 91.4484 180.805 92.0376C182.865 92.6267 184.239 90.9395 184.239 90.9395" stroke="#E25520" stroke-width="2" stroke-linecap="round"/>
<ellipse cx="177.03" cy="81.5974" rx="1.5" ry="2" transform="rotate(15.958 177.03 81.5974)" fill="#484346"/>
<ellipse cx="189.529" cy="85.1715" rx="1.5" ry="2" transform="rotate(15.958 189.529 85.1715)" fill="#484346"/>
<path d="M197.596 47.9551C195.695 47.4116 193.71 47.9533 192.219 49.219C191.177 50.0581 190.378 51.272 189.968 52.7078L189.601 53.9897L200.032 56.9724C203.231 57.8871 206.648 55.7579 207.66 52.2197L208.026 50.9378L197.596 47.9551Z" fill="#D71D2A"/>
<path d="M199.895 46.5326C197.734 45.9145 195.516 46.3897 193.883 47.6145C192.739 48.4245 191.883 49.622 191.472 51.0578L191.106 52.3398L202.968 55.7319C206.606 56.7721 212.049 54.9246 213.349 50.3795L199.895 46.5326Z" fill="#F55460"/>
<path d="M187.752 62.3878L190.858 63.276L189.516 67.9696L186.41 67.0814L187.752 62.3878Z" fill="#0045F5"/>
<path d="M189.305 62.8318L190.858 63.2759L189.516 67.9696L187.963 67.5254L189.305 62.8318Z" fill="#2246A2"/>
<path d="M205.586 78.0476L204.138 83.1086L165.994 72.2011L167.441 67.1401C170.412 56.7492 181.432 50.6137 191.939 53.6183C202.446 56.6228 208.557 67.6568 205.586 78.0476Z" fill="#9EF569"/>
<path d="M201.684 91.7675L198.384 103.309L176.956 105.498L159.925 92.3113L163.225 80.7701L179.7 95.9031L201.684 91.7675Z" fill="#9EF569"/>
<path d="M205.586 78.0476L204.138 83.1086L185.066 77.6549L191.939 53.6183C202.446 56.6228 208.557 67.6568 205.586 78.0476Z" fill="#49B125"/>
<path d="M179.711 95.8639L201.684 91.7675L198.384 103.309L176.956 105.498L179.711 95.8639Z" fill="#49B125"/>
<path d="M190.812 57.5623L164.75 64.526L162.167 73.5608L183.334 83.7138L206.669 86.2863L209.252 77.2515L190.812 57.5623Z" fill="#6FDF47"/>
<path d="M209.252 77.2515L206.669 86.2863L183.334 83.7138L190.812 57.5623L209.252 77.2515Z" fill="#49B125"/>
<path d="M209.252 77.2515L206.669 86.2863L183.334 83.7138L190.812 57.5623L209.252 77.2515Z" fill="#36CC29"/>
<path d="M187.978 60.9978L191.401 61.9767L186.471 79.2186L183.047 78.2398L187.978 60.9978Z" fill="#1A64F5"/>
<path d="M193.232 68.5232L196.655 69.5021L193.697 79.8473L190.274 78.8684L193.232 68.5232Z" fill="#2246A2"/>
<path d="M198.184 77.108L201.607 78.0869L200.621 81.5353L197.197 80.5564L198.184 77.108Z" fill="#2246A2"/>
<path d="M179.539 64.6077L182.963 65.5865L180.004 75.9317L176.581 74.9528L179.539 64.6077Z" fill="#1A64F5"/>
<path d="M170.798 69.277L174.221 70.2559L173.235 73.7043L169.812 72.7254L170.798 69.277Z" fill="#1A64F5"/>
<path d="M189.689 61.4872L191.401 61.9767L186.471 79.2186L184.759 78.7292L189.689 61.4872Z" fill="#2246A2"/>
<path d="M215.448 62.4208C215.448 62.4208 215.257 63.8102 216.142 65.4043C217.027 66.9983 218.308 67.5708 218.308 67.5708C218.308 67.5708 216.918 67.3797 215.324 68.2649C213.73 69.15 213.158 70.4304 213.158 70.4304C213.158 70.4304 213.349 69.0409 212.463 67.4469C211.578 65.8528 210.298 65.2804 210.298 65.2804C210.298 65.2804 211.687 65.4714 213.281 64.5863C214.875 63.7012 215.448 62.4208 215.448 62.4208Z" fill="white"/>
<path d="M154.881 74.2238C154.881 74.2238 154.598 76.2844 155.91 78.6485C157.223 81.0126 159.122 81.8615 159.122 81.8615C159.122 81.8615 157.061 81.5782 154.697 82.8909C152.333 84.2036 151.484 86.1025 151.484 86.1025C151.484 86.1025 151.767 84.0418 150.455 81.6778C149.142 79.3137 147.243 78.4647 147.243 78.4647C147.243 78.4647 149.304 78.748 151.668 77.4354C154.032 76.1227 154.881 74.2238 154.881 74.2238Z" fill="white"/>
</g>
<mask id="mask2" mask-type="alpha" maskUnits="userSpaceOnUse" x="0" y="314" width="105" height="105">
<path fill-rule="evenodd" clip-rule="evenodd" d="M63.7259 406.969C86.0285 400.594 98.9401 377.346 92.5647 355.043C86.1893 332.741 62.9412 319.829 40.6386 326.204C18.336 332.58 5.42437 355.828 11.7998 378.131C18.1751 400.433 41.4233 413.345 63.7259 406.969Z" fill="#F19246"/>
</mask>
<g mask="url(#mask2)">
<path fill-rule="evenodd" clip-rule="evenodd" d="M63.7259 406.969C86.0285 400.594 98.9401 377.346 92.5647 355.043C86.1893 332.741 62.9412 319.829 40.6386 326.204C18.336 332.58 5.42437 355.828 11.7998 378.131C18.1751 400.433 41.4233 413.345 63.7259 406.969Z" fill="#C385F8"/>
</g>
<path d="M23.2532 377.225C23.2699 377.296 23.2842 377.356 23.3009 377.427C23.8017 377.554 24.2883 377.675 24.7891 377.802C26.088 377.967 27.4029 377.984 28.76 377.856C30.6079 377.596 32.4434 377.122 34.2431 376.496C35.1636 375.488 36.2451 374.622 37.3123 373.75L37.3122 373.696C36.2107 374.098 35.1416 374.206 34.0741 374.051C32.6126 373.951 31.4333 373.43 30.5244 372.489C29.7768 371.855 29.3122 371.072 29.1021 370.126C28.5123 368.379 28.0994 366.573 27.6983 364.763C27.4739 363.757 27.4857 363.753 28.5822 363.221C29.0984 362.927 29.6005 362.628 30.1168 362.334C30.7174 361.75 31.3794 361.211 31.9444 360.584C32.8108 359.616 33.4527 358.559 34.1039 357.488C34.2166 357.21 34.3292 356.932 34.456 356.66C34.5405 356.479 34.6867 356.397 34.8898 356.449C35.5181 356.577 36.1322 356.698 36.7581 356.816C38.0378 356.9 39.3011 357.022 40.6042 356.989C42.3345 356.932 44.0766 356.872 45.8322 356.545C45.6174 355.633 45.3909 354.726 45.188 353.811C44.7249 351.738 44.2028 349.684 43.2633 347.803C42.6322 346.529 41.7914 345.446 40.298 344.888C39.6553 344.644 38.9308 344.757 38.2624 344.62C38.13 344.545 37.998 344.633 37.8683 344.676C35.9175 345.309 34.0024 346.04 32.1301 346.898C31.5289 347.209 30.9182 347.534 30.317 347.845C28.391 348.962 26.6403 350.281 25.1617 351.892C24.8111 352.349 24.4463 352.799 24.0957 353.255C22.9856 354.972 22.289 356.768 22.0032 358.634C21.9456 359.199 21.9021 359.771 21.8445 360.337C21.8656 362.154 22.1744 363.897 22.6012 365.6C22.7347 366.113 22.9059 366.623 22.9214 367.175C23.152 367.83 23.3095 368.498 23.375 369.208C23.5182 369.816 23.6849 370.415 23.7809 371.039C24.0111 372.502 24.2674 373.967 23.962 375.534C23.869 376.111 23.769 376.713 23.2532 377.225Z" fill="#E67E3D"/>
<path d="M83.1283 368.421C83.0892 368.256 83.0524 368.1 83.0134 367.935C82.657 367.624 82.2305 367.64 81.7085 367.824C80.3705 368.301 79.0164 368.71 77.6784 369.186C77.1906 369.359 77.0444 369.261 76.973 368.855C76.8671 368.303 76.7702 367.737 76.5275 367.23C75.8246 365.765 74.5026 365.009 72.7117 364.766C72.3353 364.786 71.943 364.791 71.569 364.821C70.5565 364.906 69.5719 365.318 68.5825 365.605C68.2771 365.718 67.983 365.826 67.6799 365.948C68.0681 366.186 68.5855 365.982 69.0305 366.096C70.5138 366.494 71.2478 367.519 71.6424 368.772C72.0118 369.971 72.2468 371.225 72.5364 372.45C74.1685 371.918 75.8121 371.381 77.4465 370.858C78.9829 370.336 80.5169 369.805 82.0602 369.312C82.5754 369.151 82.9467 368.901 83.1283 368.421Z" fill="#5F4EAF"/>
<path d="M33.5534 389.094C34.444 390.35 35.5408 391.406 37.0829 392.095C36.8953 392.212 36.7523 392.304 36.621 392.392C35.3977 393.379 34.5787 394.524 34.2322 395.902C34.1694 396.173 34.1443 396.443 34.2036 396.695C34.3341 397.249 34.7266 397.411 35.3695 397.184C35.7918 397.042 36.1457 396.771 36.4573 396.481C37.5069 395.509 38.2321 394.395 38.4638 393.121C38.3682 392.446 37.9043 391.928 37.8791 391.229C37.4522 389.47 37.0228 387.7 36.5959 385.94C36.5532 385.759 36.5575 385.616 36.7614 385.46C37.1153 385.189 37.4504 384.892 37.7995 384.6C38.1648 384.162 38.53 383.724 38.8952 383.286C39.5034 382.321 40.1797 381.376 40.6351 380.353C40.7449 380.12 40.9021 380.089 41.1183 380.147C43.165 380.775 45.3679 380.883 47.6474 380.672C48.5251 380.475 49.4028 380.278 50.2805 380.081C50.6277 379.943 50.989 379.811 51.3362 379.672L51.315 379.636C50.9419 377.836 50.2147 376.199 49.0372 374.8C48.3025 373.938 47.4788 373.181 46.2382 372.858C45.6038 372.691 44.9019 372.775 44.2442 372.669C43.5614 372.888 42.8834 373.126 42.2148 373.405C40.9716 373.932 39.8251 374.654 38.6692 375.336C37.6076 376.204 36.5319 377.065 35.6162 378.069C34.839 379.015 34.1604 380.005 33.5806 381.037C33.3845 381.494 33.1907 381.962 32.9946 382.419C32.6432 383.723 32.4304 385.023 32.5908 386.296C32.7319 387.325 33.1192 388.217 33.5534 389.094Z" fill="#AD5A38"/>
<path d="M41.5152 343.886C40.5655 344.027 39.6211 344.353 38.6664 344.418C38.0241 344.71 37.3116 344.705 36.6791 345.038C37.3464 345.18 38.0946 345.062 38.7478 345.308C40.2654 345.873 41.1222 346.979 41.7612 348.258C42.7159 350.16 43.2585 352.233 43.7172 354.335C43.9234 355.26 44.1536 356.178 44.3718 357.1L44.3647 357.124C45.5685 356.91 46.7653 356.775 47.9737 356.471C47.9326 356.352 47.9275 356.221 47.8649 356.121C47.1059 354.827 46.4069 353.513 45.8924 352.105C45.3417 350.598 44.9132 349.061 45.0793 347.359C45.2055 346.035 45.7447 344.816 47.1051 343.897C45.5065 343.591 43.8154 343.659 42.122 343.827C41.9181 343.84 41.7166 343.863 41.5152 343.886Z" fill="#E25520"/>
<path d="M27.851 365.276C27.6295 364.281 27.6411 364.277 28.7239 363.751C29.2337 363.461 29.7296 363.165 30.2394 362.875C30.8325 362.298 31.4863 361.765 32.0327 361.15C32.8883 360.193 33.5222 359.148 34.1655 358.09C34.2767 357.815 34.3879 357.54 34.5132 357.271C34.5967 357.092 34.741 357.011 34.9416 357.062C35.562 357.188 36.1684 357.309 36.7865 357.425C38.0502 357.508 39.2977 357.629 40.5844 357.596C42.2931 357.541 44.0134 357.481 45.747 357.158L45.7401 357.182C45.8997 357.647 46.0477 358.115 46.2073 358.58C45.2129 359 44.8659 360.143 45.4694 360.998C45.5606 361.119 45.6518 361.24 45.743 361.36C46.1118 361.539 46.4898 361.703 46.974 361.411C47.2765 362.162 47.1714 363.051 47.439 363.814C47.2736 363.859 47.2736 363.859 47.439 363.814C47.7558 365.695 47.9025 367.6 47.2918 369.598C47.2433 369.766 47.2274 369.965 47.0459 370.102C46.9601 370.271 46.8766 370.45 46.7907 370.62C46.101 370.732 45.4252 370.851 44.7354 370.964C44.0969 371.082 43.4773 371.279 42.8507 371.5C42.1729 371.717 41.4997 371.954 40.836 372.231C39.6017 372.754 38.4634 373.471 37.3157 374.148L37.332 374.11C36.2442 374.508 35.1885 374.614 34.1344 374.461C32.6911 374.363 31.5266 373.847 30.6292 372.917C29.8911 372.29 29.4323 371.516 29.225 370.581C28.6427 368.854 28.2468 367.065 27.851 365.276ZM34.4488 362.552C33.9503 362.73 33.7741 363.102 33.6818 363.511C33.631 363.723 33.6315 363.939 33.6064 364.152C33.7004 364.499 33.8154 364.827 34.0562 365.103C34.5283 365.614 35.0528 365.599 35.6926 365.06C36.1406 364.24 36.1086 363.517 35.5849 362.894C35.3207 362.572 34.9822 362.362 34.4488 362.552ZM44.3366 364.036C43.8096 363.932 43.3859 364.215 43.1193 364.844C42.5004 366.326 40.8722 366.884 39.6999 366.014C39.1207 365.583 38.7898 365.618 38.1361 366.205C38.1315 366.239 38.1386 366.269 38.1457 366.299C37.8691 366.673 37.998 366.953 38.2527 367.181C39.1334 367.987 40.2507 368.248 41.6369 367.891C41.7558 367.862 41.8769 367.843 41.9958 367.813C43.3559 367.292 44.291 366.405 44.7776 365.162C45.0349 364.546 44.8497 364.133 44.3366 364.036ZM42.0098 367.82C42.0285 367.846 42.0495 367.882 42.0683 367.908C42.0472 367.872 42.0285 367.846 42.0098 367.82Z" fill="#FAE0BD"/>
<path d="M47.2714 372.462C46.5612 372.577 45.8654 372.699 45.1551 372.815C44.4977 372.935 43.8597 373.137 43.2146 373.364C43.8869 373.471 44.602 373.376 45.253 373.556C46.5212 373.884 47.3752 374.649 48.1144 375.53C49.3181 376.952 50.0591 378.606 50.443 380.445C51.901 379.881 53.2433 379.101 54.5442 378.091C54.5975 378.317 54.6363 378.481 54.6752 378.645C55.0536 380.243 55.4584 381.843 55.8009 383.453C56.102 384.834 56.5854 386.165 56.5747 387.65C57.5255 388.714 58.7872 389.343 60.4364 389.367C61.3197 389.381 61.7439 389.096 62.035 388.413C61.8593 387.233 60.893 386.705 59.8549 386.256C59.1485 385.95 58.3536 385.818 57.4225 385.93C57.6544 385.543 57.8456 385.202 58.0512 384.868C58.4353 383.922 58.8482 382.988 58.9922 382.011C59.0628 381.435 59.1454 380.855 59.216 380.278C59.03 379.821 59.0623 379.301 58.9963 378.804C58.7568 378.066 58.4933 377.336 58.1148 376.666C56.8138 374.724 54.8688 373.505 52.4187 372.832C51.2467 372.582 50.039 372.455 48.8099 372.401C48.2987 372.428 47.785 372.445 47.2714 372.462Z" fill="#964E32"/>
<path d="M51.7991 392.057C51.8959 392.573 51.2594 392.951 51.2189 393.445C51.8999 393.198 52.593 392.946 53.274 392.699C53.8075 392.332 54.3854 392.041 54.8673 391.624C56.0831 390.518 56.7567 389.245 57.0279 387.836C57.0537 386.341 56.548 384.999 56.2382 383.593C55.8764 381.968 55.4754 380.346 55.0891 378.73C55.0495 378.564 55.0098 378.399 54.9554 378.171C53.6266 379.191 52.2532 379.969 50.7665 380.55L50.7887 380.588C50.8704 380.929 50.9496 381.261 51.0191 381.607C51.1238 382.321 51.4734 382.954 51.4163 383.711C51.5813 384.014 51.5601 384.368 51.6026 384.711C51.8464 385.179 51.7448 385.749 51.8637 386.246C52.4048 385.966 52.9361 385.701 53.5368 385.726C53.9242 385.744 54.2676 385.854 54.3371 386.2C54.4139 386.521 54.1425 386.823 53.8488 387.032C53.3055 387.412 52.6954 387.569 52.0631 387.633C52.0604 388.562 52.2366 389.465 52.0697 390.425C52.1029 390.951 52.0625 391.501 51.7991 392.057Z" fill="#F0D0AB"/>
<path d="M82.4913 375.63C82.0575 374.227 81.0102 373.699 79.3185 374.079C78.9906 374.156 78.8929 374.068 78.8495 373.83C78.7221 373.236 78.5827 372.645 78.4528 372.041C78.4025 371.882 78.3641 371.719 78.3137 371.56C76.613 372.119 74.9004 372.682 73.1972 373.231L73.2187 373.268C73.5328 374.327 73.8919 375.36 74.0872 376.459C75.1412 376.798 75.3671 377.754 74.6206 378.719C74.7408 379.228 74.8609 379.737 74.981 380.245C75.0968 380.899 75.2481 381.54 75.314 382.199C75.4071 383.299 75.4907 384.414 74.942 385.564C74.7528 385.957 74.535 386.338 74.0338 386.495C74.0222 386.608 73.9963 386.716 73.9847 386.83C74.2247 386.76 74.4622 386.681 74.7021 386.611C75.4693 386.332 76.2246 386.057 76.9535 385.67C78.3898 384.914 79.3166 383.79 79.9837 382.49C80.1038 382.021 80.212 381.557 80.332 381.088C80.3257 380.464 80.3194 379.84 80.1326 379.266C80.0535 379.04 80.096 378.893 80.4213 378.751C81.9316 378.091 82.6563 376.981 82.4913 375.63Z" fill="#F0D0AB"/>
<path d="M61.2369 380.56C61.1293 380.108 61.0218 379.655 60.9143 379.202C60.4989 379.429 60.081 379.646 59.6535 379.877C59.3472 380.235 59.0385 380.582 58.7322 380.939C58.6611 381.518 58.5779 382.101 58.5067 382.68C58.7706 382.803 58.7883 383.097 58.9533 383.297C59.6955 384.171 60.7191 384.419 62.0482 383.976C61.7794 382.845 61.5081 381.702 61.2369 380.56Z" fill="#F0D0AB"/>
<path d="M72.9983 371.815C72.7087 370.59 72.4738 369.337 72.1045 368.138C71.71 366.885 70.9761 365.861 69.4931 365.463C69.0596 365.345 68.5309 365.553 68.1428 365.315C67.6595 365.35 67.2519 365.706 66.7754 365.77C66.0645 366.09 65.3443 366.32 64.6012 366.504C64.3186 366.608 64.043 366.742 63.7649 366.814C62.2879 367.221 60.9664 367.871 59.9058 369C59.7625 369.173 59.61 369.36 59.4667 369.534C59.4144 369.625 59.3941 369.747 59.2344 369.695C59.3325 369.746 59.2916 369.833 59.237 369.914C58.8892 370.471 58.685 371.063 58.4922 371.651C58.4677 371.964 58.4295 372.27 58.4392 372.571C58.4986 373.914 58.9478 375.138 59.2375 376.416C60.377 376.036 61.5028 375.651 62.6423 375.272C62.5045 374.689 62.3552 374.109 62.2401 373.518C62.0445 372.535 62.7244 371.512 63.8594 371.113C64.4496 370.906 65.0308 370.713 65.6256 370.525C66.772 370.175 67.8127 370.626 68.063 371.581C68.2123 372.16 68.3388 372.747 68.4881 373.327C70.0059 372.832 71.5238 372.337 73.0531 371.839L72.9983 371.815Z" fill="#8174BE"/>
<path d="M34.5781 366.213C34.0391 366.333 33.5797 366.478 33.0304 366.767C32.9205 366.825 32.8265 366.898 32.7325 366.971C32.3565 367.263 32.0074 367.618 32.114 368.026C32.2163 368.414 32.6307 368.501 33.0639 368.509C33.8711 368.535 34.6117 368.274 35.2517 367.738C35.6141 367.44 35.8197 367.051 35.7359 366.636C35.6647 366.381 35.245 366.059 34.5781 366.213Z" fill="#E5C597"/>
<path d="M34.5781 366.213C34.0391 366.333 33.5797 366.478 33.0304 366.767C32.9205 366.825 32.8265 366.898 32.7325 366.971C32.3565 367.263 32.0074 367.618 32.114 368.026C32.2163 368.414 32.6307 368.501 33.0639 368.509C33.8711 368.535 34.6117 368.274 35.2517 367.738C35.6141 367.44 35.8197 367.051 35.7359 366.636C35.6647 366.381 35.245 366.059 34.5781 366.213Z" fill="#E5C597"/>
<path d="M50.3783 357.101C50.1962 357.161 49.9775 357.178 49.8587 357.284C49.3374 357.736 48.9873 357.641 48.7044 357.222C47.4926 357.525 46.2682 357.664 45.049 357.88C45.2154 358.359 45.3696 358.842 45.536 359.321C46.9992 359.47 47.4527 361.1 46.3353 362.239C46.6506 363.014 46.5411 363.93 46.82 364.716C47.1504 366.655 47.3034 368.619 46.6669 370.678C46.6163 370.85 46.5998 371.056 46.4106 371.197C46.3211 371.371 46.2341 371.556 46.1446 371.731C46.6646 371.714 47.1845 371.697 47.7166 371.676C48.3283 371.384 48.9764 371.135 49.5636 370.795C51.5194 369.656 52.8886 368.143 53.4791 366.166C53.4303 366.071 53.4154 365.954 53.3472 365.887C52.4316 365.067 52.108 363.928 51.7894 362.809C51.3508 361.297 51.0457 359.739 50.6774 358.192C50.5551 357.843 50.4667 357.472 50.3783 357.101ZM48.2865 362.237C48.6894 362.058 49.1341 362.055 49.5376 362.099C49.9289 362.147 50.3738 362.256 50.4041 362.713C50.4295 363.15 50.1047 363.492 49.7434 363.79C49.3602 364.106 48.9835 364.064 48.6234 363.872C48.3825 363.741 48.1029 363.667 47.862 363.535C47.5749 363.375 46.9723 363.375 47.0467 363.027C47.1332 362.62 47.7282 362.478 48.1384 362.275C48.1869 362.259 48.2258 362.257 48.2865 362.237Z" fill="#F0D0AB"/>
<path d="M33.6095 363.824C33.7054 364.177 33.8227 364.511 34.0681 364.791C34.5494 365.31 35.084 365.296 35.7361 364.748C36.1927 363.914 36.1599 363.178 35.6261 362.544C35.3592 362.228 35.0141 362.014 34.4704 362.207C33.9624 362.388 33.7827 362.767 33.6887 363.183C33.6369 363.398 33.6351 363.607 33.6095 363.824Z" fill="#484346"/>
<path d="M38.2335 366.705C38.2267 366.676 38.2198 366.648 38.2243 366.615C38.8583 366.057 39.179 366.023 39.7397 366.436C40.8634 367.27 42.4416 366.74 43.0541 365.324C43.3018 364.728 43.7261 364.464 44.2345 364.554C44.7315 364.648 44.9105 365.042 44.6718 365.625C44.1877 366.814 43.2921 367.654 41.9736 368.15C41.8585 368.178 41.741 368.196 41.6259 368.224C40.2823 368.563 39.2001 368.312 38.3475 367.543C38.0897 367.329 37.9651 367.061 38.2335 366.705Z" fill="#E25520"/>
<path d="M46.3005 361.908C47.382 360.788 46.95 359.175 45.5182 359.028C44.5039 359.456 44.1501 360.619 44.7658 361.489C44.8588 361.611 44.9519 361.734 45.0449 361.857C45.4211 362.038 45.8067 362.206 46.3005 361.908Z" fill="#484346"/>
<path d="M51.5036 372.396C53.2033 371.839 54.9075 371.301 56.51 370.439C56.8228 370.275 57.1357 370.111 57.4485 369.947C58.0764 369.526 58.7065 369.115 59.3344 368.695C59.3523 368.566 59.4536 368.533 59.5639 368.538C59.7056 368.369 59.8563 368.186 60.0092 368.014C58.8791 368.312 57.7555 368.486 56.6833 368.265C55.4671 368.152 54.478 367.72 53.6957 366.984C53.6191 366.969 53.5426 366.953 53.466 366.937C52.9275 368.75 51.6453 370.141 49.8313 371.186C49.2867 371.497 48.6969 371.721 48.1184 371.992C49.2715 372.044 50.4044 372.163 51.5036 372.396Z" fill="#E25520"/>
<path d="M37.9693 391.597C37.5436 389.841 37.1154 388.076 36.6897 386.32C36.6471 386.139 36.6514 385.997 36.8548 385.842C37.2077 385.571 37.5419 385.275 37.8901 384.984C38.2543 384.547 38.6186 384.11 38.9829 383.673C39.5894 382.71 40.2639 381.768 40.718 380.747C40.8275 380.515 40.9844 380.484 41.2 380.542C43.2412 381.169 45.438 381.277 47.7113 381.066C48.5867 380.87 49.462 380.673 50.3374 380.477C50.6836 380.339 51.0439 380.207 51.3902 380.069C51.4683 380.4 51.544 380.722 51.6104 381.058C51.7104 381.751 52.0444 382.366 51.99 383.1C51.7104 382.716 51.3702 382.451 50.7457 382.748C50.7386 382.718 50.7432 382.683 50.7267 382.667C50.7338 382.697 50.7386 382.718 50.7457 382.748C50.2435 383.296 50.2167 383.826 50.4686 384.36C50.6356 384.694 50.8775 384.971 51.3457 384.922C51.8748 384.863 52.0026 384.441 52.1563 384.075C52.3892 384.528 52.2898 385.071 52.4058 385.564C51.759 386.356 51.7995 386.635 52.5964 386.91C52.5939 387.811 52.7623 388.687 52.6029 389.62C52.6276 390.154 52.6008 390.683 52.3492 391.224C52.4418 391.724 51.8338 392.091 51.7952 392.571C49.7267 393.276 47.656 393.972 45.5876 394.678C45.4635 394.687 45.3394 394.696 45.2153 394.705C44.5204 394.971 43.8043 395.147 43.0857 395.312C42.8281 395.29 42.5704 395.269 42.3128 395.247C40.8516 395.26 39.7263 394.771 38.9488 393.773C38.7637 393.738 38.7678 393.487 38.5313 393.501C38.4594 392.82 37.9945 392.293 37.9693 391.597ZM48.9033 389.778C48.9033 389.778 48.901 389.768 48.9033 389.778C48.901 389.768 48.9033 389.778 48.9033 389.778ZM45.1705 389.741C46.0294 390.494 47.4696 390.498 48.634 389.76C48.7042 389.736 48.7744 389.713 48.8586 389.695C49.2161 389.337 49.6931 389.057 49.8558 388.568C49.8909 388.557 50.0727 388.203 50.1356 388.04C50.3218 387.598 50.2297 387.26 49.7565 387.181C49.309 387.103 48.9419 387.313 48.7861 387.778C48.7652 387.85 48.7094 388.042 48.7048 388.076C48.378 388.512 47.9596 388.826 47.4284 388.983C46.9227 389.033 46.4776 388.966 46.149 388.642C45.9988 388.487 45.7786 388.463 45.5421 388.477C44.7773 388.875 44.6589 389.284 45.1705 389.741ZM41.6101 387.433C42.0637 388.127 42.6701 388.075 43.1997 387.268C43.2785 386.905 43.2706 386.55 43.134 386.238C42.9856 385.876 42.7624 385.571 42.2543 385.612C41.7205 385.65 41.5787 386.066 41.4109 386.426C41.4188 386.782 41.4009 387.135 41.6101 387.433Z" fill="#FAE0BD"/>
<path d="M43.2999 387.033C43.3798 386.665 43.3717 386.305 43.2329 385.989C43.0821 385.622 42.8553 385.313 42.3392 385.354C41.797 385.392 41.653 385.815 41.4827 386.18C41.5027 386.536 41.4846 386.894 41.6947 387.186C42.1462 387.904 42.7622 387.851 43.2999 387.033Z" fill="#484346"/>
<path d="M52.0119 386.237C51.3823 387.002 51.4216 387.272 52.1967 387.538C52.7867 387.488 53.3537 387.342 53.8564 386.975C54.1408 386.776 54.3817 386.497 54.3105 386.196C54.2347 385.875 53.9269 385.768 53.5669 385.751C53.0087 385.727 52.5148 385.975 52.0119 386.237Z" fill="#E5C597"/>
<path d="M51.4828 383.457C51.1987 383.069 50.853 382.8 50.2186 383.1C49.7086 383.656 49.6815 384.193 49.9375 384.734C50.1074 385.073 50.3531 385.353 50.8288 385.304C51.3663 385.245 51.496 384.817 51.652 384.445C51.6369 384.11 51.643 383.756 51.4828 383.457Z" fill="#484346"/>
<path d="M60.7423 381.295C60.7843 381.313 60.8239 381.321 60.8659 381.34C60.8263 381.331 60.7843 381.313 60.7423 381.295C60.6388 380.855 60.5352 380.414 60.4316 379.974C60.3845 379.774 60.3398 379.584 60.2927 379.384C61.0438 379.693 61.7925 379.992 62.5203 380.309C61.7809 379.996 61.0298 379.687 60.2927 379.384C60.2646 379.318 60.2388 379.262 60.2107 379.196C60.0811 378.592 59.9515 377.987 59.8219 377.383C60.9861 376.992 62.1363 376.595 63.3005 376.204C64.1993 375.913 65.098 375.622 65.9968 375.331C66.7303 375.084 67.4753 374.834 68.2064 374.578C68.5533 374.45 68.9119 374.319 69.2588 374.192C70.8095 373.682 72.3602 373.171 73.9226 372.657C74.2303 373.698 74.5822 374.713 74.7735 375.793C74.0492 375.972 73.9129 376.46 73.8769 377.001C74.0236 377.945 74.4601 378.252 75.2961 378.014C75.4138 378.514 75.5315 379.015 75.6492 379.515C75.7625 380.157 75.9108 380.787 75.9753 381.435C76.0664 382.516 76.1482 383.611 75.6103 384.742C75.4248 385.128 75.2113 385.502 74.72 385.656C74.7086 385.768 74.6832 385.873 74.6718 385.985C74.1619 386.167 73.6637 386.345 73.1538 386.527C73.035 386.557 72.9163 386.586 72.8091 386.611C71.1491 387.19 69.4959 387.745 67.8076 388.205C66.5222 388.561 65.3384 388.548 64.2352 388.131C62.5676 387.504 61.791 386.232 61.5215 384.606C61.2649 383.516 61.0036 382.405 60.7423 381.295ZM65.6394 378.883C65.1528 379.058 64.8887 379.697 65.0439 380.303C65.1944 380.889 65.7056 381.247 66.1713 381.09C66.6742 380.932 66.943 380.313 66.7831 379.687C66.6325 379.046 66.1376 378.705 65.6394 378.883ZM73.7515 381.113C73.8741 380.726 73.7034 380.481 73.3351 380.411C72.9271 380.332 72.5967 380.529 72.4112 380.916C72.2883 381.194 72.1771 381.469 71.9307 381.703C71.3122 382.278 70.4503 382.405 69.8411 381.952C69.5352 381.72 69.2133 381.58 68.8016 381.858C68.4223 382.115 68.3882 382.45 68.5288 382.781C69.0168 383.2 69.607 383.466 70.3179 383.551C71.7089 383.483 72.805 382.91 73.5082 381.68C73.6173 381.503 73.6844 381.308 73.7515 381.113Z" fill="#FAE0BD"/>
<path d="M73.2744 377.34C73.4244 378.301 73.8698 378.613 74.7228 378.371C75.4692 377.407 75.2431 376.449 74.1889 376.11C73.438 376.296 73.3134 376.799 73.2744 377.34Z" fill="#484346"/>
<path d="M70.3155 383.8C71.6644 383.737 72.7279 383.191 73.411 382.018C73.5147 381.84 73.58 381.653 73.6453 381.467C73.7646 381.098 73.5993 380.864 73.2422 380.796C72.8467 380.72 72.5261 380.908 72.3458 381.277C72.2264 381.543 72.1183 381.805 71.879 382.028C71.2787 382.576 70.4428 382.697 69.8525 382.263C69.5562 382.041 69.2442 381.907 68.8446 382.173C68.4766 382.418 68.4432 382.738 68.5792 383.053C69.0542 383.464 69.6262 383.718 70.3155 383.8Z" fill="#E25520"/>
<path d="M65.4496 374.63C66.1701 374.389 66.9021 374.145 67.6204 373.895C67.9612 373.77 68.3135 373.642 68.6543 373.518C68.5158 372.931 68.3887 372.341 68.2274 371.761C67.976 370.801 66.929 370.338 65.7806 370.7C65.1835 370.889 64.6002 371.083 64.0078 371.292C62.8709 371.703 62.1862 372.723 62.3828 373.712C62.5098 374.303 62.6483 374.89 62.7868 375.476C63.6836 375.198 64.5666 374.914 65.4496 374.63Z" fill="#E67E3D"/>
<path d="M45.6635 388.847C45.8917 388.834 46.1041 388.857 46.2488 389.005C46.5542 389.316 46.9948 389.377 47.4827 389.329C48.0066 389.178 48.4128 388.889 48.715 388.471C48.7195 388.438 48.7126 388.41 48.6945 388.385C48.7283 388.322 48.7621 388.259 48.7937 388.187C48.9444 387.746 49.3101 387.544 49.7304 387.621C50.1868 387.698 50.2754 388.019 50.0952 388.438C50.0321 388.583 49.9713 388.737 49.9218 388.887C49.8902 388.907 49.8564 388.919 49.8248 388.939C49.6672 389.403 49.2067 389.668 48.8616 390.008C48.7938 390.03 48.7261 390.053 48.6448 390.069C47.5207 390.769 46.1314 390.763 45.3037 390.047C44.8084 389.603 44.9231 389.215 45.6635 388.847Z" fill="#E25520"/>
<path d="M48.2336 362.271C48.1764 362.29 48.1306 362.306 48.0962 362.317C47.7071 362.5 47.1483 362.644 47.0665 363.031C46.9962 363.361 47.553 363.365 47.8351 363.514C48.0622 363.639 48.3259 363.709 48.553 363.834C48.8925 364.017 49.2477 364.057 49.6091 363.756C49.95 363.473 50.2564 363.149 50.2326 362.734C50.2157 362.296 49.7847 362.197 49.4157 362.151C49.0421 362.086 48.6251 362.098 48.2336 362.271Z" fill="#E5C597"/>
<path d="M66.7897 379.4C66.6358 378.748 66.1425 378.397 65.6221 378.582C65.1255 378.759 64.8561 379.41 65.0148 380.028C65.1686 380.625 65.6904 380.989 66.1657 380.83C66.6671 380.673 66.9413 380.042 66.7897 379.4Z" fill="#484346"/>
<path d="M52.4546 341.628C52.0721 342.07 51.6785 342.515 51.2961 342.958C51.0735 343.362 50.7841 343.743 50.6562 344.186C50.7055 344.284 50.7324 344.388 50.7902 344.472C51.8505 346.005 52.6467 347.641 52.9817 349.508C54.0464 349.083 55.0645 349.089 56.0867 349.488C57.6439 350.084 59.2415 350.038 60.8802 349.304C61.4537 349.04 61.9447 348.644 62.4823 348.335C62.822 347.962 63.1617 347.589 63.5014 347.216C63.8719 346.587 64.4083 346.132 65.1133 345.862C65.1389 345.82 65.1645 345.779 65.2014 345.734C65.1889 345.591 65.1401 345.449 65.1528 345.31C65.2512 344.234 65.2571 343.176 65.1988 342.103C65.1273 340.696 64.6705 339.486 63.6883 338.49C63.1183 337.921 62.3577 337.646 61.5943 337.36C61.1822 337.452 60.7561 337.536 60.3439 337.627C59.6394 337.852 58.921 338.07 58.2164 338.295C57.1988 338.761 56.1597 339.144 55.1775 339.7C54.1953 340.257 53.3014 340.921 52.4546 341.628Z" fill="#AD5A38"/>
<path d="M61.2484 337.601C62.0242 337.88 62.8001 338.159 63.3843 338.746C64.3863 339.754 64.8524 340.981 64.9255 342.406C64.9824 343.483 64.9794 344.566 64.8792 345.656C64.8663 345.797 64.9047 345.945 64.9288 346.086C66.9552 345.475 68.425 345.954 69.4947 347.557C69.7559 347.946 70.0198 348.345 70.3414 348.681C70.9929 349.385 71.7162 350.033 72.7999 350.07C73.3502 350.098 73.9254 349.936 74.4812 349.985C74.3588 348.894 74.2365 347.803 74.1168 346.722C74.0408 346.095 73.9561 345.483 73.8801 344.856C73.6743 343.824 73.4888 342.775 73.18 341.774C72.8602 340.731 72.4402 339.73 71.7705 338.861C70.5497 337.246 68.7939 336.568 66.647 336.714C64.8425 336.848 63.0339 337.108 61.2484 337.601Z" fill="#964E32"/>
<path d="M74.8385 350.195C74.2721 350.16 73.7037 350.308 73.1515 350.28C72.0614 350.232 71.3383 349.594 70.6846 348.889C70.3706 348.538 70.097 348.153 69.835 347.764C68.7473 346.151 67.2868 345.678 65.2534 346.29C65.2272 346.332 65.201 346.374 65.1633 346.419C65.5178 347.26 65.8609 348.104 66.0803 348.996C66.5112 349.654 66.4794 350.485 66.8758 351.154C66.9776 351.545 67.082 351.947 67.1837 352.339C68.3566 352.945 68.6535 354.088 67.9342 355.229C68.0812 355.938 68.2883 356.64 68.3406 357.366C68.3679 357.757 68.6015 358.132 68.4367 358.547C68.461 358.688 68.5596 358.829 68.452 358.987C68.8225 359.412 69.0491 359.903 69.1805 360.457C69.3615 361.201 69.3642 361.212 68.5771 361.472C68.7164 362.628 68.3981 363.739 67.9655 364.84C68.9644 364.585 69.9419 364.199 70.9843 364.159C71.3766 364.144 71.7657 364.164 72.1494 364.162C72.6798 363.82 73.0798 363.357 73.5252 362.927C73.8219 362.495 74.1185 362.063 74.4151 361.632C74.9374 360.447 75.2911 359.234 75.1385 357.979C75.0522 357.217 74.8713 356.473 74.739 355.725C74.7066 355.553 74.5284 355.344 74.8533 355.212C75.3428 354.95 75.7616 354.607 76.1748 354.243C77.1728 352.745 76.9118 350.929 74.8385 350.195Z" fill="#F0D0AB"/>
<path d="M46.4933 344.151C45.2058 345.017 44.7285 346.234 44.6567 347.58C44.5607 349.31 45.0481 350.899 45.6301 352.471C46.1875 353.948 46.9178 355.326 47.7029 356.677C47.7677 356.783 47.7892 356.914 47.8222 357.041C48.1098 357.48 48.4496 357.594 48.9329 357.164C49.0544 357.058 49.2636 357.053 49.4247 357.004C49.6272 356.829 49.8269 356.643 50.0294 356.468C50.2826 356.107 50.5331 355.735 50.6865 355.323C51.0432 354.405 51.162 353.479 51.2151 352.538C51.25 351.957 51.3792 351.404 51.7572 350.902C52.0151 350.368 52.4749 349.99 52.9489 349.619C51.4663 347.302 49.9257 345.048 47.2134 343.82C46.9916 343.921 46.7496 344.039 46.4933 344.151Z" fill="#AD5A38"/>
<path d="M47.0399 343.829C49.7429 345.055 51.2783 347.306 52.7558 349.62C52.7929 349.62 52.8273 349.61 52.8759 349.606C53.0139 349.519 53.1607 349.418 53.2987 349.331C52.9476 347.453 52.1315 345.783 51.06 344.225C51.0009 344.14 50.9735 344.035 50.9231 343.936C50.3071 343.848 49.7385 343.609 49.0991 343.574C48.3996 343.545 47.7116 343.513 47.0399 343.829Z" fill="#964E32"/>
<path d="M62.2702 363.03C62.8708 362.268 63.4029 361.471 63.2939 360.405C64.243 361.91 65.4277 362.301 67.1982 361.78C67.7838 361.604 68.3831 361.435 68.9687 361.259C69.7342 360.996 69.7231 361 69.5496 360.283C69.4236 359.749 69.206 359.277 68.85 358.867C68.1198 358.208 67.2398 357.89 66.1695 358.08C65.7833 358.152 65.3992 358.278 65.0099 358.384C63.5072 358.836 62.0125 359.318 60.5045 359.749C59.5848 360.014 58.8226 360.474 58.2389 361.21C58.0276 361.636 57.8599 362.093 57.7502 362.543C57.7384 363.096 57.9087 363.616 58.0321 364.139C58.0949 364.428 58.2207 364.5 58.5385 364.393C59.1767 364.191 59.8228 364.018 60.4662 363.836C61.1124 363.664 61.6831 363.339 62.2702 363.03Z" fill="#AD5A38"/>
<path d="M67.3251 352.203C66.5891 352.255 66.2567 352.537 66.1245 353.214C66.007 353.852 66.1516 354.411 66.5582 354.891C66.9986 355.406 67.4155 355.451 68.0584 355.086C68.7833 353.946 68.4914 352.817 67.3251 352.203Z" fill="#484346"/>
<path d="M49.7816 358.563C49.6842 358.186 49.5841 357.797 49.4868 357.42C49.6859 357.246 49.8823 357.062 50.0814 356.889C50.3305 356.53 50.5768 356.162 50.7277 355.754C51.0785 354.844 51.1954 353.926 51.2477 352.994C51.2821 352.418 51.4092 351.87 51.7809 351.373C52.0345 350.844 52.4866 350.469 52.9527 350.102C52.9894 350.102 53.0233 350.091 53.0712 350.088C53.2074 350.002 53.3522 349.901 53.4884 349.815C54.561 349.388 55.5867 349.394 56.6166 349.794C58.1854 350.394 59.795 350.347 61.4458 349.609C62.0235 349.344 62.5182 348.945 63.0597 348.634C63.4019 348.259 63.7441 347.883 64.0863 347.508C64.4595 346.875 64.9998 346.417 65.7101 346.145C66.059 346.978 66.3966 347.815 66.6125 348.7C67.0366 349.352 67.0052 350.176 67.3954 350.838C67.4955 351.227 67.5983 351.626 67.6984 352.014C66.968 352.065 66.6381 352.346 66.5068 353.02C66.3901 353.655 66.5335 354.211 66.9369 354.688C67.3739 355.201 67.7876 355.245 68.4256 354.882C68.5702 355.585 68.774 356.281 68.8255 357.001C68.8523 357.389 69.0822 357.76 68.92 358.172C68.9438 358.311 69.0409 358.452 68.935 358.608C68.1871 357.93 67.286 357.603 66.1905 357.799C65.7952 357.874 65.4021 358.004 65.0036 358.114C63.4656 358.58 61.9357 359.078 60.3923 359.523C59.4509 359.797 58.6709 360.271 58.0738 361.028C57.8577 361.467 57.6864 361.938 57.5743 362.402C57.5625 362.971 57.7371 363.506 57.8638 364.045C57.9282 364.342 58.057 364.416 58.3823 364.306C59.0355 364.097 59.6968 363.919 60.3554 363.731C61.0195 363.564 61.6149 363.225 62.2157 362.907C62.83 362.121 63.3743 361.3 63.2621 360.203C64.2346 361.752 65.4476 362.154 67.2597 361.616C67.8591 361.435 68.4725 361.26 69.0718 361.078C69.2089 362.225 68.8955 363.327 68.4695 364.417C68.1669 364.52 67.8755 364.62 67.5756 364.734C67.0908 364.745 66.6952 365.102 66.2185 365.145C65.1328 364.433 65.1328 364.433 66.2185 365.145C65.5164 365.448 64.8013 365.653 64.0613 365.81C63.7812 365.906 63.5093 366.034 63.2325 366.095C61.7634 366.45 60.4604 367.071 59.4392 368.217C58.3007 368.483 57.1637 368.613 56.0622 368.313C54.8187 368.124 53.793 367.598 52.9652 366.751C52.8865 366.73 52.8078 366.708 52.7292 366.687C52.6795 366.589 52.661 366.47 52.5942 366.4C51.699 365.528 51.3508 364.367 51.008 363.226C50.5425 361.704 50.1847 360.127 49.7816 358.563ZM56.0001 358.376C56.5262 358.714 57.1003 358.529 57.3911 357.954C57.7598 357.209 57.4568 356.034 56.7879 355.614C56.2644 355.286 55.685 355.451 55.3969 356.036C55.1894 356.461 55.1678 356.897 55.3013 357.321C55.4036 357.765 55.6195 358.129 56.0001 358.376Z" fill="#FAE0BD"/>
<path d="M55.3223 357.211C55.4115 357.65 55.6408 358.013 56.0249 358.262C56.5558 358.602 57.1351 358.416 57.4284 357.838C57.8004 357.088 57.4945 355.906 56.8193 355.484C56.2911 355.154 55.7064 355.32 55.4158 355.908C55.2092 356.346 55.1989 356.781 55.3223 357.211Z" fill="#484346"/>
<path d="M26.7813 366.568C26.7813 366.568 27.6858 368.591 30.2048 369.99C32.7239 371.389 34.9197 371.087 34.9197 371.087C34.9197 371.087 32.8962 371.992 31.4972 374.511C30.0981 377.03 30.3998 379.226 30.3998 379.226C30.3998 379.226 29.4954 377.202 26.9763 375.803C24.4573 374.404 22.2614 374.706 22.2614 374.706C22.2614 374.706 24.285 373.801 25.684 371.282C27.083 368.763 26.7813 366.568 26.7813 366.568Z" fill="white"/>
<path d="M71.7066 390.127C71.7066 390.127 72.2978 391.45 73.9442 392.364C75.5906 393.279 77.0259 393.081 77.0259 393.081C77.0259 393.081 75.7033 393.673 74.7889 395.319C73.8745 396.965 74.0716 398.401 74.0716 398.401C74.0716 398.401 73.4805 397.078 71.8341 396.164C70.1876 395.249 68.7524 395.446 68.7524 395.446C68.7524 395.446 70.075 394.855 70.9894 393.209C71.9038 391.562 71.7066 390.127 71.7066 390.127Z" fill="white"/>
<mask id="mask3" mask-type="alpha" maskUnits="userSpaceOnUse" x="105" y="319" width="105" height="106">
<path d="M145.483 412.164C167.686 418.877 191.127 406.32 197.84 384.116C204.553 361.913 191.996 338.472 169.793 331.759C147.589 325.046 124.148 337.603 117.435 359.806C110.722 382.01 123.279 405.451 145.483 412.164Z" fill="#00C0F3"/>
</mask>
<g mask="url(#mask3)">
<path d="M145.483 412.164C167.686 418.877 191.127 406.32 197.84 384.116C204.553 361.913 191.996 338.472 169.793 331.759C147.589 325.046 124.148 337.603 117.435 359.806C110.722 382.01 123.279 405.451 145.483 412.164Z" fill="#00C0F3"/>
<path d="M169.117 370.515L168.095 373.893C167.749 375.039 166.568 375.705 165.47 375.374L164.616 375.115C163.518 374.783 162.904 373.574 163.251 372.428L163.386 371.982L163.101 371.896C162.754 373.042 161.573 373.708 160.476 373.376L159.621 373.118C158.524 372.786 157.909 371.577 158.256 370.431L158.616 369.24L158.331 369.154C157.984 370.3 156.803 370.966 155.706 370.635L154.851 370.376C153.754 370.044 153.14 368.835 153.486 367.689L153.666 367.094L153.381 367.008C153.035 368.154 151.854 368.82 150.756 368.488L149.901 368.23C148.804 367.898 148.19 366.689 148.536 365.543L148.883 364.397L147.358 363.936L146.602 366.437L149.322 371.791L168.63 377.628L170.641 370.976L169.117 370.515Z" fill="#E3F3FF"/>
<path d="M167.712 367.548L166.869 367.293C165.717 366.944 164.472 367.615 164.122 368.771L164.719 366.797C165.069 365.64 164.404 364.392 163.252 364.044L162.409 363.789C161.257 363.441 160.011 364.111 159.662 365.267L160.216 363.434C160.566 362.277 159.9 361.029 158.748 360.681L157.905 360.426C156.753 360.078 155.508 360.748 155.158 361.905L155.371 361.2C155.721 360.043 155.056 358.795 153.904 358.447L153.061 358.192C151.909 357.844 150.663 358.514 150.314 359.67L148.48 365.735C148.13 366.892 148.796 368.14 149.948 368.488L150.791 368.743C151.943 369.091 153.188 368.421 153.538 367.264L153.367 367.829C153.018 368.985 153.683 370.233 154.835 370.581L155.678 370.836C156.83 371.184 158.075 370.514 158.425 369.358L158.084 370.486C157.734 371.643 158.399 372.89 159.551 373.239L160.394 373.494C161.546 373.842 162.792 373.172 163.141 372.015L163.013 372.438C162.664 373.595 163.329 374.843 164.481 375.191L165.324 375.446C166.476 375.794 167.721 375.124 168.071 373.967L169.18 370.3C169.534 369.13 168.864 367.896 167.712 367.548Z" fill="#FDB97E"/>
<path d="M133.222 359.662L130.976 358.983C130.382 358.804 129.693 359.326 129.446 360.145L128.335 363.821C128.087 364.639 128.371 365.456 128.965 365.636L131.211 366.315L133.222 359.662Z" fill="#E3F3FF"/>
<path d="M187.024 375.929L184.778 375.25L182.766 381.902L185.013 382.581C185.606 382.761 186.295 382.238 186.542 381.42L187.654 377.744C187.901 376.925 187.618 376.109 187.024 375.929Z" fill="#E3F3FF"/>
<path d="M181.719 367.972L180.717 367.669L175.186 385.963L176.188 386.266C178.848 387.07 181.485 386.14 182.075 384.189L185.469 372.964C186.054 371.027 184.359 368.771 181.719 367.972Z" fill="#3C87D0"/>
<path d="M178.653 361.6L177.482 361.246C175.51 360.65 173.434 361.74 172.848 363.679C172.848 363.679 165.586 387.696 166.173 385.757C165.586 387.696 166.711 389.754 168.682 390.35L169.854 390.704C171.825 391.3 173.902 390.21 174.488 388.271L181.163 366.193C181.745 364.268 180.625 362.196 178.653 361.6Z" fill="#0268B4"/>
<path d="M177.474 365.078L170.799 387.155C170.357 388.617 169.086 389.613 167.686 389.757C168.031 390.045 168.438 390.276 168.889 390.412L170.01 390.751C171.895 391.321 173.902 390.21 174.488 388.271L181.163 366.193C181.749 364.254 180.695 362.217 178.809 361.647L177.689 361.308C177.238 361.172 176.771 361.138 176.324 361.187C177.423 362.087 177.916 363.616 177.474 365.078Z" fill="#13326F"/>
<path d="M134.018 374.424L135.02 374.727L140.551 356.433L139.549 356.13C136.889 355.326 134.252 356.256 133.662 358.207L130.268 369.433C129.682 371.369 131.377 373.625 134.018 374.424Z" fill="#3C87D0"/>
<path d="M147.055 352.046L145.883 351.692C143.911 351.096 141.835 352.186 141.249 354.126C141.249 354.126 133.988 378.142 134.574 376.203C133.988 378.142 135.112 380.2 137.084 380.796L138.255 381.15C140.227 381.746 142.303 380.656 142.889 378.717L149.564 356.64C150.147 354.714 149.026 352.643 147.055 352.046Z" fill="#0268B4"/>
<path d="M145.875 355.524L139.2 377.602C138.758 379.063 137.488 380.059 136.087 380.203C136.432 380.492 136.84 380.722 137.291 380.859L138.411 381.197C140.297 381.768 142.303 380.656 142.889 378.717L149.564 356.64C150.151 354.7 149.096 352.664 147.211 352.094L146.09 351.755C145.639 351.618 145.172 351.585 144.725 351.633C145.825 352.534 146.317 354.063 145.875 355.524Z" fill="#13326F"/>
<path d="M165.222 373.046L166.184 369.474C166.432 368.554 167.316 367.993 168.318 368.04C168.119 367.915 167.901 367.798 167.657 367.717L166.74 367.414C165.486 366.999 164.195 367.59 163.892 368.716L162.929 372.288C162.626 373.415 163.413 374.692 164.666 375.107L165.583 375.41C165.828 375.491 166.065 375.539 166.297 375.541C165.435 374.972 164.974 373.966 165.222 373.046Z" fill="#FEA95C"/>
<path d="M160.32 371.084L161.703 365.981C161.953 365.057 162.845 364.494 163.858 364.541C163.656 364.415 163.436 364.298 163.189 364.217L162.263 363.912C160.998 363.497 159.694 364.09 159.388 365.22L158.005 370.323C157.695 371.468 158.494 372.736 159.759 373.152L160.685 373.457C160.932 373.538 161.171 373.586 161.406 373.588C160.535 373.017 160.069 372.008 160.32 371.084Z" fill="#FEA95C"/>
<path d="M155.615 368.423L157.191 362.623C157.442 361.697 158.338 361.133 159.354 361.181C159.152 361.054 158.931 360.937 158.683 360.856L157.753 360.551C156.483 360.135 155.174 360.728 154.866 361.861L153.29 367.661C152.983 368.794 153.781 370.078 155.052 370.494L155.982 370.799C156.229 370.88 156.469 370.929 156.705 370.931C155.831 370.359 155.363 369.348 155.615 368.423Z" fill="#FEA95C"/>
<path d="M150.73 366.329L152.344 360.389C152.596 359.463 153.492 358.899 154.51 358.946C154.308 358.82 154.086 358.703 153.838 358.621L152.908 358.317C151.636 357.9 150.326 358.494 150.018 359.627L148.404 365.567C148.096 366.7 148.895 367.984 150.167 368.401L151.097 368.705C151.345 368.787 151.585 368.835 151.821 368.837C150.947 368.265 150.478 367.254 150.73 366.329Z" fill="#FEA95C"/>
<path d="M149.712 371.803L149.695 371.86L146.672 366.189C146.104 365.125 144.755 364.717 143.693 365.288L142.741 365.801C141.679 366.373 141.269 367.727 141.837 368.791L148.813 381.876L148.404 383.23C148.446 383.243 148.507 383.246 148.549 383.258L160.771 386.954C160.814 386.967 160.87 386.984 160.908 387.01L161.091 386.404C163.211 385.783 164.997 384.137 165.687 381.852L167.137 377.056L149.716 371.789L149.712 371.803Z" fill="#FEA95C"/>
<path d="M155.792 382.123C155.216 381.949 154.883 381.325 155.058 380.747C155.728 378.533 154.475 376.184 152.269 375.517C151.693 375.343 151.361 374.719 151.536 374.14C151.71 373.562 152.333 373.227 152.909 373.401C156.281 374.42 158.189 377.999 157.165 381.384C156.991 381.962 156.368 382.297 155.792 382.123Z" fill="#FDB97E"/>
<path d="M161.059 386.577C161.846 386.815 162.294 387.658 162.055 388.451L158.874 398.97C158.635 399.762 157.794 400.216 157.007 399.978L144.555 396.213C143.767 395.975 143.319 395.132 143.559 394.339L146.739 383.82C146.979 383.028 147.819 382.574 148.606 382.812L161.059 386.577Z" fill="#015A9A"/>
<path d="M155.456 397.936L158.636 387.417C158.876 386.625 158.456 385.79 157.704 385.563L161.123 386.596C161.875 386.824 162.294 387.658 162.055 388.451L158.874 398.97C158.635 399.762 157.823 400.225 157.071 399.997L153.652 398.964C154.405 399.191 155.216 398.729 155.456 397.936Z" fill="#13326F"/>
<path d="M154.567 337.602C154.567 337.602 154.256 339.639 155.521 341.999C156.785 344.36 158.653 345.229 158.653 345.229C158.653 345.229 156.616 344.917 154.256 346.182C151.896 347.446 151.027 349.314 151.027 349.314C151.027 349.314 151.338 347.278 150.073 344.917C148.809 342.557 146.941 341.688 146.941 341.688C146.941 341.688 148.978 341.999 151.338 340.735C153.698 339.47 154.567 337.602 154.567 337.602Z" fill="white"/>
</g>
<mask id="mask4" mask-type="alpha" maskUnits="userSpaceOnUse" x="168" y="287" width="105" height="105">
<circle cx="220.484" cy="339.089" r="42" transform="rotate(15.9697 220.484 339.089)" fill="#8E40B7"/>
</mask>
<g mask="url(#mask4)">
<circle cx="220.484" cy="339.089" r="42" transform="rotate(15.9697 220.484 339.089)" fill="#8E40B7"/>
<path d="M224.231 371.143L200.492 364.35C198.947 363.908 197.776 362.529 197.611 360.915L196.375 350.643L234.976 361.69L228.492 369.753C227.499 371.035 225.775 371.585 224.231 371.143Z" fill="#0CAFE8"/>
<path d="M229.764 360.198L223.28 368.261C222.287 369.543 220.563 370.094 219.019 369.652L223.844 371.033C225.388 371.474 227.112 370.924 228.105 369.642L234.589 361.579L229.764 360.198Z" fill="#0B90D3"/>
<path d="M199.552 381.465L216.857 386.417L222.712 370.709L203.412 365.185L199.552 381.465Z" fill="#0B90D3"/>
<path d="M214.677 385.794C215.38 385.89 216.083 385.987 216.786 386.084L222.952 370.777L220.057 369.949L214.677 385.794Z" fill="#007BC6"/>
<path d="M202.837 369.197L221.558 374.555L222.952 370.777L203.652 365.254L202.837 369.197Z" fill="#007BC6"/>
<path d="M205.98 369.721C205.172 369.489 204.519 369.157 204.044 368.709C203.568 368.261 203.209 367.7 202.978 367.052L201.705 369.101C201.725 369.397 201.821 369.716 201.999 370.038C202.153 370.373 202.394 370.692 202.685 370.983C202.971 371.293 203.325 371.582 203.754 371.829C204.177 372.096 204.66 372.297 205.199 372.451C205.929 372.66 206.616 372.732 207.303 372.658C207.97 372.578 208.589 372.381 209.133 372.079C209.677 371.777 210.16 371.395 210.556 370.885C210.947 370.393 211.232 369.83 211.42 369.176C211.618 368.484 211.673 367.855 211.604 367.294C211.536 366.734 211.382 366.253 211.155 365.813C210.927 365.374 210.638 365 210.309 364.698C209.979 364.395 209.628 364.17 209.284 363.989L212.774 361.534L213.341 359.553L205.861 357.413L205.08 360.143L209.195 361.321L205.625 363.836L205.492 365.899C205.668 365.866 205.902 365.85 206.193 365.85C206.484 365.85 206.803 365.9 207.149 365.999C207.822 366.191 208.311 366.518 208.621 366.961C208.907 367.417 208.997 367.9 208.843 368.439C208.672 369.035 208.323 369.455 207.801 369.68C207.279 369.905 206.672 369.919 205.98 369.721ZM219.954 361.155C219.185 360.934 218.462 360.915 217.773 361.071C217.083 361.228 216.451 361.546 215.871 362.046C215.272 362.54 214.75 363.202 214.285 364.026C213.801 364.844 213.419 365.817 213.1 366.932C212.781 368.047 212.596 369.055 212.555 370C212.513 370.945 212.601 371.802 212.828 372.533C213.056 373.264 213.418 373.888 213.935 374.41C214.432 374.927 215.08 375.279 215.887 375.51C216.637 375.724 217.354 375.763 218.044 375.607C218.734 375.451 219.371 375.113 219.951 374.613C220.531 374.113 221.053 373.452 221.518 372.628C221.982 371.804 222.378 370.856 222.697 369.741C223.022 368.606 223.198 367.554 223.226 366.584C223.249 365.634 223.161 364.777 222.914 364.04C222.667 363.304 222.299 362.7 221.797 362.202C221.289 361.724 220.685 361.364 219.954 361.155ZM219.173 363.885C219.826 364.072 220.23 364.624 220.433 365.515C220.63 366.424 220.528 367.581 220.126 368.984C219.703 370.465 219.153 371.514 218.521 372.124C217.889 372.733 217.265 372.95 216.65 372.774C216.342 372.686 216.075 372.526 215.856 372.276C215.631 372.045 215.458 371.705 215.37 371.284C215.258 370.878 215.217 370.367 215.261 369.776C215.305 369.185 215.44 368.496 215.66 367.727C215.88 366.958 216.13 366.301 216.411 365.757C216.686 365.233 216.972 364.815 217.288 364.511C217.584 364.2 217.911 364.003 218.23 363.907C218.549 363.811 218.865 363.797 219.173 363.885Z" fill="#9DEEFF"/>
</g>
<path d="M238.321 319.318C237.479 321.165 236.196 323.826 233.134 325.769C234.723 317.662 231.722 306.258 226.278 301.568C221.807 309.894 209.493 314.618 204.745 324.64C199.998 334.662 204.391 346.673 214.441 351.323C224.463 356.071 236.474 351.678 241.124 341.628C244.561 334.363 243.007 324.105 238.321 319.318Z" fill="#FFDE39"/>
<path d="M212.774 348.028C208.198 343.586 208.105 336.251 212.574 331.579C214.754 329.07 217.568 325.073 218.603 322.55C221.539 323.599 225.757 327.103 228.899 331.448C232.041 335.792 233.568 343.224 229.099 347.897C224.754 352.5 217.322 352.566 212.774 348.028Z" fill="#FEC632"/>
<path d="M224.632 345.992C223.431 349.094 219.639 350.305 216.593 348.911C213.546 347.518 212.017 343.739 213.673 340.872C216.184 336.475 222.996 335.292 222.996 335.292C222.996 335.292 226.068 342.435 224.632 345.992Z" fill="#F9A74E"/>
<path d="M235.184 361.749L196.583 350.702L198.24 344.912C198.847 342.789 201.081 341.549 203.204 342.157L234.085 350.994C236.208 351.602 237.448 353.836 236.841 355.959L235.184 361.749Z" fill="white"/>
<path opacity="0.2" d="M233.973 350.962L229.148 349.581C231.271 350.189 232.511 352.423 231.903 354.546L230.246 360.336L235.071 361.717L236.728 355.927C237.336 353.804 236.096 351.569 233.973 350.962Z" fill="#382673"/>
<path d="M222.419 317.815C223.485 318.12 224.597 317.504 224.902 316.438C225.207 315.372 224.59 314.26 223.524 313.955C222.458 313.65 221.346 314.267 221.041 315.333C220.736 316.399 221.353 317.51 222.419 317.815Z" fill="#F9A74E"/>
<path d="M237.669 311.778C238.735 312.083 239.846 311.466 240.151 310.4C240.456 309.334 239.839 308.223 238.773 307.918C237.707 307.613 236.596 308.23 236.291 309.296C235.986 310.362 236.603 311.473 237.669 311.778Z" fill="#FEC632"/>
<path d="M201.474 309.726C201.474 309.726 201.215 311.609 202.414 313.769C203.613 315.93 205.348 316.706 205.348 316.706C205.348 316.706 203.465 316.447 201.305 317.646C199.144 318.845 198.368 320.58 198.368 320.58C198.368 320.58 198.627 318.697 197.428 316.537C196.229 314.376 194.494 313.6 194.494 313.6C194.494 313.6 196.377 313.859 198.538 312.66C200.698 311.461 201.474 309.726 201.474 309.726Z" fill="white"/>
<path d="M227.517 351.503C227.517 351.503 227.326 352.897 228.213 354.495C229.1 356.094 230.384 356.669 230.384 356.669C230.384 356.669 228.991 356.477 227.392 357.364C225.793 358.252 225.219 359.536 225.219 359.536C225.219 359.536 225.411 358.142 224.523 356.543C223.636 354.944 222.352 354.37 222.352 354.37C222.352 354.37 223.745 354.562 225.344 353.674C226.943 352.787 227.517 351.503 227.517 351.503Z" fill="white"/>
<path d="M189.468 326.631C189.468 326.631 185.772 341.255 195.507 359.497" stroke="#49B125" stroke-width="1.6" stroke-miterlimit="10" stroke-linecap="round" stroke-linejoin="round"/>
<path d="M196.279 346.591C196.24 346.675 197.937 349.477 197.419 351.481C196.86 353.569 193.885 354.142 193.798 354.098C193.758 354.181 191.48 350.78 192.292 348.613C193.152 346.573 196.367 346.635 196.279 346.591Z" fill="#36CC29"/>
<path d="M192.774 354.788C192.774 354.788 190.527 356.819 188.233 355.573C185.892 354.201 184.994 349.787 184.994 349.787C184.994 349.787 187.555 348.218 189.646 349.668C191.65 351.075 192.688 354.745 192.774 354.788Z" fill="#36CC29"/>
<path d="M195.049 339.701C195.009 339.784 196.161 342.83 195.164 344.701C194.168 346.571 191.038 346.553 191.038 346.553C190.998 346.637 189.392 342.952 190.682 340.919C191.893 339.052 195.009 339.784 195.049 339.701Z" fill="#36CC29"/>
<path d="M189.935 347.071C189.935 347.071 187.282 348.599 185.305 346.899C183.242 345.156 183.27 340.584 183.27 340.584C183.27 340.584 186.198 339.601 187.924 341.38C189.524 343.198 189.848 347.027 189.935 347.071Z" fill="#36CC29"/>
<path d="M195.168 332.628C195.128 332.711 195.557 335.911 194.251 337.523C192.905 339.219 189.749 338.571 189.789 338.488C189.749 338.571 188.945 334.566 190.593 332.918C192.162 331.436 195.128 332.711 195.168 332.628Z" fill="#36CC29"/>
<path d="M191.74 322.231C191.74 322.231 193.454 325.254 192.95 327.687C192.357 330.076 189.586 331.792 189.586 331.792C189.586 331.792 187.155 329.134 187.769 326.24C188.345 323.429 191.74 322.231 191.74 322.231Z" fill="#36CC29"/>
<path d="M188.644 338.75C188.644 338.75 185.708 339.736 184.096 337.705C182.437 335.548 183.363 331.107 183.363 331.107C183.363 331.107 186.449 330.708 187.81 332.817C189.044 334.966 188.644 338.75 188.644 338.75Z" fill="#36CC29"/>
<path d="M253.32 345.276C253.32 345.276 249.429 359.625 231.704 369.466" stroke="#49B125" stroke-width="1.6" stroke-miterlimit="10" stroke-linecap="round" stroke-linejoin="round"/>
<path d="M245.215 367.179C245.312 367.192 242.292 370.361 239.568 370.199C236.94 370.05 235.949 367.012 235.949 367.012C236.046 367.024 238.732 364.541 241.176 364.485C243.718 364.442 245.312 367.192 245.215 367.179Z" fill="#36CC29"/>
<path d="M235.657 366.027C235.657 366.027 233.272 363.876 233.7 361.798C234.222 359.825 237.129 358.335 237.129 358.335C237.129 358.335 239.941 360.076 239.702 362.363C239.363 364.637 235.652 366.119 235.657 366.027Z" fill="#36CC29"/>
<path d="M251.586 360.381C251.683 360.393 249.404 364.123 246.735 364.517C244.17 364.832 242.576 361.983 242.571 362.074C242.668 362.086 244.709 359.056 247.091 358.535C249.479 357.923 251.591 360.29 251.586 360.381Z" fill="#36CC29"/>
<path d="M242.1 361.218C242.1 361.218 239.28 359.476 239.309 357.346C239.337 355.216 241.873 353.307 241.879 353.215C241.879 353.215 245.032 354.443 245.198 356.689C245.359 359.028 242.1 361.218 242.1 361.218Z" fill="#36CC29"/>
<path d="M256.394 352.262C256.492 352.274 255.058 356.497 252.542 357.372C250.129 358.169 248.01 355.699 248.01 355.699C248.108 355.712 249.493 352.308 251.629 351.202C253.862 350.107 256.4 352.17 256.394 352.262Z" fill="#36CC29"/>
<path d="M254.042 340.095C254.042 340.095 256.423 342.995 255.638 345.784C254.751 348.561 251.218 349.429 251.218 349.429C251.218 349.429 249.559 346.431 250.214 344.092C250.971 341.764 254.036 340.187 254.042 340.095Z" fill="#36CC29"/>
<path d="M247.348 355.051C247.348 355.051 244.197 353.824 243.819 351.737C243.442 349.649 245.41 347.113 245.41 347.113C245.41 347.113 248.7 347.709 249.367 350.017C250.134 352.338 247.343 355.143 247.348 355.051Z" fill="#36CC29"/>
<defs>
<filter id="filter0_d" x="201.816" y="79.996" width="77.2499" height="62.7587" filterUnits="userSpaceOnUse" color-interpolation-filters="sRGB">
<feFlood flood-opacity="0" result="BackgroundImageFix"/>
<feColorMatrix in="SourceAlpha" type="matrix" values="0 0 0 0 0 0 0 0 0 0 0 0 0 0 0 0 0 0 127 0"/>
<feOffset dy="3"/>
<feGaussianBlur stdDeviation="1.5"/>
<feColorMatrix type="matrix" values="0 0 0 0 0 0 0 0 0 0 0 0 0 0 0 0 0 0 0.25 0"/>
<feBlend mode="normal" in2="BackgroundImageFix" result="effect1_dropShadow"/>
<feBlend mode="normal" in="SourceGraphic" in2="effect1_dropShadow" result="shape"/>
</filter>
<linearGradient id="paint0_linear" x1="232.075" y1="72.237" x2="250.159" y2="154.267" gradientUnits="userSpaceOnUse">
<stop stop-color="#3CD4F4"/>
<stop offset="1" stop-color="#1E80D3"/>
</linearGradient>
</defs>
</svg>
