<svg width="360" height="585" viewBox="0 0 360 585" fill="none" xmlns="http://www.w3.org/2000/svg">
<defs>
<linearGradient id="paint0_linear" x1="-19.4541" y1="-604.265" x2="-785.983" y2="117.735" gradientUnits="userSpaceOnUse">
<stop stop-color="#21AAF7"/>
<stop offset="1" stop-color="#1480E8"/>
</linearGradient>
<linearGradient id="paint1_linear" x1="254.591" y1="-442.437" x2="-552.282" y2="317.563" gradientUnits="userSpaceOnUse">
<stop stop-color="#37CFFF"/>
<stop offset="1" stop-color="#347BE4"/>
</linearGradient>
<linearGradient id="paint2_linear" x1="-44.6011" y1="54.1306" x2="-467.168" y2="430.85" gradientUnits="userSpaceOnUse">
<stop stop-color="#30B3FC"/>
<stop offset="1" stop-color="#2F96F9"/>
</linearGradient>
<linearGradient id="paint3_linear" x1="890.134" y1="626.428" x2="1248.06" y2="268.502" gradientUnits="userSpaceOnUse">
<stop offset="0.28125" stop-color="#1D89ED"/>
<stop offset="1" stop-color="#0FC6FD"/>
</linearGradient>
<linearGradient id="paint4_linear" x1="549.523" y1="185.611" x2="347.648" y2="387.491" gradientUnits="userSpaceOnUse">
    <stop offset="0%" stop-color="#30B3FC"/>
    <stop offset="100%" stop-color="#2F96F9"/>
</linearGradient>
</defs>
<path fill-rule="evenodd" clip-rule="evenodd" d="M374.994 -298.978C418.06 -255.912 418.06 -186.088 374.994 -143.022L-347.006 578.978C-390.071 622.043 -459.895 622.043 -502.961 578.978C-546.027 535.912 -546.027 466.088 -502.961 423.022L219.039 -298.978C262.105 -342.043 331.929 -342.043 374.994 -298.978Z" fill="url(#paint0_linear)"/>
<path fill-rule="evenodd" clip-rule="evenodd" d="M665.696 -116.978C708.761 -73.9118 708.761 -4.08835 665.696 38.9775L-94.3044 798.977C-137.37 842.043 -207.194 842.043 -250.26 798.977C-293.325 755.912 -293.325 686.088 -250.26 643.022L509.74 -116.978C552.806 -160.043 622.63 -160.043 665.696 -116.978Z" fill="url(#paint1_linear)"/>
<path fill-rule="evenodd" clip-rule="evenodd" d="M237.898 123.262C277.162 164.746 277.162 232.006 237.898 273.49L-46.3895 587.806C-85.6539 629.29 -149.314 629.29 -188.578 587.806C-227.843 546.321 -227.843 479.062 -188.578 437.577L95.7088 123.262C134.973 81.7772 198.633 81.7772 237.898 123.262Z" fill="url(#paint2_linear)"/>
<path fill-rule="evenodd" clip-rule="evenodd" d="M102.431 695.35C59.3651 652.284 59.3651 582.461 102.431 539.395L843.176 -201.35C886.242 -244.416 956.066 -244.416 999.131 -201.35C1042.2 -158.284 1042.2 -88.4609 999.131 -45.3951L258.386 695.35C215.32 738.416 145.497 738.416 102.431 695.35Z" fill="url(#paint3_linear)"/>
<path fill-rule="evenodd" clip-rule="evenodd" d="M286.434 203.837C249.606 167.009 249.606 107.297 286.434 70.4688L586.499 -229.59C623.328 -266.419 683.039 -266.419 719.868 -229.59C756.697 -192.761 756.697 -133.05 719.868 -96.2213L419.803 203.837C382.974 240.666 323.263 240.666 286.434 203.837Z" fill="url(#paint4_linear)"/>
</svg>
