<svg width="1440" height="489" fill="none" xmlns="http://www.w3.org/2000/svg"><path fill-rule="evenodd" clip-rule="evenodd" d="M1895.86-356.274c56.93 56.93 56.93 149.232 0 206.162l-770 770c-56.93 56.93-149.233 56.93-206.163 0-56.93-56.93-56.93-149.232 0-206.162l770.003-770c56.93-56.93 149.23-56.93 206.16 0z" fill="url(#paint0_linear)"/><path fill-rule="evenodd" clip-rule="evenodd" d="M179.031-215.002c29.288 29.288 29.288 76.774 0 106.062l-338 338c-29.288 29.288-76.774 29.288-106.062 0-29.288-29.288-29.288-76.774 0-106.062l338-338c29.288-29.288 76.774-29.288 106.062 0z" fill="url(#paint1_linear)"/><path fill-rule="evenodd" clip-rule="evenodd" d="M507.656-340.551c52.125 52.125 52.125 136.636 0 188.76L-93.887 449.753c-52.125 52.125-136.636 52.125-188.76 0-52.125-52.125-52.125-136.636 0-188.76l601.543-601.544c52.125-52.124 136.636-52.124 188.76 0z" fill="url(#paint2_linear)"/><path fill-rule="evenodd" clip-rule="evenodd" d="M1661.77-213.671c37.3 37.304 37.3 97.786 0 135.09l-430.51 430.507c-37.31 37.305-97.79 37.305-135.09 0-37.31-37.304-37.31-97.786 0-135.09l430.5-430.507c37.31-37.304 97.79-37.304 135.1 0z" fill="url(#paint3_linear)"/><path fill-rule="evenodd" clip-rule="evenodd" d="M778.277-272.949c43.066 43.066 43.066 112.89 0 155.955l-722 722c-43.066 43.066-112.89 43.066-155.955 0-43.066-43.065-43.066-112.889 0-155.955l722-722c43.066-43.066 112.889-43.066 155.955 0z" fill="url(#paint4_linear)"/><path fill-rule="evenodd" clip-rule="evenodd" d="M1266.23 325.362c-25.77-25.77-25.77-67.55 0-93.32l209.96-209.954c25.77-25.77 67.55-25.77 93.32 0 25.77 25.77 25.77 67.55 0 93.319l-209.96 209.955c-25.77 25.769-67.55 25.769-93.32 0z" fill="url(#paint5_linear)"/><path fill-rule="evenodd" clip-rule="evenodd" d="M2147.47-389.194c49.11 49.109 49.11 128.731 0 177.84l-823.31 823.318c-49.11 49.109-128.73 49.109-177.84 0-49.11-49.109-49.11-128.731 0-177.84l823.31-823.318c49.11-49.109 128.74-49.109 177.84 0z" fill="url(#paint6_linear)"/><path fill-rule="evenodd" clip-rule="evenodd" d="M1068.98-90.95c43.06 43.067 43.06 112.89 0 155.956l-760.002 760c-43.066 43.066-112.889 43.066-155.955 0-43.066-43.066-43.066-112.889 0-155.955l760-760c43.066-43.066 112.887-43.066 155.957 0z" fill="url(#paint7_linear)"/><path fill-rule="evenodd" clip-rule="evenodd" d="M919.236-54.65c56.931 56.93 56.931 149.232 0 206.162L469.864 600.883c-56.93 56.93-149.231 56.93-206.162 0-56.93-56.93-56.93-149.232 0-206.162L713.075-54.65c56.93-56.93 149.231-56.93 206.161 0z" fill="url(#paint8_linear)"/><path fill-rule="evenodd" clip-rule="evenodd" d="M505.713 721.379c-43.066-43.066-43.066-112.89 0-155.955l740.747-740.746c43.06-43.065 112.89-43.065 155.95 0 43.07 43.066 43.07 112.89 0 155.956L661.668 721.379c-43.066 43.066-112.89 43.066-155.955 0z" fill="url(#paint9_linear)"/><path fill-rule="evenodd" clip-rule="evenodd" d="M456.827 276.984c35.996 35.996 35.996 94.356 0 130.351l-619.133 619.135c-35.996 35.99-94.356 35.99-130.352 0-35.995-35.997-35.995-94.357 0-130.352l619.134-619.134c35.996-35.995 94.356-35.995 130.351 0z" fill="url(#paint10_linear)"/><path fill-rule="evenodd" clip-rule="evenodd" d="M770.276 174.866c-36.828-36.829-36.828-96.54 0-133.369L1070.34-258.56c36.83-36.829 96.54-36.829 133.37 0 36.83 36.828 36.83 96.539 0 133.368L903.645 174.866c-36.829 36.829-96.54 36.829-133.369 0z" fill="url(#paint11_linear)"/><defs><linearGradient id="paint0_linear" x1="1033.03" y1="-287.192" x2="637.778" y2="108.063" gradientUnits="userSpaceOnUse"><stop stop-color="#0FC6FD"/><stop offset="1" stop-color="#1D92ED"/></linearGradient><linearGradient id="paint1_linear" x1="-22.154" y1="-341.394" x2="-381" y2="-3.394" gradientUnits="userSpaceOnUse"><stop stop-color="#DD62B4"/><stop offset="1" stop-color="#AC55CF"/></linearGradient><linearGradient id="paint2_linear" x1="149.605" y1="-565.492" x2="-489.039" y2="36.051" gradientUnits="userSpaceOnUse"><stop stop-color="#5074F5"/><stop offset="1" stop-color="#5C87F4"/></linearGradient><linearGradient id="paint3_linear" x1="1319.99" y1="-183.333" x2="1576.76" y2="-440.107" gradientUnits="userSpaceOnUse"><stop stop-color="#30B3FC"/><stop offset="1" stop-color="#2F96F9"/></linearGradient><linearGradient id="paint4_linear" x1="383.829" y1="-578.236" x2="-382.701" y2="143.764" gradientUnits="userSpaceOnUse"><stop stop-color="#21AAF7"/><stop offset="1" stop-color="#1480E8"/></linearGradient><linearGradient id="paint5_linear" x1="1502.27" y1="508.038" x2="1781.68" y2="228.62" gradientUnits="userSpaceOnUse"><stop stop-color="#26ACF8"/><stop offset="1" stop-color="#1480E8"/><stop offset="1" stop-color="#1689E8"/></linearGradient><linearGradient id="paint6_linear" x1="1697.67" y1="-737.322" x2="823.578" y2="85.996" gradientUnits="userSpaceOnUse"><stop stop-color="#21AAF7"/><stop offset="1" stop-color="#1480E8"/></linearGradient><linearGradient id="paint7_linear" x1="657.873" y1="-416.408" x2="-149" y2="343.592" gradientUnits="userSpaceOnUse"><stop stop-color="#37CFFF"/><stop offset="1" stop-color="#5371F5"/></linearGradient><linearGradient id="paint8_linear" x1="448.045" y1="-115.373" x2="-134.638" y2="433.461" gradientUnits="userSpaceOnUse"><stop stop-color="#30BFFC"/><stop offset="1" stop-color="#2F96F9"/></linearGradient><linearGradient id="paint9_linear" x1="1293.42" y1="652.456" x2="1651.34" y2="294.531" gradientUnits="userSpaceOnUse"><stop offset=".281" stop-color="#1D89ED"/><stop offset="1" stop-color="#0FC6FD"/></linearGradient><linearGradient id="paint10_linear" x1="-201.555" y1="334.591" x2="-500.718" y2="633.755" gradientUnits="userSpaceOnUse"><stop stop-color="#1DA2ED"/><stop offset="1" stop-color="#0FC6FD"/></linearGradient><linearGradient id="paint11_linear" x1="1033.37" y1="156.639" x2="831.49" y2="358.519" gradientUnits="userSpaceOnUse"><stop stop-color="#30B3FC"/><stop offset="1" stop-color="#2F96F9"/></linearGradient></defs></svg>