<svg width="29" height="28" viewBox="0 0 29 28" fill="none" xmlns="http://www.w3.org/2000/svg">
<circle cx="14.3204" cy="14.0503" r="12.8581" fill="#FFA800" stroke="white" stroke-width="1.71616"/>
<path d="M20.5603 11.8672C20.777 11.8672 20.9955 11.7842 21.1615 11.6173C21.4942 11.2853 21.4941 10.7461 21.1613 10.4142C20.1116 9.36471 18.405 9.36471 17.3553 10.4142C17.0224 10.7462 17.0224 11.2854 17.3552 11.6174C17.6871 11.9501 18.2263 11.9501 18.5582 11.6174C18.9439 11.2317 19.5724 11.2316 19.9582 11.6172C20.1244 11.7843 20.3429 11.8672 20.5603 11.8672Z" fill="white" stroke="white" stroke-width="0.399757"/>
<path d="M6.5205 16.8365L6.5205 16.8365L6.52028 16.8367C6.18833 17.1687 6.18833 17.7078 6.52028 18.0398C8.6711 20.1906 11.4959 21.2655 14.3199 21.2655C17.1438 21.2655 19.9687 20.1906 22.1187 18.0397C22.4507 17.7078 22.4506 17.1687 22.1187 16.8367C21.7868 16.5048 21.2476 16.5048 20.9157 16.8367C17.2789 20.4735 11.3609 20.4735 7.72412 16.8367L7.7239 16.8365C7.39118 16.5049 6.85321 16.5049 6.5205 16.8365Z" fill="white" stroke="white" stroke-width="0.399757"/>
<path d="M11.1434 11.4763L11.2848 11.6176C11.6167 11.2857 11.6167 10.7465 11.2848 10.4146L11.2846 10.4145C10.7761 9.90682 10.0996 9.62611 9.38083 9.62611C8.6621 9.62611 7.9855 9.9068 7.4777 10.4146C7.14575 10.7465 7.14575 11.2857 7.4777 11.6176C7.81034 11.9503 8.34884 11.9506 8.68096 11.6174L8.5394 11.4763M11.1434 11.4763L11.2852 11.6172C11.119 11.7845 10.9004 11.8674 10.6828 11.8674C10.4649 11.8674 10.2475 11.7842 10.0809 11.6176C9.89385 11.4306 9.64605 11.3279 9.38083 11.3279C9.11655 11.3279 8.86857 11.4305 8.68048 11.6179L8.5394 11.4763M11.1434 11.4763C11.0165 11.6041 10.8497 11.6675 10.6828 11.6675C10.516 11.6675 10.35 11.6041 10.2223 11.4763C9.99766 11.2517 9.69901 11.128 9.38083 11.128C9.06346 11.128 8.76481 11.2517 8.5394 11.4763M11.1434 11.4763C11.3973 11.2224 11.3973 10.8098 11.1434 10.5559C10.6723 10.0856 10.0465 9.82599 9.38083 9.82599C8.71517 9.82599 8.08939 10.0856 7.61904 10.5559C7.36515 10.8098 7.36515 11.2224 7.61904 11.4763C7.87375 11.731 8.28551 11.731 8.5394 11.4763" fill="white" stroke="white" stroke-width="0.399757"/>
</svg>
